G75*
G70*
%OFA0B0*%
%FSLAX24Y24*%
%IPPOS*%
%LPD*%
%AMOC8*
5,1,8,0,0,1.08239X$1,22.5*
%
%ADD10C,0.0160*%
%ADD11C,0.0100*%
%ADD12C,0.0030*%
%ADD13C,0.0040*%
D10*
X003431Y000181D02*
X003431Y017504D01*
X001068Y017504D01*
X001856Y018685D02*
X001856Y023410D01*
X003824Y023410D01*
X003824Y018685D01*
X001856Y018685D01*
X006580Y014748D02*
X008155Y014748D01*
X008155Y023410D01*
X006580Y023410D01*
X006580Y014748D01*
X006580Y006087D01*
X008155Y006087D01*
X008155Y014748D01*
X009533Y013370D02*
X011895Y013370D01*
X011895Y016717D01*
X009533Y016717D01*
X009533Y013370D01*
X009533Y019079D02*
X009533Y023410D01*
X011895Y023410D01*
X011895Y019079D01*
X009533Y019079D01*
X010320Y025378D02*
X005990Y025378D01*
X005990Y027740D01*
X005990Y025378D02*
X001068Y025378D01*
X010320Y025378D02*
X010320Y027740D01*
X010320Y025378D02*
X014651Y025378D01*
X014651Y027740D01*
X014651Y025378D02*
X018982Y025378D01*
X018982Y027740D01*
X018982Y025378D02*
X023312Y025378D01*
X023312Y027740D01*
X023312Y025378D02*
X027643Y025378D01*
X027643Y027740D01*
X027643Y025378D02*
X032564Y025378D01*
X031777Y023213D02*
X031777Y018489D01*
X029809Y018489D01*
X029809Y023213D01*
X031777Y023213D01*
X027053Y023410D02*
X027053Y009630D01*
X025478Y009630D01*
X025478Y016323D01*
X026856Y016323D01*
X026856Y016520D01*
X025478Y016323D02*
X025478Y023410D01*
X027053Y023410D01*
X030202Y017504D02*
X030202Y000181D01*
X029021Y000575D02*
X020360Y000969D01*
X020753Y004906D01*
X029021Y005300D01*
X029021Y000575D01*
X019966Y005693D02*
X019966Y007268D01*
X012879Y007268D01*
X012879Y005693D01*
X019966Y005693D01*
X010911Y002740D02*
X011305Y001363D01*
X004021Y001166D01*
X004218Y002937D01*
X010911Y002740D01*
X030202Y017504D02*
X032564Y017504D01*
D11*
X022328Y016520D02*
X022328Y013764D01*
X021541Y013764D01*
X021541Y016520D01*
X022328Y016520D01*
X020557Y016520D02*
X020557Y013764D01*
X019769Y013764D01*
X019769Y016520D01*
X020557Y016520D01*
X018785Y016520D02*
X018785Y013764D01*
X017997Y013764D01*
X017997Y016520D01*
X018785Y016520D01*
X016816Y016520D02*
X016816Y013764D01*
X016029Y013764D01*
X016029Y016520D01*
X016816Y016520D01*
X014848Y016520D02*
X014848Y013764D01*
X014060Y013764D01*
X014060Y016520D01*
X014848Y016520D01*
X014848Y019670D02*
X014060Y019670D01*
X014060Y022426D01*
X014848Y022426D01*
X014848Y019670D01*
X016029Y019670D02*
X016029Y022426D01*
X016816Y022426D01*
X016816Y019670D01*
X016029Y019670D01*
X017997Y019670D02*
X017997Y022426D01*
X018785Y022426D01*
X018785Y019670D01*
X017997Y019670D01*
X019769Y019670D02*
X019769Y022426D01*
X020557Y022426D01*
X020557Y019670D01*
X019769Y019670D01*
X021541Y019670D02*
X021541Y022426D01*
X022328Y022426D01*
X022328Y019670D01*
X021541Y019670D01*
X024494Y006481D02*
X024494Y005693D01*
X027249Y005693D01*
X027249Y006481D01*
X024494Y006481D01*
X009139Y004906D02*
X009139Y004118D01*
X006383Y004118D01*
X006383Y004906D01*
X009139Y004906D01*
D12*
X005203Y019488D02*
X005080Y019488D01*
X005018Y019549D01*
X005018Y019673D01*
X005080Y019735D01*
X005203Y019735D01*
X005265Y019673D01*
X005265Y019611D01*
X005018Y019611D01*
X004897Y019488D02*
X004897Y019735D01*
X004650Y019735D02*
X004650Y019549D01*
X004712Y019488D01*
X004897Y019488D01*
X004528Y019488D02*
X004404Y019488D01*
X004466Y019488D02*
X004466Y019858D01*
X004404Y019858D01*
X004221Y019735D02*
X004036Y019735D01*
X004036Y019858D02*
X004036Y019488D01*
X004221Y019488D01*
X004283Y019549D01*
X004283Y019673D01*
X004221Y019735D01*
X004405Y020472D02*
X004343Y020534D01*
X004343Y020657D01*
X004405Y020719D01*
X004528Y020719D01*
X004590Y020657D01*
X004590Y020595D01*
X004343Y020595D01*
X004405Y020472D02*
X004528Y020472D01*
X004711Y020534D02*
X004711Y020657D01*
X004773Y020719D01*
X004958Y020719D01*
X004958Y020842D02*
X004958Y020472D01*
X004773Y020472D01*
X004711Y020534D01*
X004221Y020719D02*
X004160Y020719D01*
X004036Y020595D01*
X004036Y020472D02*
X004036Y020719D01*
X004160Y021136D02*
X004221Y021136D01*
X004283Y021198D01*
X004283Y021506D01*
X004098Y021506D01*
X004036Y021445D01*
X004036Y021321D01*
X004098Y021259D01*
X004283Y021259D01*
X004404Y021259D02*
X004404Y021506D01*
X004404Y021383D02*
X004528Y021506D01*
X004590Y021506D01*
X004711Y021445D02*
X004773Y021506D01*
X004896Y021506D01*
X004958Y021445D01*
X004958Y021383D01*
X004711Y021383D01*
X004711Y021321D02*
X004711Y021445D01*
X004711Y021321D02*
X004773Y021259D01*
X004896Y021259D01*
X005080Y021321D02*
X005080Y021445D01*
X005141Y021506D01*
X005265Y021506D01*
X005326Y021445D01*
X005326Y021383D01*
X005080Y021383D01*
X005080Y021321D02*
X005141Y021259D01*
X005265Y021259D01*
X005448Y021259D02*
X005448Y021506D01*
X005633Y021506D01*
X005695Y021445D01*
X005695Y021259D01*
X005572Y022244D02*
X005387Y022367D01*
X005572Y022491D01*
X005387Y022614D02*
X005387Y022244D01*
X005265Y022244D02*
X005080Y022244D01*
X005018Y022305D01*
X005018Y022429D01*
X005080Y022491D01*
X005265Y022491D01*
X004897Y022429D02*
X004897Y022244D01*
X004712Y022244D01*
X004650Y022305D01*
X004712Y022367D01*
X004897Y022367D01*
X004897Y022429D02*
X004835Y022491D01*
X004712Y022491D01*
X004466Y022614D02*
X004466Y022244D01*
X004404Y022244D02*
X004528Y022244D01*
X004283Y022305D02*
X004283Y022429D01*
X004221Y022491D01*
X004036Y022491D01*
X004036Y022614D02*
X004036Y022244D01*
X004221Y022244D01*
X004283Y022305D01*
X004404Y022614D02*
X004466Y022614D01*
X004078Y024903D02*
X004030Y024903D01*
X004078Y024903D02*
X004126Y024951D01*
X004126Y025193D01*
X003981Y025193D01*
X003933Y025145D01*
X003933Y025048D01*
X003981Y025000D01*
X004126Y025000D01*
X004227Y025000D02*
X004227Y025193D01*
X004373Y025193D01*
X004421Y025145D01*
X004421Y025000D01*
X004522Y025048D02*
X004522Y025145D01*
X004570Y025193D01*
X004716Y025193D01*
X004716Y025290D02*
X004716Y025000D01*
X004570Y025000D01*
X004522Y025048D01*
X004817Y025145D02*
X005010Y025145D01*
X005111Y025193D02*
X005111Y025000D01*
X005111Y025096D02*
X005208Y025193D01*
X005257Y025193D01*
X005357Y025145D02*
X005405Y025193D01*
X005502Y025193D01*
X005550Y025145D01*
X005550Y025096D01*
X005357Y025096D01*
X005357Y025048D02*
X005357Y025145D01*
X005357Y025048D02*
X005405Y025000D01*
X005502Y025000D01*
X005652Y025000D02*
X005748Y025000D01*
X005700Y025000D02*
X005700Y025290D01*
X005652Y025290D01*
X006595Y025145D02*
X006595Y025048D01*
X006644Y025000D01*
X006789Y025000D01*
X006789Y025290D01*
X006789Y025193D02*
X006644Y025193D01*
X006595Y025145D01*
X006890Y025145D02*
X007083Y025145D01*
X007184Y025145D02*
X007378Y025145D01*
X007479Y025145D02*
X007479Y025048D01*
X007527Y025000D01*
X007673Y025000D01*
X007673Y025290D01*
X007673Y025193D02*
X007527Y025193D01*
X007479Y025145D01*
X007774Y025241D02*
X007822Y025290D01*
X007919Y025290D01*
X007967Y025241D01*
X007967Y025193D01*
X007919Y025145D01*
X007967Y025096D01*
X007967Y025048D01*
X007919Y025000D01*
X007822Y025000D01*
X007774Y025048D01*
X007870Y025145D02*
X007919Y025145D01*
X008068Y025145D02*
X008262Y025145D01*
X008363Y025145D02*
X008411Y025193D01*
X008556Y025193D01*
X008556Y025290D02*
X008556Y025000D01*
X008411Y025000D01*
X008363Y025048D01*
X008363Y025145D01*
X008658Y025241D02*
X008706Y025290D01*
X008803Y025290D01*
X008851Y025241D01*
X008851Y025193D01*
X008658Y025000D01*
X008851Y025000D01*
X008952Y025145D02*
X009146Y025145D01*
X009247Y025048D02*
X009295Y025096D01*
X009440Y025096D01*
X009440Y025145D02*
X009440Y025000D01*
X009295Y025000D01*
X009247Y025048D01*
X009295Y025193D02*
X009392Y025193D01*
X009440Y025145D01*
X009542Y025145D02*
X009638Y025193D01*
X009687Y025193D01*
X009735Y025145D01*
X009735Y025048D01*
X009687Y025000D01*
X009590Y025000D01*
X009542Y025048D01*
X009542Y025145D02*
X009542Y025290D01*
X009735Y025290D01*
X010532Y025193D02*
X010532Y025000D01*
X010532Y025096D02*
X010629Y025193D01*
X010677Y025193D01*
X010778Y025145D02*
X010778Y025048D01*
X010826Y025000D01*
X010923Y025000D01*
X010971Y025096D02*
X010778Y025096D01*
X010778Y025145D02*
X010826Y025193D01*
X010923Y025193D01*
X010971Y025145D01*
X010971Y025096D01*
X011072Y025048D02*
X011072Y025145D01*
X011121Y025193D01*
X011266Y025193D01*
X011266Y025290D02*
X011266Y025000D01*
X011121Y025000D01*
X011072Y025048D01*
X011367Y025145D02*
X011560Y025145D01*
X011662Y025193D02*
X011807Y025193D01*
X011855Y025145D01*
X011855Y025048D01*
X011807Y025000D01*
X011662Y025000D01*
X011662Y025290D01*
X011956Y025290D02*
X012005Y025290D01*
X012005Y025000D01*
X012053Y025000D02*
X011956Y025000D01*
X012153Y025000D02*
X012153Y025290D01*
X012298Y025193D02*
X012153Y025096D01*
X012298Y025000D01*
X012398Y025145D02*
X012592Y025145D01*
X012693Y025193D02*
X012693Y025048D01*
X012741Y025000D01*
X012790Y025048D01*
X012838Y025000D01*
X012886Y025048D01*
X012886Y025193D01*
X012987Y025145D02*
X013036Y025193D01*
X013133Y025193D01*
X013181Y025145D01*
X013181Y025000D01*
X013330Y025048D02*
X013379Y025000D01*
X013330Y025048D02*
X013330Y025241D01*
X013282Y025193D02*
X013379Y025193D01*
X013479Y025145D02*
X013672Y025145D01*
X013773Y025145D02*
X013773Y025048D01*
X013822Y025000D01*
X013967Y025000D01*
X013967Y024951D02*
X013967Y025193D01*
X013822Y025193D01*
X013773Y025145D01*
X013870Y024903D02*
X013918Y024903D01*
X013967Y024951D01*
X014068Y025000D02*
X014068Y025193D01*
X014068Y025096D02*
X014165Y025193D01*
X014213Y025193D01*
X014313Y025193D02*
X014458Y025193D01*
X014507Y025145D01*
X014507Y025000D01*
X014313Y025000D02*
X014313Y025193D01*
X014863Y025193D02*
X014863Y025000D01*
X014863Y025096D02*
X014960Y025193D01*
X015008Y025193D01*
X015108Y025145D02*
X015157Y025193D01*
X015254Y025193D01*
X015302Y025145D01*
X015302Y025096D01*
X015108Y025096D01*
X015108Y025048D02*
X015108Y025145D01*
X015108Y025048D02*
X015157Y025000D01*
X015254Y025000D01*
X015403Y025048D02*
X015403Y025145D01*
X015451Y025193D01*
X015596Y025193D01*
X015596Y025290D02*
X015596Y025000D01*
X015451Y025000D01*
X015403Y025048D01*
X015698Y025145D02*
X015891Y025145D01*
X015992Y025193D02*
X016137Y025193D01*
X016186Y025145D01*
X016186Y025048D01*
X016137Y025000D01*
X015992Y025000D01*
X015992Y025290D01*
X016287Y025290D02*
X016335Y025290D01*
X016335Y025000D01*
X016287Y025000D02*
X016384Y025000D01*
X016483Y025000D02*
X016483Y025290D01*
X016629Y025193D02*
X016483Y025096D01*
X016629Y025000D01*
X016729Y025145D02*
X016922Y025145D01*
X017024Y025193D02*
X017024Y025048D01*
X017072Y025000D01*
X017120Y025048D01*
X017169Y025000D01*
X017217Y025048D01*
X017217Y025193D01*
X017318Y025145D02*
X017367Y025193D01*
X017463Y025193D01*
X017512Y025145D01*
X017512Y025000D01*
X017661Y025048D02*
X017710Y025000D01*
X017661Y025048D02*
X017661Y025241D01*
X017613Y025193D02*
X017710Y025193D01*
X017809Y025145D02*
X018003Y025145D01*
X018104Y025145D02*
X018104Y025048D01*
X018152Y025000D01*
X018297Y025000D01*
X018297Y024951D02*
X018297Y025193D01*
X018152Y025193D01*
X018104Y025145D01*
X018201Y024903D02*
X018249Y024903D01*
X018297Y024951D01*
X018399Y025000D02*
X018399Y025193D01*
X018495Y025193D02*
X018544Y025193D01*
X018495Y025193D02*
X018399Y025096D01*
X018644Y025000D02*
X018644Y025193D01*
X018789Y025193D01*
X018838Y025145D01*
X018838Y025000D01*
X019194Y025000D02*
X019194Y025193D01*
X019290Y025193D02*
X019339Y025193D01*
X019290Y025193D02*
X019194Y025096D01*
X019439Y025096D02*
X019633Y025096D01*
X019633Y025145D01*
X019584Y025193D01*
X019487Y025193D01*
X019439Y025145D01*
X019439Y025048D01*
X019487Y025000D01*
X019584Y025000D01*
X019734Y025048D02*
X019734Y025145D01*
X019782Y025193D01*
X019927Y025193D01*
X019927Y025290D02*
X019927Y025000D01*
X019782Y025000D01*
X019734Y025048D01*
X020028Y025145D02*
X020222Y025145D01*
X020323Y025193D02*
X020468Y025193D01*
X020516Y025145D01*
X020516Y025048D01*
X020468Y025000D01*
X020323Y025000D01*
X020323Y025290D01*
X020618Y025290D02*
X020666Y025290D01*
X020666Y025000D01*
X020618Y025000D02*
X020714Y025000D01*
X020814Y025000D02*
X020814Y025290D01*
X020959Y025193D02*
X020814Y025096D01*
X020959Y025000D01*
X021060Y025145D02*
X021253Y025145D01*
X021354Y025193D02*
X021354Y025048D01*
X021403Y025000D01*
X021451Y025048D01*
X021499Y025000D01*
X021548Y025048D01*
X021548Y025193D01*
X021649Y025145D02*
X021697Y025193D01*
X021794Y025193D01*
X021842Y025145D01*
X021842Y025000D01*
X021992Y025048D02*
X021992Y025241D01*
X021944Y025193D02*
X022040Y025193D01*
X022140Y025145D02*
X022333Y025145D01*
X022435Y025145D02*
X022435Y025048D01*
X022483Y025000D01*
X022628Y025000D01*
X022628Y024951D02*
X022628Y025193D01*
X022483Y025193D01*
X022435Y025145D01*
X022531Y024903D02*
X022580Y024903D01*
X022628Y024951D01*
X022729Y025000D02*
X022729Y025193D01*
X022729Y025096D02*
X022826Y025193D01*
X022874Y025193D01*
X022975Y025193D02*
X023120Y025193D01*
X023168Y025145D01*
X023168Y025000D01*
X022975Y025000D02*
X022975Y025193D01*
X023524Y025193D02*
X023524Y025000D01*
X023524Y025096D02*
X023621Y025193D01*
X023669Y025193D01*
X023770Y025145D02*
X023818Y025193D01*
X023915Y025193D01*
X023963Y025145D01*
X023963Y025096D01*
X023770Y025096D01*
X023770Y025048D02*
X023770Y025145D01*
X023770Y025048D02*
X023818Y025000D01*
X023915Y025000D01*
X024064Y025048D02*
X024064Y025145D01*
X024113Y025193D01*
X024258Y025193D01*
X024258Y025290D02*
X024258Y025000D01*
X024113Y025000D01*
X024064Y025048D01*
X024359Y025145D02*
X024553Y025145D01*
X024654Y025193D02*
X024799Y025193D01*
X024847Y025145D01*
X024847Y025048D01*
X024799Y025000D01*
X024654Y025000D01*
X024654Y025290D01*
X024948Y025290D02*
X024997Y025290D01*
X024997Y025000D01*
X025045Y025000D02*
X024948Y025000D01*
X025145Y025000D02*
X025145Y025290D01*
X025290Y025193D02*
X025145Y025096D01*
X025290Y025000D01*
X025390Y025145D02*
X025584Y025145D01*
X025685Y025193D02*
X025685Y025048D01*
X025733Y025000D01*
X025782Y025048D01*
X025830Y025000D01*
X025878Y025048D01*
X025878Y025193D01*
X025980Y025145D02*
X026028Y025193D01*
X026125Y025193D01*
X026173Y025145D01*
X026173Y025000D01*
X026323Y025048D02*
X026323Y025241D01*
X026371Y025193D02*
X026274Y025193D01*
X026323Y025048D02*
X026371Y025000D01*
X026471Y025145D02*
X026664Y025145D01*
X026765Y025145D02*
X026765Y025048D01*
X026814Y025000D01*
X026959Y025000D01*
X026959Y024951D02*
X026959Y025193D01*
X026814Y025193D01*
X026765Y025145D01*
X026862Y024903D02*
X026910Y024903D01*
X026959Y024951D01*
X027060Y025000D02*
X027060Y025193D01*
X027157Y025193D02*
X027205Y025193D01*
X027157Y025193D02*
X027060Y025096D01*
X027305Y025000D02*
X027305Y025193D01*
X027451Y025193D01*
X027499Y025145D01*
X027499Y025000D01*
X027855Y025000D02*
X027855Y025193D01*
X027855Y025096D02*
X027952Y025193D01*
X028000Y025193D01*
X028101Y025145D02*
X028149Y025193D01*
X028246Y025193D01*
X028294Y025145D01*
X028294Y025096D01*
X028101Y025096D01*
X028101Y025048D02*
X028101Y025145D01*
X028101Y025048D02*
X028149Y025000D01*
X028246Y025000D01*
X028395Y025048D02*
X028395Y025145D01*
X028444Y025193D01*
X028589Y025193D01*
X028589Y025290D02*
X028589Y025000D01*
X028444Y025000D01*
X028395Y025048D01*
X028690Y025145D02*
X028883Y025145D01*
X028984Y025193D02*
X029130Y025193D01*
X029178Y025145D01*
X029178Y025048D01*
X029130Y025000D01*
X028984Y025000D01*
X028984Y025290D01*
X029279Y025290D02*
X029327Y025290D01*
X029327Y025000D01*
X029279Y025000D02*
X029376Y025000D01*
X029476Y025000D02*
X029476Y025290D01*
X029621Y025193D02*
X029476Y025096D01*
X029621Y025000D01*
X029721Y025145D02*
X029914Y025145D01*
X030016Y025193D02*
X030016Y025048D01*
X030064Y025000D01*
X030112Y025048D01*
X030161Y025000D01*
X030209Y025048D01*
X030209Y025193D01*
X030310Y025145D02*
X030359Y025193D01*
X030455Y025193D01*
X030504Y025145D01*
X030504Y025000D01*
X030653Y025048D02*
X030653Y025241D01*
X030605Y025193D02*
X030702Y025193D01*
X030801Y025145D02*
X030995Y025145D01*
X031096Y025145D02*
X031096Y025048D01*
X031144Y025000D01*
X031289Y025000D01*
X031289Y024951D02*
X031289Y025193D01*
X031144Y025193D01*
X031096Y025145D01*
X031193Y024903D02*
X031241Y024903D01*
X031289Y024951D01*
X031391Y025000D02*
X031391Y025193D01*
X031487Y025193D02*
X031536Y025193D01*
X031487Y025193D02*
X031391Y025096D01*
X031636Y025000D02*
X031636Y025193D01*
X031781Y025193D01*
X031830Y025145D01*
X031830Y025000D01*
X030702Y025000D02*
X030653Y025048D01*
X030310Y025000D02*
X030310Y025290D01*
X029402Y022417D02*
X029402Y022047D01*
X029281Y022047D02*
X029096Y022047D01*
X029034Y022109D01*
X029034Y022232D01*
X029096Y022294D01*
X029281Y022294D01*
X029402Y022170D02*
X029587Y022294D01*
X029402Y022170D02*
X029587Y022047D01*
X029587Y021531D02*
X029587Y021161D01*
X029463Y021284D01*
X029340Y021161D01*
X029340Y021531D01*
X029157Y021408D02*
X029218Y021346D01*
X029218Y021161D01*
X028972Y021161D02*
X028972Y021408D01*
X029157Y021408D01*
X028850Y021346D02*
X028850Y021284D01*
X028603Y021284D01*
X028603Y021223D02*
X028603Y021346D01*
X028665Y021408D01*
X028788Y021408D01*
X028850Y021346D01*
X028788Y021161D02*
X028665Y021161D01*
X028603Y021223D01*
X028482Y021284D02*
X028235Y021284D01*
X028235Y021223D02*
X028235Y021346D01*
X028297Y021408D01*
X028420Y021408D01*
X028482Y021346D01*
X028482Y021284D01*
X028420Y021161D02*
X028297Y021161D01*
X028235Y021223D01*
X028113Y021408D02*
X028051Y021408D01*
X027928Y021284D01*
X027928Y021161D02*
X027928Y021408D01*
X027807Y021408D02*
X027807Y021099D01*
X027745Y021038D01*
X027683Y021038D01*
X027621Y021161D02*
X027807Y021161D01*
X027621Y021161D02*
X027560Y021223D01*
X027560Y021346D01*
X027621Y021408D01*
X027807Y021408D01*
X028052Y022047D02*
X028237Y022047D01*
X028299Y022109D01*
X028299Y022232D01*
X028237Y022294D01*
X028052Y022294D01*
X028052Y022417D02*
X028052Y022047D01*
X028420Y022047D02*
X028544Y022047D01*
X028482Y022047D02*
X028482Y022417D01*
X028420Y022417D01*
X028727Y022294D02*
X028851Y022294D01*
X028913Y022232D01*
X028913Y022047D01*
X028727Y022047D01*
X028666Y022109D01*
X028727Y022170D01*
X028913Y022170D01*
X029564Y020449D02*
X029564Y020078D01*
X029379Y020078D01*
X029318Y020140D01*
X029318Y020263D01*
X029379Y020325D01*
X029564Y020325D01*
X029196Y020263D02*
X029196Y020202D01*
X028949Y020202D01*
X028949Y020263D02*
X029011Y020325D01*
X029134Y020325D01*
X029196Y020263D01*
X029134Y020078D02*
X029011Y020078D01*
X028949Y020140D01*
X028949Y020263D01*
X028828Y020325D02*
X028766Y020325D01*
X028642Y020202D01*
X028642Y020325D02*
X028642Y020078D01*
X028482Y019464D02*
X028482Y019094D01*
X028420Y019094D02*
X028544Y019094D01*
X028666Y019156D02*
X028666Y019341D01*
X028666Y019156D02*
X028727Y019094D01*
X028913Y019094D01*
X028913Y019341D01*
X029034Y019279D02*
X029034Y019156D01*
X029096Y019094D01*
X029219Y019094D01*
X029281Y019217D02*
X029034Y019217D01*
X029034Y019279D02*
X029096Y019341D01*
X029219Y019341D01*
X029281Y019279D01*
X029281Y019217D01*
X029402Y019094D02*
X029526Y019217D01*
X029649Y019094D01*
X029649Y019464D01*
X029402Y019464D02*
X029402Y019094D01*
X028482Y019464D02*
X028420Y019464D01*
X028237Y019341D02*
X028299Y019279D01*
X028299Y019156D01*
X028237Y019094D01*
X028052Y019094D01*
X028052Y019464D01*
X028052Y019341D02*
X028237Y019341D01*
X025980Y025000D02*
X025980Y025290D01*
X022040Y025000D02*
X021992Y025048D01*
X021649Y025000D02*
X021649Y025290D01*
X017318Y025290D02*
X017318Y025000D01*
X012987Y025000D02*
X012987Y025290D01*
X007035Y025290D02*
X007035Y025000D01*
X006890Y025145D02*
X007035Y025290D01*
X003832Y025145D02*
X003638Y025145D01*
X003537Y025193D02*
X003392Y025193D01*
X003344Y025145D01*
X003392Y025096D01*
X003489Y025096D01*
X003537Y025048D01*
X003489Y025000D01*
X003344Y025000D01*
X003244Y025000D02*
X003147Y025000D01*
X003195Y025000D02*
X003195Y025193D01*
X003147Y025193D01*
X003046Y025193D02*
X002901Y025193D01*
X002852Y025145D01*
X002852Y025048D01*
X002901Y025000D01*
X003046Y025000D01*
X003046Y025290D01*
X003195Y025290D02*
X003195Y025338D01*
X002751Y025145D02*
X002558Y025145D01*
X002457Y025145D02*
X002457Y025000D01*
X002457Y025145D02*
X002408Y025193D01*
X002263Y025193D01*
X002263Y025000D01*
X002162Y025048D02*
X002162Y025193D01*
X002162Y025048D02*
X002114Y025000D01*
X002065Y025048D01*
X002017Y025000D01*
X001969Y025048D01*
X001969Y025193D01*
X001867Y025145D02*
X001867Y025048D01*
X001819Y025000D01*
X001674Y025000D01*
X001674Y024903D02*
X001674Y025193D01*
X001819Y025193D01*
X001867Y025145D01*
D13*
X002860Y024678D02*
X002937Y024678D01*
X002937Y024217D01*
X003013Y024217D02*
X002860Y024217D01*
X003167Y024294D02*
X003244Y024371D01*
X003474Y024371D01*
X003474Y024447D02*
X003474Y024217D01*
X003244Y024217D01*
X003167Y024294D01*
X003244Y024524D02*
X003397Y024524D01*
X003474Y024447D01*
X003627Y024447D02*
X003704Y024524D01*
X003934Y024524D01*
X003857Y024371D02*
X003704Y024371D01*
X003627Y024447D01*
X003627Y024217D02*
X003857Y024217D01*
X003934Y024294D01*
X003857Y024371D01*
X004088Y024371D02*
X004394Y024371D01*
X004394Y024447D01*
X004318Y024524D01*
X004164Y024524D01*
X004088Y024447D01*
X004088Y024294D01*
X004164Y024217D01*
X004318Y024217D01*
X004548Y024217D02*
X004548Y024524D01*
X004701Y024524D02*
X004778Y024524D01*
X004701Y024524D02*
X004548Y024371D01*
X007388Y024371D02*
X007694Y024371D01*
X007694Y024447D01*
X007618Y024524D01*
X007464Y024524D01*
X007388Y024447D01*
X007388Y024294D01*
X007464Y024217D01*
X007618Y024217D01*
X007848Y024217D02*
X008155Y024524D01*
X008308Y024524D02*
X008462Y024524D01*
X008385Y024601D02*
X008385Y024294D01*
X008462Y024217D01*
X008615Y024217D02*
X008615Y024524D01*
X008615Y024371D02*
X008769Y024524D01*
X008845Y024524D01*
X009075Y024524D02*
X009229Y024524D01*
X009306Y024447D01*
X009306Y024217D01*
X009075Y024217D01*
X008999Y024294D01*
X009075Y024371D01*
X009306Y024371D01*
X008155Y024217D02*
X007848Y024524D01*
X010931Y024524D02*
X011238Y024217D01*
X011391Y024217D02*
X011698Y024217D01*
X011545Y024217D02*
X011545Y024678D01*
X011391Y024524D01*
X011238Y024524D02*
X010931Y024217D01*
X011852Y024447D02*
X012158Y024447D01*
X012312Y024447D02*
X012312Y024294D01*
X012389Y024217D01*
X012542Y024217D01*
X012619Y024294D01*
X012619Y024447D01*
X012542Y024524D01*
X012389Y024524D01*
X012312Y024447D01*
X012772Y024524D02*
X012772Y024064D01*
X012772Y024217D02*
X013002Y024217D01*
X013079Y024294D01*
X013079Y024447D01*
X013002Y024524D01*
X012772Y024524D01*
X013233Y024524D02*
X013386Y024524D01*
X013309Y024601D02*
X013309Y024294D01*
X013386Y024217D01*
X013540Y024294D02*
X013540Y024447D01*
X013616Y024524D01*
X013770Y024524D01*
X013846Y024447D01*
X013846Y024294D01*
X013770Y024217D01*
X013616Y024217D01*
X013540Y024294D01*
X013263Y023103D02*
X013263Y022642D01*
X013033Y022642D01*
X012956Y022719D01*
X012956Y022873D01*
X013033Y022949D01*
X013263Y022949D01*
X012802Y022949D02*
X012726Y022949D01*
X012572Y022796D01*
X012572Y022949D02*
X012572Y022642D01*
X012419Y022642D02*
X012189Y022642D01*
X012112Y022719D01*
X012112Y022873D01*
X012189Y022949D01*
X012419Y022949D01*
X012419Y022566D01*
X012342Y022489D01*
X012265Y022489D01*
X012189Y021922D02*
X012342Y021922D01*
X012419Y021845D01*
X012419Y021768D01*
X012342Y021691D01*
X012419Y021615D01*
X012419Y021538D01*
X012342Y021461D01*
X012189Y021461D01*
X012112Y021538D01*
X012265Y021691D02*
X012342Y021691D01*
X012572Y021538D02*
X012572Y021461D01*
X012649Y021461D01*
X012649Y021538D01*
X012572Y021538D01*
X012802Y021538D02*
X012879Y021461D01*
X013033Y021461D01*
X013109Y021538D01*
X013109Y021615D01*
X013033Y021691D01*
X012956Y021691D01*
X013033Y021691D02*
X013109Y021768D01*
X013109Y021845D01*
X013033Y021922D01*
X012879Y021922D01*
X012802Y021845D01*
X013263Y021922D02*
X013263Y021615D01*
X013416Y021461D01*
X013570Y021615D01*
X013570Y021922D01*
X014171Y021628D02*
X014171Y021474D01*
X014247Y021398D01*
X014554Y021398D01*
X014247Y021705D01*
X014554Y021705D01*
X014631Y021628D01*
X014631Y021474D01*
X014554Y021398D01*
X014554Y021244D02*
X014631Y021168D01*
X014631Y021014D01*
X014554Y020937D01*
X014247Y021244D01*
X014554Y021244D01*
X014247Y021244D02*
X014171Y021168D01*
X014171Y021014D01*
X014247Y020937D01*
X014554Y020937D01*
X014631Y020784D02*
X014631Y020477D01*
X014631Y020630D02*
X014171Y020630D01*
X014324Y020477D01*
X014171Y021628D02*
X014247Y021705D01*
X012923Y020784D02*
X012616Y020477D01*
X012462Y020477D02*
X012386Y020554D01*
X012386Y020861D01*
X012309Y020784D02*
X012462Y020784D01*
X012616Y020784D02*
X012923Y020477D01*
X012999Y019603D02*
X012692Y019296D01*
X012692Y019603D02*
X012999Y019296D01*
X012539Y019603D02*
X012462Y019603D01*
X012309Y019449D01*
X012309Y019296D02*
X012309Y019603D01*
X011635Y018969D02*
X011635Y018509D01*
X011404Y018509D01*
X011328Y018585D01*
X011328Y018739D01*
X011404Y018815D01*
X011635Y018815D01*
X011174Y018739D02*
X011174Y018662D01*
X010867Y018662D01*
X010867Y018585D02*
X010867Y018739D01*
X010944Y018815D01*
X011097Y018815D01*
X011174Y018739D01*
X011097Y018509D02*
X010944Y018509D01*
X010867Y018585D01*
X010714Y018585D02*
X010714Y018739D01*
X010637Y018815D01*
X010407Y018815D01*
X010407Y018969D02*
X010407Y018509D01*
X010637Y018509D01*
X010714Y018585D01*
X010254Y018509D02*
X010254Y018739D01*
X010177Y018815D01*
X010100Y018739D01*
X010100Y018509D01*
X009947Y018509D02*
X009947Y018815D01*
X010023Y018815D01*
X010100Y018739D01*
X012112Y021845D02*
X012189Y021922D01*
X015262Y024217D02*
X015568Y024524D01*
X015722Y024601D02*
X015799Y024678D01*
X015952Y024678D01*
X016029Y024601D01*
X016029Y024524D01*
X015722Y024217D01*
X016029Y024217D01*
X016182Y024447D02*
X016489Y024447D01*
X016643Y024447D02*
X016643Y024294D01*
X016719Y024217D01*
X016873Y024217D01*
X016950Y024294D01*
X016950Y024447D01*
X016873Y024524D01*
X016719Y024524D01*
X016643Y024447D01*
X017103Y024524D02*
X017103Y024064D01*
X017103Y024217D02*
X017333Y024217D01*
X017410Y024294D01*
X017410Y024447D01*
X017333Y024524D01*
X017103Y024524D01*
X017563Y024524D02*
X017717Y024524D01*
X017640Y024601D02*
X017640Y024294D01*
X017717Y024217D01*
X017870Y024294D02*
X017870Y024447D01*
X017947Y024524D01*
X018100Y024524D01*
X018177Y024447D01*
X018177Y024294D01*
X018100Y024217D01*
X017947Y024217D01*
X017870Y024294D01*
X019592Y024294D02*
X019669Y024217D01*
X019899Y024217D01*
X019899Y024140D02*
X019822Y024064D01*
X019746Y024064D01*
X019899Y024140D02*
X019899Y024524D01*
X020053Y024524D02*
X020206Y024678D01*
X020206Y024217D01*
X020053Y024217D02*
X020360Y024217D01*
X020513Y024447D02*
X020820Y024447D01*
X020973Y024447D02*
X020973Y024294D01*
X021050Y024217D01*
X021204Y024217D01*
X021280Y024294D01*
X021280Y024447D01*
X021204Y024524D01*
X021050Y024524D01*
X020973Y024447D01*
X021434Y024524D02*
X021434Y024064D01*
X021434Y024217D02*
X021664Y024217D01*
X021741Y024294D01*
X021741Y024447D01*
X021664Y024524D01*
X021434Y024524D01*
X021894Y024524D02*
X022047Y024524D01*
X021971Y024601D02*
X021971Y024294D01*
X022047Y024217D01*
X022201Y024294D02*
X022201Y024447D01*
X022278Y024524D01*
X022431Y024524D01*
X022508Y024447D01*
X022508Y024294D01*
X022431Y024217D01*
X022278Y024217D01*
X022201Y024294D01*
X023923Y024294D02*
X024000Y024217D01*
X024230Y024217D01*
X024230Y024140D02*
X024153Y024064D01*
X024076Y024064D01*
X024230Y024140D02*
X024230Y024524D01*
X024383Y024601D02*
X024460Y024678D01*
X024614Y024678D01*
X024690Y024601D01*
X024690Y024524D01*
X024383Y024217D01*
X024690Y024217D01*
X024844Y024447D02*
X025151Y024447D01*
X025304Y024447D02*
X025304Y024294D01*
X025381Y024217D01*
X025534Y024217D01*
X025611Y024294D01*
X025611Y024447D01*
X025534Y024524D01*
X025381Y024524D01*
X025304Y024447D01*
X025764Y024524D02*
X025764Y024064D01*
X025764Y024217D02*
X025995Y024217D01*
X026071Y024294D01*
X026071Y024447D01*
X025995Y024524D01*
X025764Y024524D01*
X026225Y024524D02*
X026378Y024524D01*
X026301Y024601D02*
X026301Y024294D01*
X026378Y024217D01*
X026532Y024294D02*
X026608Y024217D01*
X026762Y024217D01*
X026839Y024294D01*
X026839Y024447D01*
X026762Y024524D01*
X026608Y024524D01*
X026532Y024447D01*
X026532Y024294D01*
X028057Y024294D02*
X028057Y024447D01*
X028134Y024524D01*
X028364Y024524D01*
X028364Y024678D02*
X028364Y024217D01*
X028134Y024217D01*
X028057Y024294D01*
X028517Y024294D02*
X028517Y024447D01*
X028594Y024524D01*
X028747Y024524D01*
X028824Y024447D01*
X028824Y024294D01*
X028747Y024217D01*
X028594Y024217D01*
X028517Y024294D01*
X028978Y024294D02*
X029054Y024217D01*
X029208Y024217D01*
X029284Y024294D01*
X029284Y024447D01*
X029208Y024524D01*
X029054Y024524D01*
X028978Y024447D01*
X028978Y024294D01*
X029438Y024371D02*
X029591Y024524D01*
X029668Y024524D01*
X029822Y024447D02*
X030128Y024447D01*
X030282Y024447D02*
X030282Y024294D01*
X030359Y024217D01*
X030512Y024217D01*
X030589Y024294D01*
X030589Y024447D01*
X030512Y024524D01*
X030359Y024524D01*
X030282Y024447D01*
X030742Y024524D02*
X030742Y024064D01*
X030742Y024217D02*
X030972Y024217D01*
X031049Y024294D01*
X031049Y024447D01*
X030972Y024524D01*
X030742Y024524D01*
X031203Y024524D02*
X031356Y024524D01*
X031279Y024601D02*
X031279Y024294D01*
X031356Y024217D01*
X031509Y024294D02*
X031586Y024217D01*
X031740Y024217D01*
X031816Y024294D01*
X031816Y024447D01*
X031740Y024524D01*
X031586Y024524D01*
X031509Y024447D01*
X031509Y024294D01*
X029438Y024217D02*
X029438Y024524D01*
X023923Y024524D02*
X023923Y024294D01*
X022035Y021705D02*
X021728Y021705D01*
X022035Y021398D01*
X022111Y021474D01*
X022111Y021628D01*
X022035Y021705D01*
X022035Y021398D02*
X021728Y021398D01*
X021651Y021474D01*
X021651Y021628D01*
X021728Y021705D01*
X021728Y021244D02*
X022035Y020937D01*
X022111Y021014D01*
X022111Y021168D01*
X022035Y021244D01*
X021728Y021244D01*
X021651Y021168D01*
X021651Y021014D01*
X021728Y020937D01*
X022035Y020937D01*
X022111Y020784D02*
X022111Y020477D01*
X022111Y020630D02*
X021651Y020630D01*
X021804Y020477D01*
X020340Y020477D02*
X020340Y020784D01*
X020340Y020630D02*
X019879Y020630D01*
X020033Y020477D01*
X019956Y020937D02*
X019879Y021014D01*
X019879Y021168D01*
X019956Y021244D01*
X020263Y020937D01*
X020340Y021014D01*
X020340Y021168D01*
X020263Y021244D01*
X019956Y021244D01*
X019956Y021398D02*
X019879Y021474D01*
X019879Y021628D01*
X019956Y021705D01*
X020263Y021398D01*
X020340Y021474D01*
X020340Y021628D01*
X020263Y021705D01*
X019956Y021705D01*
X019956Y021398D02*
X020263Y021398D01*
X020263Y020937D02*
X019956Y020937D01*
X018568Y021014D02*
X018491Y020937D01*
X018184Y021244D01*
X018491Y021244D01*
X018568Y021168D01*
X018568Y021014D01*
X018491Y020937D02*
X018184Y020937D01*
X018108Y021014D01*
X018108Y021168D01*
X018184Y021244D01*
X018184Y021398D02*
X018108Y021474D01*
X018108Y021628D01*
X018184Y021705D01*
X018491Y021398D01*
X018568Y021474D01*
X018568Y021628D01*
X018491Y021705D01*
X018184Y021705D01*
X018184Y021398D02*
X018491Y021398D01*
X018568Y020784D02*
X018568Y020477D01*
X018568Y020630D02*
X018108Y020630D01*
X018261Y020477D01*
X016600Y020477D02*
X016600Y020784D01*
X016600Y020630D02*
X016139Y020630D01*
X016293Y020477D01*
X016216Y020937D02*
X016139Y021014D01*
X016139Y021168D01*
X016216Y021244D01*
X016523Y020937D01*
X016600Y021014D01*
X016600Y021168D01*
X016523Y021244D01*
X016216Y021244D01*
X016216Y021398D02*
X016139Y021474D01*
X016139Y021628D01*
X016216Y021705D01*
X016523Y021398D01*
X016600Y021474D01*
X016600Y021628D01*
X016523Y021705D01*
X016216Y021705D01*
X016216Y021398D02*
X016523Y021398D01*
X016523Y020937D02*
X016216Y020937D01*
X015568Y024217D02*
X015262Y024524D01*
X019592Y024524D02*
X019592Y024294D01*
X028451Y018225D02*
X028451Y017995D01*
X028527Y017918D01*
X028757Y017918D01*
X028757Y017841D02*
X028681Y017765D01*
X028604Y017765D01*
X028757Y017841D02*
X028757Y018225D01*
X028911Y018148D02*
X029218Y018148D01*
X029371Y018148D02*
X029448Y018225D01*
X029678Y018225D01*
X029832Y018225D02*
X029985Y018225D01*
X029908Y018302D02*
X029908Y017995D01*
X029985Y017918D01*
X030139Y017995D02*
X030139Y018148D01*
X030215Y018225D01*
X030369Y018225D01*
X030445Y018148D01*
X030445Y018071D01*
X030139Y018071D01*
X030139Y017995D02*
X030215Y017918D01*
X030369Y017918D01*
X030599Y017918D02*
X030829Y017918D01*
X030906Y017995D01*
X030906Y018148D01*
X030829Y018225D01*
X030599Y018225D01*
X030599Y017765D01*
X031059Y017765D02*
X031059Y018225D01*
X031289Y018225D01*
X031366Y018148D01*
X031366Y017995D01*
X031289Y017918D01*
X031059Y017918D01*
X031520Y017995D02*
X031520Y018148D01*
X031596Y018225D01*
X031750Y018225D01*
X031826Y018148D01*
X031826Y018071D01*
X031520Y018071D01*
X031520Y017995D02*
X031596Y017918D01*
X031750Y017918D01*
X031980Y017918D02*
X031980Y018225D01*
X032133Y018225D02*
X032210Y018225D01*
X032133Y018225D02*
X031980Y018071D01*
X029678Y017995D02*
X029601Y018071D01*
X029448Y018071D01*
X029371Y018148D01*
X029371Y017918D02*
X029601Y017918D01*
X029678Y017995D01*
X022111Y015799D02*
X021881Y015569D01*
X021958Y015492D02*
X021651Y015799D01*
X021651Y015492D02*
X022111Y015492D01*
X022035Y015339D02*
X021728Y015339D01*
X022035Y015032D01*
X022111Y015109D01*
X022111Y015262D01*
X022035Y015339D01*
X022035Y015032D02*
X021728Y015032D01*
X021651Y015109D01*
X021651Y015262D01*
X021728Y015339D01*
X022111Y014878D02*
X022111Y014571D01*
X022111Y014725D02*
X021651Y014725D01*
X021804Y014571D01*
X020340Y014571D02*
X020340Y014878D01*
X020340Y014725D02*
X019879Y014725D01*
X020033Y014571D01*
X019956Y015032D02*
X019879Y015109D01*
X019879Y015262D01*
X019956Y015339D01*
X020263Y015032D01*
X020340Y015109D01*
X020340Y015262D01*
X020263Y015339D01*
X019956Y015339D01*
X019879Y015492D02*
X020340Y015492D01*
X020186Y015492D02*
X019879Y015799D01*
X020110Y015569D02*
X020340Y015799D01*
X020263Y015032D02*
X019956Y015032D01*
X018568Y015109D02*
X018491Y015032D01*
X018184Y015339D01*
X018491Y015339D01*
X018568Y015262D01*
X018568Y015109D01*
X018491Y015032D02*
X018184Y015032D01*
X018108Y015109D01*
X018108Y015262D01*
X018184Y015339D01*
X018108Y015492D02*
X018568Y015492D01*
X018415Y015492D02*
X018108Y015799D01*
X018338Y015569D02*
X018568Y015799D01*
X018568Y014878D02*
X018568Y014571D01*
X018568Y014725D02*
X018108Y014725D01*
X018261Y014571D01*
X016600Y014571D02*
X016600Y014878D01*
X016600Y014725D02*
X016139Y014725D01*
X016293Y014571D01*
X016216Y015032D02*
X016139Y015109D01*
X016139Y015262D01*
X016216Y015339D01*
X016523Y015032D01*
X016600Y015109D01*
X016600Y015262D01*
X016523Y015339D01*
X016216Y015339D01*
X016139Y015492D02*
X016600Y015492D01*
X016446Y015492D02*
X016139Y015799D01*
X016369Y015569D02*
X016600Y015799D01*
X016523Y015032D02*
X016216Y015032D01*
X014631Y015109D02*
X014554Y015032D01*
X014247Y015339D01*
X014554Y015339D01*
X014631Y015262D01*
X014631Y015109D01*
X014554Y015032D02*
X014247Y015032D01*
X014171Y015109D01*
X014171Y015262D01*
X014247Y015339D01*
X014171Y015492D02*
X014631Y015492D01*
X014478Y015492D02*
X014171Y015799D01*
X014401Y015569D02*
X014631Y015799D01*
X014631Y014878D02*
X014631Y014571D01*
X014631Y014725D02*
X014171Y014725D01*
X014324Y014571D01*
X012265Y014048D02*
X012265Y013587D01*
X012112Y013587D02*
X012419Y013587D01*
X012112Y013894D02*
X012265Y014048D01*
X011404Y013260D02*
X011481Y013183D01*
X011481Y013030D01*
X011404Y012953D01*
X011174Y012953D01*
X011174Y012800D02*
X011174Y013260D01*
X011404Y013260D01*
X011021Y013183D02*
X010944Y013260D01*
X010791Y013260D01*
X010714Y013183D01*
X010714Y013107D01*
X010791Y013030D01*
X010944Y013030D01*
X011021Y012953D01*
X011021Y012877D01*
X010944Y012800D01*
X010791Y012800D01*
X010714Y012877D01*
X010560Y012877D02*
X010484Y012800D01*
X010330Y012800D01*
X010254Y012877D01*
X010254Y013183D01*
X010330Y013260D01*
X010484Y013260D01*
X010560Y013183D01*
X010100Y013260D02*
X009947Y013260D01*
X010023Y013260D02*
X010023Y012800D01*
X009947Y012800D02*
X010100Y012800D01*
X004091Y017765D02*
X004091Y018225D01*
X004321Y018225D01*
X004398Y018148D01*
X004398Y017995D01*
X004321Y017918D01*
X004091Y017918D01*
X003937Y017995D02*
X003861Y017918D01*
X003630Y017918D01*
X003630Y017765D02*
X003630Y018225D01*
X003861Y018225D01*
X003937Y018148D01*
X003937Y017995D01*
X003477Y018071D02*
X003170Y018071D01*
X003170Y017995D02*
X003170Y018148D01*
X003247Y018225D01*
X003400Y018225D01*
X003477Y018148D01*
X003477Y018071D01*
X003400Y017918D02*
X003247Y017918D01*
X003170Y017995D01*
X003017Y017918D02*
X002940Y017995D01*
X002940Y018302D01*
X002863Y018225D02*
X003017Y018225D01*
X002710Y018225D02*
X002479Y018225D01*
X002403Y018148D01*
X002479Y018071D01*
X002633Y018071D01*
X002710Y017995D01*
X002633Y017918D01*
X002403Y017918D01*
X002249Y018148D02*
X001942Y018148D01*
X001789Y018225D02*
X001482Y017918D01*
X001482Y018225D02*
X001789Y017918D01*
X004551Y017995D02*
X004551Y018148D01*
X004628Y018225D01*
X004781Y018225D01*
X004858Y018148D01*
X004858Y018071D01*
X004551Y018071D01*
X004551Y017995D02*
X004628Y017918D01*
X004781Y017918D01*
X005011Y017918D02*
X005011Y018225D01*
X005011Y018071D02*
X005165Y018225D01*
X005242Y018225D01*
X013417Y005472D02*
X013340Y005395D01*
X013340Y005242D01*
X013417Y005165D01*
X013570Y005165D01*
X013647Y005242D01*
X013647Y005395D01*
X013570Y005472D01*
X013417Y005472D01*
X013417Y005012D02*
X013647Y005012D01*
X013417Y005012D02*
X013340Y004935D01*
X013340Y004705D01*
X013647Y004705D01*
X013647Y004551D02*
X013647Y004398D01*
X013647Y004475D02*
X013340Y004475D01*
X013340Y004398D01*
X013340Y004245D02*
X013647Y004245D01*
X013647Y004014D01*
X013570Y003938D01*
X013340Y003938D01*
X013340Y003784D02*
X013340Y003554D01*
X013417Y003477D01*
X013570Y003477D01*
X013647Y003554D01*
X013647Y003784D01*
X013186Y003784D01*
X013340Y003324D02*
X013340Y003247D01*
X013493Y003094D01*
X013340Y003094D02*
X013647Y003094D01*
X013647Y002940D02*
X013417Y002940D01*
X013340Y002864D01*
X013340Y002710D01*
X013493Y002710D02*
X013493Y002940D01*
X013647Y002940D02*
X013647Y002710D01*
X013570Y002633D01*
X013493Y002710D01*
X013340Y002020D02*
X013340Y001789D01*
X013417Y001713D01*
X013570Y001713D01*
X013647Y001789D01*
X013647Y002020D01*
X013186Y002020D01*
X013417Y001559D02*
X013647Y001559D01*
X013417Y001559D02*
X013340Y001482D01*
X013340Y001252D01*
X013647Y001252D01*
X013647Y001099D02*
X013647Y000869D01*
X013570Y000792D01*
X013417Y000792D01*
X013340Y000869D01*
X013340Y001099D01*
X013723Y001099D01*
X013800Y001022D01*
X013800Y000945D01*
X015078Y001329D02*
X015155Y001329D01*
X015308Y001329D02*
X015615Y001329D01*
X015615Y001252D02*
X015615Y001406D01*
X015615Y001559D02*
X015308Y001559D01*
X015308Y001789D01*
X015385Y001866D01*
X015615Y001866D01*
X015308Y001329D02*
X015308Y001252D01*
X015155Y001099D02*
X015462Y001099D01*
X015615Y000945D01*
X015462Y000792D01*
X015155Y000792D01*
X015539Y002480D02*
X015462Y002557D01*
X015462Y002787D01*
X015385Y002787D02*
X015615Y002787D01*
X015615Y002557D01*
X015539Y002480D01*
X015308Y002557D02*
X015308Y002710D01*
X015385Y002787D01*
X015308Y002940D02*
X015615Y002940D01*
X015462Y002940D02*
X015308Y003094D01*
X015308Y003170D01*
X015385Y003324D02*
X015308Y003401D01*
X015308Y003631D01*
X015155Y003631D02*
X015615Y003631D01*
X015615Y003401D01*
X015539Y003324D01*
X015385Y003324D01*
X015308Y003784D02*
X015539Y003784D01*
X015615Y003861D01*
X015615Y004091D01*
X015308Y004091D01*
X015308Y004245D02*
X015308Y004321D01*
X015615Y004321D01*
X015615Y004245D02*
X015615Y004398D01*
X015615Y004551D02*
X015308Y004551D01*
X015308Y004782D01*
X015385Y004858D01*
X015615Y004858D01*
X015539Y005012D02*
X015615Y005089D01*
X015615Y005242D01*
X015539Y005319D01*
X015385Y005319D01*
X015308Y005242D01*
X015308Y005089D01*
X015385Y005012D01*
X015539Y005012D01*
X015155Y004321D02*
X015078Y004321D01*
X013186Y004475D02*
X013110Y004475D01*
X010478Y002297D02*
X010218Y002036D01*
X010565Y002036D01*
X010478Y001776D02*
X010478Y002297D01*
X010047Y001863D02*
X010047Y001776D01*
X009960Y001776D01*
X009960Y001863D01*
X010047Y001863D01*
X009791Y001863D02*
X009704Y001776D01*
X009531Y001776D01*
X009444Y001863D01*
X009791Y002210D01*
X009791Y001863D01*
X009444Y001863D02*
X009444Y002210D01*
X009531Y002297D01*
X009704Y002297D01*
X009791Y002210D01*
X009275Y002123D02*
X009102Y001776D01*
X008929Y002123D01*
X008244Y002123D02*
X007984Y002123D01*
X007897Y002036D01*
X007897Y001863D01*
X007984Y001776D01*
X008244Y001776D01*
X008244Y002297D01*
X007640Y002297D02*
X007640Y001776D01*
X007554Y001776D02*
X007727Y001776D01*
X007385Y001776D02*
X007385Y002036D01*
X007298Y002123D01*
X007125Y002123D01*
X007038Y002036D01*
X006869Y002123D02*
X006609Y002123D01*
X006522Y002036D01*
X006609Y001950D01*
X006782Y001950D01*
X006869Y001863D01*
X006782Y001776D01*
X006522Y001776D01*
X006354Y002036D02*
X006007Y002036D01*
X005838Y002036D02*
X005838Y001776D01*
X005578Y001776D01*
X005491Y001863D01*
X005578Y001950D01*
X005838Y001950D01*
X005838Y002036D02*
X005751Y002123D01*
X005578Y002123D01*
X005322Y002036D02*
X005322Y001776D01*
X005062Y001776D01*
X004975Y001863D01*
X005062Y001950D01*
X005322Y001950D01*
X005322Y002036D02*
X005236Y002123D01*
X005062Y002123D01*
X004718Y002297D02*
X004718Y001776D01*
X004632Y001776D02*
X004805Y001776D01*
X004718Y002297D02*
X004632Y002297D01*
X007038Y002297D02*
X007038Y001776D01*
X007554Y002297D02*
X007640Y002297D01*
X007531Y004335D02*
X007454Y004335D01*
X007454Y004412D01*
X007531Y004412D01*
X007531Y004335D01*
X007684Y004412D02*
X007761Y004335D01*
X007915Y004335D01*
X007991Y004412D01*
X007991Y004565D01*
X007915Y004642D01*
X007838Y004642D01*
X007684Y004565D01*
X007684Y004796D01*
X007991Y004796D01*
X008145Y004796D02*
X008145Y004335D01*
X008145Y004489D02*
X008452Y004796D01*
X008221Y004565D02*
X008452Y004335D01*
X007301Y004335D02*
X006994Y004335D01*
X007147Y004335D02*
X007147Y004796D01*
X006994Y004642D01*
X017047Y003948D02*
X017123Y003948D01*
X017277Y003948D02*
X017277Y003871D01*
X017277Y003948D02*
X017584Y003948D01*
X017584Y004024D02*
X017584Y003871D01*
X017277Y003718D02*
X017277Y003641D01*
X017430Y003487D01*
X017277Y003487D02*
X017584Y003487D01*
X017584Y003334D02*
X017584Y003104D01*
X017507Y003027D01*
X017354Y003027D01*
X017277Y003104D01*
X017277Y003334D01*
X017123Y003334D02*
X017584Y003334D01*
X017277Y004178D02*
X017584Y004331D01*
X017277Y004485D01*
X017354Y004638D02*
X017277Y004715D01*
X017277Y004868D01*
X017354Y004945D01*
X017430Y004945D01*
X017430Y004638D01*
X017354Y004638D02*
X017507Y004638D01*
X017584Y004715D01*
X017584Y004868D01*
X017584Y005099D02*
X017277Y005099D01*
X017277Y005252D02*
X017277Y005329D01*
X017277Y005252D02*
X017430Y005099D01*
X019015Y003991D02*
X019092Y003991D01*
X019245Y003991D02*
X019552Y003991D01*
X019552Y003914D02*
X019552Y004068D01*
X019552Y004375D02*
X019245Y004221D01*
X019245Y003991D02*
X019245Y003914D01*
X019245Y003761D02*
X019245Y003684D01*
X019399Y003531D01*
X019552Y003531D02*
X019245Y003531D01*
X019245Y003377D02*
X019245Y003147D01*
X019322Y003070D01*
X019476Y003070D01*
X019552Y003147D01*
X019552Y003377D01*
X019092Y003377D01*
X019552Y004375D02*
X019245Y004528D01*
X019322Y004682D02*
X019245Y004758D01*
X019245Y004912D01*
X019322Y004989D01*
X019399Y004989D01*
X019399Y004682D01*
X019476Y004682D02*
X019322Y004682D01*
X019476Y004682D02*
X019552Y004758D01*
X019552Y004912D01*
X019552Y005142D02*
X019245Y005142D01*
X019245Y005295D02*
X019245Y005372D01*
X019245Y005295D02*
X019399Y005142D01*
X021758Y004462D02*
X021758Y003942D01*
X022105Y003942D01*
X022273Y004028D02*
X022360Y004115D01*
X022620Y004115D01*
X022620Y004202D02*
X022620Y003942D01*
X022360Y003942D01*
X022273Y004028D01*
X022360Y004289D02*
X022533Y004289D01*
X022620Y004202D01*
X022789Y004202D02*
X022876Y004289D01*
X023136Y004289D01*
X023305Y004202D02*
X023305Y004028D01*
X023391Y003942D01*
X023565Y003942D01*
X023651Y004115D02*
X023305Y004115D01*
X023305Y004202D02*
X023391Y004289D01*
X023565Y004289D01*
X023651Y004202D01*
X023651Y004115D01*
X023820Y004115D02*
X023994Y004289D01*
X024080Y004289D01*
X024250Y004202D02*
X024337Y004115D01*
X024510Y004115D01*
X024597Y004028D01*
X024510Y003942D01*
X024250Y003942D01*
X024250Y004202D02*
X024337Y004289D01*
X024597Y004289D01*
X024852Y004289D02*
X025026Y004289D01*
X025112Y004202D01*
X025112Y003942D01*
X024852Y003942D01*
X024765Y004028D01*
X024852Y004115D01*
X025112Y004115D01*
X025281Y004028D02*
X025281Y004289D01*
X025281Y004028D02*
X025368Y003942D01*
X025628Y003942D01*
X025628Y004289D01*
X025797Y004289D02*
X025797Y003942D01*
X025797Y004115D02*
X025970Y004289D01*
X026057Y004289D01*
X026349Y003564D02*
X026349Y003478D01*
X026349Y003304D02*
X026349Y002957D01*
X026262Y002957D02*
X026436Y002957D01*
X026606Y003044D02*
X026606Y003218D01*
X026693Y003304D01*
X026866Y003304D01*
X026953Y003218D01*
X026953Y003131D01*
X026606Y003131D01*
X026606Y003044D02*
X026693Y002957D01*
X026866Y002957D01*
X027122Y002957D02*
X027295Y002957D01*
X027209Y002957D02*
X027209Y003478D01*
X027122Y003478D01*
X027466Y003218D02*
X027552Y003304D01*
X027812Y003304D01*
X027812Y003478D02*
X027812Y002957D01*
X027552Y002957D01*
X027466Y003044D01*
X027466Y003218D01*
X027357Y002494D02*
X027184Y002494D01*
X027097Y002407D01*
X027097Y002060D01*
X027444Y002407D01*
X027444Y002060D01*
X027357Y001973D01*
X027184Y001973D01*
X027097Y002060D01*
X026928Y001973D02*
X026581Y001973D01*
X026928Y002320D01*
X026928Y002407D01*
X026841Y002494D01*
X026668Y002494D01*
X026581Y002407D01*
X025897Y002320D02*
X025637Y002320D01*
X025550Y002233D01*
X025637Y002147D01*
X025810Y002147D01*
X025897Y002060D01*
X025810Y001973D01*
X025550Y001973D01*
X025381Y002060D02*
X025381Y002233D01*
X025294Y002320D01*
X025034Y002320D01*
X025034Y002494D02*
X025034Y001973D01*
X025294Y001973D01*
X025381Y002060D01*
X024866Y002147D02*
X024605Y002147D01*
X024519Y002060D01*
X024605Y001973D01*
X024866Y001973D01*
X024866Y002233D01*
X024779Y002320D01*
X024605Y002320D01*
X024350Y001973D02*
X024003Y001973D01*
X024003Y002494D01*
X024031Y002957D02*
X024031Y003218D01*
X023944Y003304D01*
X023684Y003304D01*
X023684Y002957D01*
X023514Y002957D02*
X023341Y002957D01*
X023427Y002957D02*
X023427Y003304D01*
X023341Y003304D01*
X023172Y003304D02*
X023172Y002957D01*
X022912Y002957D01*
X022825Y003044D01*
X022825Y003304D01*
X022656Y003304D02*
X022396Y003304D01*
X022309Y003218D01*
X022309Y003044D01*
X022396Y002957D01*
X022656Y002957D01*
X022656Y003478D01*
X022789Y003942D02*
X023049Y003942D01*
X023136Y004028D01*
X023049Y004115D01*
X022876Y004115D01*
X022789Y004202D01*
X023427Y003564D02*
X023427Y003478D01*
X023820Y003942D02*
X023820Y004289D01*
X024287Y003304D02*
X024200Y003218D01*
X024200Y003044D01*
X024287Y002957D01*
X024460Y002957D01*
X024547Y003044D01*
X024547Y003218D01*
X024460Y003304D01*
X024287Y003304D01*
X025231Y003304D02*
X025318Y003218D01*
X025491Y003218D01*
X025578Y003131D01*
X025578Y003044D01*
X025491Y002957D01*
X025318Y002957D01*
X025231Y003044D01*
X025231Y003304D02*
X025231Y003391D01*
X025318Y003478D01*
X025491Y003478D01*
X025578Y003391D01*
X025747Y003478D02*
X025747Y002957D01*
X025747Y003218D02*
X025834Y003304D01*
X026007Y003304D01*
X026094Y003218D01*
X026094Y002957D01*
X026262Y003304D02*
X026349Y003304D01*
X027357Y002494D02*
X027444Y002407D01*
X027612Y002320D02*
X027786Y002494D01*
X027786Y001973D01*
X027959Y001973D02*
X027612Y001973D01*
X028128Y001973D02*
X028475Y001973D01*
X028302Y001973D02*
X028302Y002494D01*
X028128Y002320D01*
X026562Y005910D02*
X026332Y006140D01*
X026255Y006064D02*
X026562Y006370D01*
X026255Y006370D02*
X026255Y005910D01*
X026101Y005910D02*
X025795Y005910D01*
X025948Y005910D02*
X025948Y006370D01*
X025795Y006217D01*
X025641Y005987D02*
X025641Y005910D01*
X025564Y005910D01*
X025564Y005987D01*
X025641Y005987D01*
X025411Y005910D02*
X025104Y005910D01*
X025411Y006217D01*
X025411Y006294D01*
X025334Y006370D01*
X025181Y006370D01*
X025104Y006294D01*
X021711Y003304D02*
X021537Y003478D01*
X021364Y003304D01*
X021364Y002957D01*
X021364Y003218D02*
X021711Y003218D01*
X021711Y003304D02*
X021711Y002957D01*
X021880Y002957D02*
X021880Y003304D01*
X022053Y003304D02*
X022140Y003304D01*
X022053Y003304D02*
X021880Y003131D01*
X021514Y002494D02*
X021514Y001973D01*
X021167Y002494D01*
X021167Y001973D01*
X021683Y002060D02*
X021769Y001973D01*
X021943Y001973D01*
X022030Y002060D01*
X022030Y002233D01*
X021943Y002320D01*
X021769Y002320D01*
X021683Y002233D01*
X021683Y002060D01*
X022198Y002147D02*
X022372Y002320D01*
X022459Y002320D01*
X022628Y002320D02*
X022801Y002320D01*
X022715Y002407D02*
X022715Y002060D01*
X022801Y001973D01*
X022972Y002060D02*
X022972Y002233D01*
X023059Y002320D01*
X023319Y002320D01*
X023319Y002494D02*
X023319Y001973D01*
X023059Y001973D01*
X022972Y002060D01*
X022198Y001973D02*
X022198Y002320D01*
X019552Y002457D02*
X019322Y002457D01*
X019245Y002380D01*
X019245Y002150D01*
X019552Y002150D01*
X019552Y001996D02*
X019552Y001843D01*
X019552Y001920D02*
X019245Y001920D01*
X019245Y001843D01*
X019092Y001920D02*
X019015Y001920D01*
X019092Y001689D02*
X019399Y001689D01*
X019552Y001536D01*
X019399Y001383D01*
X019092Y001383D01*
X017737Y001339D02*
X017737Y001416D01*
X017660Y001493D01*
X017277Y001493D01*
X017277Y001262D01*
X017354Y001186D01*
X017507Y001186D01*
X017584Y001262D01*
X017584Y001493D01*
X017584Y001646D02*
X017277Y001646D01*
X017277Y001876D01*
X017354Y001953D01*
X017584Y001953D01*
X017507Y002106D02*
X017354Y002106D01*
X017277Y002183D01*
X017277Y002413D01*
X017123Y002413D02*
X017584Y002413D01*
X017584Y002183D01*
X017507Y002106D01*
M02*
