%
M48
M72
T01C0.0200
T02C0.0240
T03C0.0354
T04C0.0400
T05C0.0472
T06C0.0512
T07C0.0560
%
T01
X11068Y9681
X25568Y6681
X26568Y5181
T02
X11356Y11681
X11068Y17181
X9568Y20181
X12068Y21181
X13068Y23681
X9568Y24681
X7068Y24181
X6568Y24681
X5568Y24181
X23068Y24181
X25781Y24181
X26568Y24681
X27568Y23681
T03
X21934Y23048
X20163Y23048
X18391Y23048
X16423Y23048
X14454Y23048
X14454Y19048
X16423Y19048
X18391Y19048
X20163Y19048
X21934Y19048
X21934Y17142
X20163Y17142
X18391Y17142
X16423Y17142
X14454Y17142
X14454Y13142
X16423Y13142
X18391Y13142
X20163Y13142
X21934Y13142
X23871Y6087
X27871Y6087
X9761Y4512
X5761Y4512
T04
X7328Y7004
X7328Y8004
X7328Y9004
X7328Y10004
X7328Y11004
X7328Y12004
X7328Y13004
X7328Y14004
X7328Y15504
X7328Y16504
X7328Y17504
X7328Y18504
X7328Y19504
X7328Y20504
X7328Y21504
X7328Y22504
X10214Y16142
X10214Y15142
X11214Y15142
X11214Y16142
X11214Y14142
X10214Y14142
X26328Y14504
X26328Y13504
X26328Y12504
X26328Y11504
X26328Y10504
X26328Y15504
X26328Y17504
X26328Y18504
X26328Y19504
X26328Y20504
X26328Y21504
X26328Y22504
T05
X30793Y22351
X30793Y21351
X30793Y20351
X30793Y19351
X30309Y26363
X31309Y26363
X29309Y26363
X28309Y26363
X26978Y26363
X25978Y26363
X24978Y26363
X23978Y26363
X22647Y26363
X21647Y26363
X20647Y26363
X19647Y26363
X18316Y26363
X17316Y26363
X16316Y26363
X15316Y26363
X13986Y26363
X12986Y26363
X11986Y26363
X10986Y26363
X9655Y26363
X8655Y26363
X7655Y26363
X6655Y26363
X5324Y26363
X4324Y26363
X3324Y26363
X2324Y26363
X2840Y22548
X2840Y21548
X2840Y20548
X2840Y19548
X10714Y19744
X10714Y20744
X10714Y21744
X10714Y22744
T06
X13414Y6490
X15414Y6490
X17414Y6490
X19414Y6490
T07
X2249Y1264
X2249Y2642
X2249Y4020
X2249Y5398
X2249Y6776
X2249Y8154
X2249Y9532
X2249Y10910
X2249Y12288
X2249Y13666
X2249Y15044
X2249Y16422
X31383Y16422
X31383Y15044
X31383Y13666
X31383Y12288
X31383Y10910
X31383Y9532
X31383Y8154
X31383Y6776
X31383Y5398
X31383Y4020
X31383Y2642
X31383Y1264
M30
