G75*
G70*
%OFA0B0*%
%FSLAX24Y24*%
%IPPOS*%
%LPD*%
%AMOC8*
5,1,8,0,0,1.08239X$1,22.5*
%
%ADD10C,0.0740*%
%ADD11C,0.0712*%
%ADD12C,0.0787*%
%ADD13C,0.0840*%
%ADD14OC8,0.0740*%
%ADD15C,0.0100*%
%ADD16C,0.0440*%
%ADD17C,0.0660*%
%ADD18C,0.0500*%
%ADD19C,0.0160*%
%ADD20C,0.0080*%
%ADD21C,0.0400*%
D10*
X005761Y004512D03*
X007328Y007004D03*
X007328Y008004D03*
X007328Y009004D03*
X007328Y010004D03*
X007328Y011004D03*
X007328Y012004D03*
X007328Y013004D03*
X007328Y014004D03*
X007328Y015504D03*
X007328Y016504D03*
X007328Y017504D03*
X007328Y018504D03*
X007328Y019504D03*
X007328Y020504D03*
X007328Y021504D03*
X007328Y022504D03*
X014454Y023048D03*
X016423Y023048D03*
X018391Y023048D03*
X020163Y023048D03*
X021934Y023048D03*
X026328Y022504D03*
X026328Y021504D03*
X026328Y020504D03*
X026328Y019504D03*
X026328Y018504D03*
X026328Y017504D03*
X026328Y015504D03*
X026328Y014504D03*
X026328Y013504D03*
X026328Y012504D03*
X026328Y011504D03*
X026328Y010504D03*
X021934Y013142D03*
X020163Y013142D03*
X018391Y013142D03*
X016423Y013142D03*
X014454Y013142D03*
X014454Y017142D03*
X016423Y017142D03*
X018391Y017142D03*
X020163Y017142D03*
X021934Y017142D03*
X021934Y019048D03*
X020163Y019048D03*
X018391Y019048D03*
X016423Y019048D03*
X014454Y019048D03*
X023871Y006087D03*
X027871Y006087D03*
X009761Y004512D03*
D11*
X003196Y019548D02*
X002484Y019548D01*
X002484Y020548D02*
X003196Y020548D01*
X003196Y021548D02*
X002484Y021548D01*
X002484Y022548D02*
X003196Y022548D01*
X003324Y026006D02*
X003324Y026719D01*
X002324Y026719D02*
X002324Y026006D01*
X004324Y026006D02*
X004324Y026719D01*
X005324Y026719D02*
X005324Y026006D01*
X006655Y026006D02*
X006655Y026719D01*
X007655Y026719D02*
X007655Y026006D01*
X008655Y026006D02*
X008655Y026719D01*
X009655Y026719D02*
X009655Y026006D01*
X010986Y026006D02*
X010986Y026719D01*
X011986Y026719D02*
X011986Y026006D01*
X012986Y026006D02*
X012986Y026719D01*
X013986Y026719D02*
X013986Y026006D01*
X015316Y026006D02*
X015316Y026719D01*
X016316Y026719D02*
X016316Y026006D01*
X017316Y026006D02*
X017316Y026719D01*
X018316Y026719D02*
X018316Y026006D01*
X019647Y026006D02*
X019647Y026719D01*
X020647Y026719D02*
X020647Y026006D01*
X021647Y026006D02*
X021647Y026719D01*
X022647Y026719D02*
X022647Y026006D01*
X023978Y026006D02*
X023978Y026719D01*
X024978Y026719D02*
X024978Y026006D01*
X025978Y026006D02*
X025978Y026719D01*
X026978Y026719D02*
X026978Y026006D01*
X028309Y026006D02*
X028309Y026719D01*
X029309Y026719D02*
X029309Y026006D01*
X030309Y026006D02*
X030309Y026719D01*
X031309Y026719D02*
X031309Y026006D01*
X031149Y022351D02*
X030437Y022351D01*
X030437Y021351D02*
X031149Y021351D01*
X031149Y020351D02*
X030437Y020351D01*
X030437Y019351D02*
X031149Y019351D01*
X011070Y019744D02*
X010358Y019744D01*
X010358Y020744D02*
X011070Y020744D01*
X011070Y021744D02*
X010358Y021744D01*
X010358Y022744D02*
X011070Y022744D01*
D12*
X013414Y006490D03*
X015414Y006490D03*
X017414Y006490D03*
X019414Y006490D03*
D13*
X002669Y001264D02*
X001829Y001264D01*
X001829Y002642D02*
X002669Y002642D01*
X002669Y004020D02*
X001829Y004020D01*
X001829Y005398D02*
X002669Y005398D01*
X002669Y006776D02*
X001829Y006776D01*
X001829Y008154D02*
X002669Y008154D01*
X002669Y009532D02*
X001829Y009532D01*
X001829Y010910D02*
X002669Y010910D01*
X002669Y012288D02*
X001829Y012288D01*
X001829Y013666D02*
X002669Y013666D01*
X002669Y015044D02*
X001829Y015044D01*
X001829Y016422D02*
X002669Y016422D01*
X030963Y016422D02*
X031803Y016422D01*
X031803Y015044D02*
X030963Y015044D01*
X030963Y013666D02*
X031803Y013666D01*
X031803Y012288D02*
X030963Y012288D01*
X030963Y010910D02*
X031803Y010910D01*
X031803Y009532D02*
X030963Y009532D01*
X030963Y008154D02*
X031803Y008154D01*
X031803Y006776D02*
X030963Y006776D01*
X030963Y005398D02*
X031803Y005398D01*
X031803Y004020D02*
X030963Y004020D01*
X030963Y002642D02*
X031803Y002642D01*
X031803Y001264D02*
X030963Y001264D01*
D14*
X011214Y014142D03*
X010214Y014142D03*
X010214Y015142D03*
X011214Y015142D03*
X011214Y016142D03*
X010214Y016142D03*
D15*
X010568Y016181D01*
X010568Y016681D01*
X012568Y016681D01*
X016068Y013181D01*
X016423Y013142D01*
X012568Y012181D02*
X010568Y012181D01*
X010068Y011681D01*
X010068Y010681D01*
X026068Y010681D01*
X026328Y010504D01*
X025068Y011681D02*
X026068Y012681D01*
X026328Y012504D01*
X025568Y013181D02*
X022068Y013181D01*
X021934Y013142D01*
X025068Y011681D02*
X011356Y011681D01*
X012568Y012181D02*
X012568Y015181D01*
X011568Y016181D01*
X011214Y016142D01*
X010214Y015142D02*
X010068Y015181D01*
X008068Y013181D01*
X008068Y011181D01*
X007568Y011181D01*
X007328Y011004D01*
X007068Y011181D01*
X006068Y012181D01*
X002568Y012181D01*
X002249Y012288D01*
X002249Y013666D02*
X002568Y013681D01*
X006568Y013681D01*
X007068Y014181D01*
X007328Y014004D01*
X007568Y014681D02*
X010068Y017181D01*
X011068Y017181D01*
X013568Y019181D02*
X014568Y019181D01*
X014454Y019048D01*
X013568Y019181D02*
X011068Y021681D01*
X010714Y021744D01*
X011068Y021681D02*
X012068Y021681D01*
X015068Y024681D01*
X026568Y024681D01*
X029068Y024681D01*
X030568Y026181D01*
X030309Y026363D01*
X031068Y026181D02*
X031309Y026363D01*
X031068Y026181D02*
X031068Y024181D01*
X025781Y024181D01*
X027068Y023181D02*
X022068Y023181D01*
X021934Y023048D01*
X022568Y023681D02*
X020568Y023681D01*
X020068Y023181D01*
X020163Y023048D01*
X019568Y025181D02*
X024068Y025181D01*
X029068Y025181D01*
X029068Y026181D01*
X029309Y026363D01*
X027568Y023681D02*
X027068Y023181D01*
X026328Y022504D02*
X026068Y022681D01*
X025568Y022181D01*
X013068Y022181D01*
X012068Y021181D01*
X011068Y021681D02*
X013068Y023681D01*
X011068Y022681D02*
X011068Y025181D01*
X016068Y025181D01*
X019568Y025181D01*
X020568Y026181D01*
X020647Y026363D01*
X023068Y024181D02*
X022568Y023681D01*
X024068Y025181D02*
X025068Y026181D01*
X024978Y026363D01*
X026068Y021681D02*
X026328Y021504D01*
X026068Y021681D02*
X016568Y021681D01*
X016568Y020181D01*
X014568Y018181D01*
X014568Y017181D01*
X014454Y017142D01*
X016423Y017142D02*
X016568Y017181D01*
X016568Y018181D01*
X017068Y018681D01*
X017068Y020681D01*
X026068Y020681D01*
X026328Y020504D01*
X026068Y019681D02*
X026328Y019504D01*
X026068Y019681D02*
X024568Y018181D01*
X019568Y018181D01*
X018568Y017181D01*
X018391Y017142D01*
X020068Y017181D02*
X020163Y017142D01*
X020068Y017181D02*
X020568Y017681D01*
X025068Y017681D01*
X026068Y018681D01*
X026328Y018504D01*
X026068Y017681D02*
X026328Y017504D01*
X026068Y017681D02*
X025568Y017181D01*
X022068Y017181D01*
X021934Y017142D01*
X020163Y019048D02*
X020068Y019181D01*
X018568Y019181D01*
X018391Y019048D01*
X016068Y025181D02*
X016068Y026181D01*
X016316Y026363D01*
X012068Y026181D02*
X011986Y026363D01*
X012068Y026181D02*
X011068Y025181D01*
X004568Y025181D01*
X004568Y026181D01*
X004324Y026363D01*
X005568Y024681D02*
X005068Y024181D01*
X005068Y018681D01*
X007068Y018681D01*
X007328Y018504D01*
X007328Y019504D02*
X007568Y019681D01*
X009068Y019681D01*
X009568Y020181D01*
X010568Y019681D02*
X010714Y019744D01*
X010568Y019681D02*
X008568Y021681D01*
X007568Y021681D01*
X007328Y021504D01*
X007068Y020681D02*
X007328Y020504D01*
X007068Y020681D02*
X005568Y020681D01*
X005568Y024181D01*
X005568Y024681D02*
X006068Y024181D01*
X007068Y024181D01*
X006568Y024681D02*
X009568Y024681D01*
X008568Y022681D02*
X007568Y022681D01*
X007328Y022504D01*
X008568Y022681D02*
X010568Y020681D01*
X010714Y020744D01*
X011068Y022681D02*
X010714Y022744D01*
X004068Y014681D02*
X002568Y016181D01*
X002249Y016422D01*
X004068Y014681D02*
X007568Y014681D01*
X007568Y008181D02*
X007328Y008004D01*
X007568Y008181D02*
X009068Y006681D01*
X013068Y006681D01*
X013414Y006490D01*
X009761Y004512D02*
X009568Y004681D01*
X009068Y005181D01*
X002568Y005181D01*
X002249Y005398D01*
X002568Y004181D02*
X002249Y004020D01*
X002568Y004181D02*
X005068Y004181D01*
X005568Y004681D01*
X005761Y004512D01*
X025568Y013181D02*
X026068Y013681D01*
X026328Y013504D01*
X026328Y014453D02*
X026328Y014504D01*
X026328Y014453D02*
X026954Y014453D01*
X026954Y001264D01*
X031383Y001264D01*
D16*
X011356Y011681D03*
X011068Y017181D03*
X009568Y020181D03*
X012068Y021181D03*
X013068Y023681D03*
X009568Y024681D03*
X007068Y024181D03*
X006568Y024681D03*
X005568Y024181D03*
X023068Y024181D03*
X025781Y024181D03*
X026568Y024681D03*
X027568Y023681D03*
D17*
X019414Y006490D02*
X015566Y002642D01*
X002249Y002642D01*
D18*
X027446Y007465D02*
X028824Y007465D01*
X028824Y006874D01*
X031383Y006874D01*
X031383Y008252D02*
X028234Y008252D01*
X028234Y021351D01*
X030793Y021351D01*
X030793Y022351D02*
X027446Y022351D01*
X027446Y007465D01*
X029021Y009630D02*
X031383Y009630D01*
X031383Y010811D02*
X029809Y010811D01*
X029809Y019351D01*
X030793Y019351D01*
X030793Y020351D02*
X029021Y020351D01*
X029021Y009630D01*
D19*
X031383Y009630D02*
X031383Y009532D01*
X031383Y010811D02*
X031383Y010910D01*
X031383Y008252D02*
X031383Y008154D01*
X031383Y006874D02*
X031383Y006776D01*
D20*
X026568Y005181D02*
X024568Y007181D01*
X013568Y007181D01*
X011068Y009681D01*
X007568Y010181D02*
X007328Y010004D01*
X007568Y010181D02*
X022068Y010181D01*
X025568Y006681D01*
X011568Y014181D02*
X011214Y014142D01*
X011568Y014181D02*
X007568Y010181D01*
D21*
X011068Y009681D03*
X025568Y006681D03*
X026568Y005181D03*
M02*
