G75*
G70*
%OFA0B0*%
%FSLAX24Y24*%
%IPPOS*%
%LPD*%
%AMOC8*
5,1,8,0,0,1.08239X$1,22.5*
%
%ADD10C,0.0740*%
%ADD11C,0.0712*%
%ADD12C,0.0787*%
%ADD13C,0.0840*%
%ADD14OC8,0.0740*%
%ADD15C,0.0560*%
%ADD16C,0.0800*%
%ADD17C,0.0120*%
%ADD18C,0.0400*%
%ADD19C,0.0500*%
%ADD20C,0.0400*%
D10*
X004895Y004276D03*
X007328Y007004D03*
X007328Y008004D03*
X007328Y009004D03*
X007328Y010004D03*
X007328Y011004D03*
X007328Y012004D03*
X007328Y013004D03*
X007328Y014004D03*
X007328Y015504D03*
X007328Y016504D03*
X007328Y017504D03*
X007328Y018504D03*
X007328Y019504D03*
X007328Y020504D03*
X007328Y021504D03*
X007328Y022504D03*
X014454Y023048D03*
X016423Y023048D03*
X018391Y023048D03*
X020163Y023048D03*
X021934Y023048D03*
X026328Y022504D03*
X026328Y021504D03*
X026328Y020504D03*
X026328Y019504D03*
X026328Y018504D03*
X026328Y017504D03*
X026328Y015504D03*
X026328Y014504D03*
X026328Y013504D03*
X026328Y012504D03*
X026328Y011504D03*
X026328Y010504D03*
X022753Y010024D03*
X020360Y013142D03*
X018391Y013142D03*
X016423Y013142D03*
X014454Y013142D03*
X018753Y010024D03*
X018391Y017142D03*
X016423Y017142D03*
X014454Y017142D03*
X014454Y019048D03*
X016423Y019048D03*
X018391Y019048D03*
X020163Y019048D03*
X021934Y019048D03*
X020360Y017142D03*
X008895Y004276D03*
D11*
X003196Y019548D02*
X002484Y019548D01*
X002484Y020548D02*
X003196Y020548D01*
X003196Y021548D02*
X002484Y021548D01*
X002484Y022548D02*
X003196Y022548D01*
X003324Y026006D02*
X003324Y026719D01*
X002324Y026719D02*
X002324Y026006D01*
X004324Y026006D02*
X004324Y026719D01*
X005324Y026719D02*
X005324Y026006D01*
X006655Y026006D02*
X006655Y026719D01*
X007655Y026719D02*
X007655Y026006D01*
X008655Y026006D02*
X008655Y026719D01*
X009655Y026719D02*
X009655Y026006D01*
X010986Y026006D02*
X010986Y026719D01*
X011986Y026719D02*
X011986Y026006D01*
X012986Y026006D02*
X012986Y026719D01*
X013986Y026719D02*
X013986Y026006D01*
X015316Y026006D02*
X015316Y026719D01*
X016316Y026719D02*
X016316Y026006D01*
X017316Y026006D02*
X017316Y026719D01*
X018316Y026719D02*
X018316Y026006D01*
X019647Y026006D02*
X019647Y026719D01*
X020647Y026719D02*
X020647Y026006D01*
X021647Y026006D02*
X021647Y026719D01*
X022647Y026719D02*
X022647Y026006D01*
X023978Y026006D02*
X023978Y026719D01*
X024978Y026719D02*
X024978Y026006D01*
X025978Y026006D02*
X025978Y026719D01*
X026978Y026719D02*
X026978Y026006D01*
X028309Y026006D02*
X028309Y026719D01*
X029309Y026719D02*
X029309Y026006D01*
X030309Y026006D02*
X030309Y026719D01*
X031309Y026719D02*
X031309Y026006D01*
X031149Y022351D02*
X030437Y022351D01*
X030437Y021351D02*
X031149Y021351D01*
X031149Y020351D02*
X030437Y020351D01*
X030437Y019351D02*
X031149Y019351D01*
X011070Y019744D02*
X010358Y019744D01*
X010358Y020744D02*
X011070Y020744D01*
X011070Y021744D02*
X010358Y021744D01*
X010358Y022744D02*
X011070Y022744D01*
D12*
X018532Y003341D03*
X020532Y003341D03*
X022532Y003341D03*
X024532Y003341D03*
D13*
X002669Y001264D02*
X001829Y001264D01*
X001829Y002642D02*
X002669Y002642D01*
X002669Y004020D02*
X001829Y004020D01*
X001829Y005398D02*
X002669Y005398D01*
X002669Y006776D02*
X001829Y006776D01*
X001829Y008154D02*
X002669Y008154D01*
X002669Y009532D02*
X001829Y009532D01*
X001829Y010910D02*
X002669Y010910D01*
X002669Y012288D02*
X001829Y012288D01*
X001829Y013666D02*
X002669Y013666D01*
X002669Y015044D02*
X001829Y015044D01*
X001829Y016422D02*
X002669Y016422D01*
X030963Y016422D02*
X031803Y016422D01*
X031803Y015044D02*
X030963Y015044D01*
X030963Y013666D02*
X031803Y013666D01*
X031803Y012288D02*
X030963Y012288D01*
X030963Y010910D02*
X031803Y010910D01*
X031803Y009532D02*
X030963Y009532D01*
X030963Y008154D02*
X031803Y008154D01*
X031803Y006776D02*
X030963Y006776D01*
X030963Y005398D02*
X031803Y005398D01*
X031803Y004020D02*
X030963Y004020D01*
X030963Y002642D02*
X031803Y002642D01*
X031803Y001264D02*
X030963Y001264D01*
D14*
X023616Y014142D03*
X022616Y014142D03*
X022616Y015142D03*
X023616Y015142D03*
X023616Y016142D03*
X022616Y016142D03*
X011214Y016142D03*
X011214Y015142D03*
X010214Y015142D03*
X010214Y016142D03*
X010214Y014142D03*
X011214Y014142D03*
D15*
X011887Y010662D02*
X012447Y010662D01*
X012447Y009662D02*
X011887Y009662D01*
X011887Y008662D02*
X012447Y008662D01*
X012447Y007662D02*
X011887Y007662D01*
X011887Y006662D02*
X012447Y006662D01*
X012447Y005662D02*
X011887Y005662D01*
X011887Y004662D02*
X012447Y004662D01*
X014887Y004662D02*
X015447Y004662D01*
X015447Y005662D02*
X014887Y005662D01*
X014887Y006662D02*
X015447Y006662D01*
X015447Y007662D02*
X014887Y007662D01*
X014887Y008662D02*
X015447Y008662D01*
X015447Y009662D02*
X014887Y009662D01*
X014887Y010662D02*
X015447Y010662D01*
D16*
X023431Y002307D02*
X024454Y003331D01*
X024532Y003341D01*
X023431Y002307D02*
X002564Y002307D01*
X002249Y002622D01*
X002249Y002642D01*
D17*
X002249Y004020D02*
X002249Y004040D01*
X004612Y004040D01*
X004848Y004276D01*
X004895Y004276D01*
X002249Y005378D02*
X002249Y005398D01*
X002249Y005378D02*
X007761Y005378D01*
X008864Y004276D01*
X008895Y004276D01*
X010832Y006008D02*
X011698Y005142D01*
X030281Y005142D01*
X031383Y004040D01*
X031383Y004020D01*
X031383Y002701D02*
X031383Y002642D01*
X031383Y002701D02*
X029494Y004591D01*
X015242Y004591D01*
X015167Y004662D01*
X012167Y006662D02*
X012171Y006717D01*
X014060Y008607D01*
X015163Y008607D01*
X015167Y008662D01*
X015167Y010662D02*
X015242Y010733D01*
X016029Y011520D01*
X026265Y011520D01*
X026328Y011504D01*
X026108Y010733D02*
X026265Y010575D01*
X026328Y010504D01*
X026108Y010733D02*
X022722Y010733D01*
X022328Y011126D01*
X022013Y009158D02*
X011462Y009158D01*
X010832Y009630D02*
X011383Y010181D01*
X011383Y011992D01*
X011462Y011992D01*
X011068Y012544D02*
X026265Y012544D01*
X026328Y012504D01*
X023824Y013567D02*
X025714Y015457D01*
X025714Y018449D01*
X026265Y018449D01*
X026328Y018504D01*
X026265Y020496D02*
X024218Y018449D01*
X022013Y018449D01*
X022013Y015693D01*
X022564Y015142D01*
X022616Y015142D01*
X022616Y014142D02*
X022643Y014118D01*
X023194Y013567D01*
X023824Y013567D01*
X020438Y013882D02*
X013431Y013882D01*
X011226Y016087D01*
X011214Y016142D01*
X011462Y016717D02*
X008549Y016717D01*
X007368Y015536D01*
X007328Y015504D01*
X007328Y014004D02*
X007289Y013961D01*
X007053Y013725D01*
X002249Y013725D01*
X002249Y013666D01*
X003116Y014118D02*
X006265Y014118D01*
X007328Y013004D02*
X007368Y012937D01*
X010281Y010024D01*
X010832Y009630D02*
X007919Y009630D01*
X007368Y009079D01*
X007328Y009004D01*
X007328Y011004D02*
X007289Y011048D01*
X006108Y012229D01*
X002249Y012229D01*
X002249Y012288D01*
X003116Y014118D02*
X002249Y014985D01*
X002249Y015044D01*
X007328Y017504D02*
X007368Y017504D01*
X007683Y017189D01*
X014454Y017189D01*
X014454Y017142D01*
X014848Y016166D02*
X012013Y016166D01*
X011462Y016717D01*
X009415Y018449D02*
X007368Y020496D01*
X007328Y020504D01*
X007368Y021441D02*
X007328Y021504D01*
X007368Y021441D02*
X008627Y020181D01*
X010281Y020181D01*
X010675Y019788D01*
X010714Y019744D01*
X010714Y020744D02*
X010675Y020811D01*
X010281Y021205D01*
X008627Y021205D01*
X007328Y022504D01*
X010714Y021744D02*
X010753Y021677D01*
X011147Y021284D01*
X012249Y021284D01*
X014454Y019079D01*
X014454Y019048D01*
X015871Y017740D02*
X016423Y017189D01*
X016423Y017142D01*
X015871Y017740D02*
X008076Y017740D01*
X007368Y018449D01*
X007328Y018504D01*
X007368Y019473D02*
X007328Y019504D01*
X007368Y019473D02*
X008785Y018055D01*
X018391Y018055D01*
X019848Y016599D01*
X017997Y014748D01*
X015242Y014748D01*
X014769Y014276D01*
X015871Y015142D02*
X014848Y016166D01*
X017683Y018449D02*
X009415Y018449D01*
X013352Y023331D02*
X017210Y019473D01*
X017368Y019473D01*
X016423Y019079D02*
X016423Y019048D01*
X016423Y019079D02*
X018391Y019079D01*
X018391Y019048D01*
X019809Y017740D02*
X025163Y023095D01*
X031226Y023095D01*
X031777Y022622D01*
X031777Y017111D01*
X030675Y017111D01*
X030281Y016717D01*
X030281Y013725D01*
X031383Y013725D01*
X031383Y013666D01*
X031383Y012307D02*
X029966Y012307D01*
X029966Y016796D01*
X030675Y017504D01*
X026328Y020504D02*
X026265Y020496D01*
X031305Y023646D02*
X019809Y023646D01*
X017525Y021363D01*
X015950Y021363D01*
X013352Y023331D02*
X003352Y023331D01*
X003352Y026323D01*
X003324Y026363D01*
X007655Y026363D02*
X007683Y026402D01*
X008549Y027268D01*
X012958Y027268D01*
X012958Y026402D01*
X012986Y026363D01*
X013986Y026363D02*
X014060Y026402D01*
X014927Y027268D01*
X016580Y027268D01*
X017289Y026559D01*
X017289Y026402D01*
X017316Y026363D01*
X020360Y017142D02*
X020360Y017111D01*
X019848Y016599D01*
X015557Y012150D02*
X014612Y012150D01*
X012171Y009709D01*
X012167Y009662D01*
X011068Y012544D02*
X010753Y012859D01*
X022013Y009158D02*
X024927Y006244D01*
X030596Y006244D01*
X031383Y005457D01*
X031383Y005398D01*
X031383Y012288D02*
X031383Y012307D01*
X031305Y023646D02*
X031305Y026323D01*
X031309Y026363D01*
D18*
X030675Y017504D03*
X022328Y011126D03*
X020438Y013882D03*
X015871Y015142D03*
X014769Y014276D03*
X015557Y012150D03*
X011462Y011992D03*
X010753Y012859D03*
X010281Y010024D03*
X011462Y009158D03*
X010832Y006008D03*
X006265Y014118D03*
X015950Y021363D03*
X017368Y019473D03*
X017683Y018449D03*
X019809Y017740D03*
D19*
X027368Y019473D02*
X027368Y006796D01*
X031383Y006796D01*
X031383Y006776D01*
X031383Y008154D02*
X031383Y008213D01*
X028076Y008213D01*
X028076Y019079D01*
X030123Y021126D01*
X030596Y021126D01*
X030753Y021284D01*
X030793Y021351D01*
X030596Y022150D02*
X030045Y022150D01*
X027368Y019473D01*
X028785Y018843D02*
X028785Y009551D01*
X031383Y009551D01*
X031383Y009532D01*
X031383Y010910D02*
X031383Y010969D01*
X029494Y010969D01*
X029494Y018055D01*
X030753Y019315D01*
X030793Y019351D01*
X030596Y020181D02*
X030123Y020181D01*
X028785Y018843D01*
X030596Y020181D02*
X030753Y020339D01*
X030793Y020351D01*
X030596Y022150D02*
X030753Y022307D01*
X030793Y022351D01*
D20*
X029257Y025300D02*
X024927Y025300D01*
X020596Y025300D01*
X016265Y025300D01*
X011541Y025300D01*
X011423Y025418D01*
X011305Y025300D01*
X004375Y025300D01*
X004375Y026323D01*
X004324Y026363D01*
X011423Y025418D02*
X011934Y025929D01*
X011934Y026323D01*
X011986Y026363D01*
X016265Y026323D02*
X016265Y025300D01*
X016265Y026323D02*
X016316Y026363D01*
X020596Y026323D02*
X020596Y025300D01*
X020596Y026323D02*
X020647Y026363D01*
X024927Y026323D02*
X024927Y025300D01*
X024927Y026323D02*
X024978Y026363D01*
X029257Y026323D02*
X029257Y025300D01*
X029257Y026323D02*
X029309Y026363D01*
X026328Y013504D02*
X026265Y013489D01*
X025950Y013174D01*
X020517Y013174D01*
X020360Y013142D01*
X020360Y013174D01*
X018549Y013174D01*
X018391Y013142D01*
X018391Y013174D01*
X016580Y013174D01*
X016423Y013142D01*
X016423Y013174D01*
X014454Y013174D01*
X014454Y013142D01*
X014297Y013252D01*
X014139Y013410D01*
X009966Y013410D01*
X008785Y014591D01*
X008785Y014748D01*
X010123Y016087D01*
X010202Y016087D01*
X010214Y016142D01*
X008785Y014748D02*
X007053Y014748D01*
X005950Y015851D01*
X002801Y015851D01*
X002249Y016402D01*
X002249Y016422D01*
X007328Y008004D02*
X007368Y007977D01*
X010596Y004748D01*
X012013Y004748D01*
X012167Y004662D01*
X012328Y004591D01*
X013431Y003489D01*
X018391Y003489D01*
X018532Y003341D01*
X018706Y003410D01*
X019494Y004197D01*
X024848Y004197D01*
X027210Y001835D01*
X030832Y001835D01*
X031383Y001284D01*
X031383Y001264D01*
M02*
