G75*
G70*
%OFA0B0*%
%FSLAX24Y24*%
%IPPOS*%
%LPD*%
%AMOC8*
5,1,8,0,0,1.08239X$1,22.5*
%
%ADD10C,0.0000*%
%ADD11C,0.0740*%
%ADD12C,0.0712*%
%ADD13C,0.0787*%
%ADD14C,0.0840*%
%ADD15OC8,0.0740*%
%ADD16C,0.0560*%
%ADD17C,0.0400*%
%ADD18C,0.0800*%
%ADD19C,0.0120*%
%ADD20C,0.0400*%
%ADD21C,0.0500*%
D10*
X001068Y000181D02*
X001068Y027740D01*
X032564Y027740D01*
X032564Y000181D01*
X001068Y000181D01*
D11*
X004423Y003961D03*
X007328Y007004D03*
X007328Y008004D03*
X007328Y009004D03*
X007328Y010004D03*
X007328Y011004D03*
X007328Y012004D03*
X007328Y013004D03*
X007328Y014004D03*
X007328Y015504D03*
X007328Y016504D03*
X007328Y017504D03*
X007328Y018504D03*
X007328Y019504D03*
X007328Y020504D03*
X007328Y021504D03*
X007328Y022504D03*
X013352Y022733D03*
X014927Y022733D03*
X016580Y022733D03*
X018273Y022733D03*
X019966Y022733D03*
X019966Y018733D03*
X018273Y018733D03*
X016580Y018733D03*
X014927Y018733D03*
X013352Y018733D03*
X013824Y017221D03*
X015478Y017221D03*
X017131Y017221D03*
X018785Y017221D03*
X020517Y017221D03*
X022249Y017221D03*
X023982Y017221D03*
X026328Y017504D03*
X026328Y018504D03*
X026328Y019504D03*
X026328Y020504D03*
X026328Y021504D03*
X026328Y022504D03*
X026328Y015504D03*
X026328Y014504D03*
X026328Y013504D03*
X026328Y012504D03*
X026328Y011504D03*
X026328Y010504D03*
X027557Y007740D03*
X023557Y007740D03*
X023982Y013221D03*
X022249Y013221D03*
X020517Y013221D03*
X018785Y013221D03*
X017131Y013221D03*
X015478Y013221D03*
X013824Y013221D03*
X008423Y003961D03*
D12*
X003196Y019548D02*
X002484Y019548D01*
X002484Y020548D02*
X003196Y020548D01*
X003196Y021548D02*
X002484Y021548D01*
X002484Y022548D02*
X003196Y022548D01*
X003324Y026006D02*
X003324Y026719D01*
X002324Y026719D02*
X002324Y026006D01*
X004324Y026006D02*
X004324Y026719D01*
X005324Y026719D02*
X005324Y026006D01*
X006655Y026006D02*
X006655Y026719D01*
X007655Y026719D02*
X007655Y026006D01*
X008655Y026006D02*
X008655Y026719D01*
X009655Y026719D02*
X009655Y026006D01*
X010986Y026006D02*
X010986Y026719D01*
X011986Y026719D02*
X011986Y026006D01*
X012986Y026006D02*
X012986Y026719D01*
X013986Y026719D02*
X013986Y026006D01*
X015316Y026006D02*
X015316Y026719D01*
X016316Y026719D02*
X016316Y026006D01*
X017316Y026006D02*
X017316Y026719D01*
X018316Y026719D02*
X018316Y026006D01*
X019647Y026006D02*
X019647Y026719D01*
X020647Y026719D02*
X020647Y026006D01*
X021647Y026006D02*
X021647Y026719D01*
X022647Y026719D02*
X022647Y026006D01*
X023978Y026006D02*
X023978Y026719D01*
X024978Y026719D02*
X024978Y026006D01*
X025978Y026006D02*
X025978Y026719D01*
X026978Y026719D02*
X026978Y026006D01*
X028309Y026006D02*
X028309Y026719D01*
X029309Y026719D02*
X029309Y026006D01*
X030309Y026006D02*
X030309Y026719D01*
X031309Y026719D02*
X031309Y026006D01*
X031149Y022351D02*
X030437Y022351D01*
X030437Y021351D02*
X031149Y021351D01*
X031149Y020351D02*
X030437Y020351D01*
X030437Y019351D02*
X031149Y019351D01*
X024102Y019705D02*
X023389Y019705D01*
X023389Y020705D02*
X024102Y020705D01*
X024102Y021705D02*
X023389Y021705D01*
X023389Y022705D02*
X024102Y022705D01*
X010283Y022666D02*
X009570Y022666D01*
X009570Y021666D02*
X010283Y021666D01*
X010283Y020666D02*
X009570Y020666D01*
X009570Y019666D02*
X010283Y019666D01*
D13*
X021210Y003341D03*
X023210Y003341D03*
X025210Y003341D03*
X027210Y003341D03*
D14*
X030963Y004020D02*
X031803Y004020D01*
X031803Y002642D02*
X030963Y002642D01*
X030963Y001264D02*
X031803Y001264D01*
X031803Y005398D02*
X030963Y005398D01*
X030963Y006776D02*
X031803Y006776D01*
X031803Y008154D02*
X030963Y008154D01*
X030963Y009532D02*
X031803Y009532D01*
X031803Y010910D02*
X030963Y010910D01*
X030963Y012288D02*
X031803Y012288D01*
X031803Y013666D02*
X030963Y013666D01*
X030963Y015044D02*
X031803Y015044D01*
X031803Y016422D02*
X030963Y016422D01*
X002669Y016422D02*
X001829Y016422D01*
X001829Y015044D02*
X002669Y015044D01*
X002669Y013666D02*
X001829Y013666D01*
X001829Y012288D02*
X002669Y012288D01*
X002669Y010910D02*
X001829Y010910D01*
X001829Y009532D02*
X002669Y009532D01*
X002669Y008154D02*
X001829Y008154D01*
X001829Y006776D02*
X002669Y006776D01*
X002669Y005398D02*
X001829Y005398D01*
X001829Y004020D02*
X002669Y004020D01*
X002669Y002642D02*
X001829Y002642D01*
X001829Y001264D02*
X002669Y001264D01*
D15*
X010214Y014142D03*
X011214Y014142D03*
X011214Y015142D03*
X010214Y015142D03*
X010214Y016142D03*
X011214Y016142D03*
D16*
X010557Y011055D02*
X009997Y011055D01*
X009997Y010055D02*
X010557Y010055D01*
X010557Y009055D02*
X009997Y009055D01*
X009997Y008055D02*
X010557Y008055D01*
X010557Y007055D02*
X009997Y007055D01*
X009997Y006055D02*
X010557Y006055D01*
X010557Y005055D02*
X009997Y005055D01*
X012997Y005055D02*
X013557Y005055D01*
X013557Y006055D02*
X012997Y006055D01*
X012997Y007055D02*
X013557Y007055D01*
X013557Y008055D02*
X012997Y008055D01*
X012997Y009055D02*
X013557Y009055D01*
X013557Y010055D02*
X012997Y010055D01*
X012997Y011055D02*
X013557Y011055D01*
X015549Y009520D02*
X015549Y008960D01*
X016549Y008960D02*
X016549Y009520D01*
X017549Y009520D02*
X017549Y008960D01*
X018549Y008960D02*
X018549Y009520D01*
X019549Y009520D02*
X019549Y008960D01*
X020549Y008960D02*
X020549Y009520D01*
X021549Y009520D02*
X021549Y008960D01*
X021549Y006520D02*
X021549Y005960D01*
X020549Y005960D02*
X020549Y006520D01*
X019549Y006520D02*
X019549Y005960D01*
X018549Y005960D02*
X018549Y006520D01*
X017549Y006520D02*
X017549Y005960D01*
X016549Y005960D02*
X016549Y006520D01*
X015549Y006520D02*
X015549Y005960D01*
D17*
X021226Y005851D02*
X021226Y003410D01*
X021210Y003341D01*
X023210Y003341D02*
X023273Y003410D01*
X024690Y004827D01*
X024690Y013882D01*
X026265Y015457D01*
X026328Y015504D01*
X027053Y015772D02*
X027053Y015142D01*
X026501Y014591D01*
X026328Y014504D01*
X026344Y014433D01*
X026344Y013567D01*
X026328Y013504D01*
X027053Y015772D02*
X025005Y017819D01*
X025005Y019551D01*
X024927Y019709D01*
X024927Y026323D01*
X024978Y026363D01*
X029309Y026363D02*
X029336Y026323D01*
X029572Y026087D01*
X029572Y025772D01*
X030045Y025300D01*
X031305Y025300D01*
X031305Y026323D01*
X031309Y026363D01*
X024927Y019709D02*
X023746Y019709D01*
X023746Y019705D01*
X022249Y013221D02*
X022249Y007032D01*
X021620Y006402D01*
X021549Y006240D01*
X021541Y006166D01*
X021226Y005851D01*
X010214Y016142D02*
X010202Y016166D01*
X010202Y018607D01*
X010990Y019394D01*
X010990Y023489D01*
X010871Y023607D01*
X009966Y022701D01*
X009927Y022666D01*
X010871Y023607D02*
X011934Y024670D01*
X011934Y026323D01*
X011986Y026363D01*
X006501Y013725D02*
X006580Y013646D01*
X006580Y008764D01*
X007289Y008055D01*
X007328Y008004D01*
D18*
X025210Y003341D02*
X025242Y003410D01*
X028864Y007032D01*
X028864Y014433D01*
X030832Y016402D01*
X031383Y016402D01*
X031383Y016422D01*
X031383Y015044D02*
X031383Y014985D01*
X030832Y014985D01*
X029887Y014040D01*
X029887Y006087D01*
X027210Y003410D01*
X027210Y003341D01*
D19*
X029966Y002622D02*
X023116Y002622D01*
X022564Y003174D01*
X022564Y003567D01*
X023509Y004512D01*
X023509Y007740D01*
X023557Y007740D01*
X023116Y005851D02*
X022249Y004985D01*
X022249Y002701D01*
X011541Y002701D01*
X011068Y003174D01*
X011068Y006559D01*
X009257Y006559D01*
X008234Y006087D02*
X006108Y006087D01*
X006108Y018292D01*
X006147Y018331D01*
X006108Y018370D01*
X006108Y027268D01*
X008942Y027268D01*
X009257Y026953D01*
X009257Y026796D01*
X009651Y026402D01*
X009655Y026363D01*
X008706Y026323D02*
X008655Y026363D01*
X008627Y026402D01*
X007683Y026402D01*
X007655Y026363D01*
X006738Y026244D02*
X006738Y021126D01*
X007289Y020575D01*
X007328Y020504D01*
X007328Y019504D02*
X007289Y019473D01*
X006147Y018331D01*
X007328Y017504D02*
X007368Y017504D01*
X007919Y018055D01*
X007919Y023489D01*
X008312Y023882D01*
X008706Y021677D02*
X008706Y026323D01*
X006738Y026244D02*
X006659Y026323D01*
X006655Y026363D01*
X010986Y026363D02*
X010990Y026402D01*
X011383Y026796D01*
X011383Y026953D01*
X011698Y027268D01*
X014533Y027268D01*
X014533Y023961D01*
X013352Y022780D01*
X013352Y022733D01*
X012801Y022465D02*
X012801Y024985D01*
X013982Y026166D01*
X013982Y026323D01*
X013986Y026363D01*
X014927Y026008D02*
X014927Y022733D01*
X012801Y022465D02*
X016029Y019237D01*
X016029Y016717D01*
X016501Y016717D01*
X016029Y016717D02*
X016029Y009788D01*
X016501Y009315D01*
X016549Y009240D01*
X017053Y008449D02*
X017053Y012307D01*
X020517Y015772D01*
X020517Y017221D01*
X022249Y017221D02*
X022249Y015851D01*
X018785Y012386D01*
X018785Y010496D01*
X017604Y009315D01*
X017549Y009240D01*
X017053Y008449D02*
X018706Y008449D01*
X019494Y009237D01*
X019549Y009240D01*
X020045Y009709D02*
X020045Y006717D01*
X020517Y006244D01*
X020549Y006240D01*
X019549Y006240D02*
X019494Y006244D01*
X018549Y006244D01*
X018549Y006240D01*
X017683Y007347D02*
X017053Y006717D01*
X017053Y005772D01*
X016344Y005063D01*
X013352Y005063D01*
X013277Y005055D01*
X013273Y004985D01*
X012879Y004591D01*
X012879Y003882D01*
X012486Y003882D02*
X012486Y015772D01*
X012564Y015851D01*
X012564Y016166D01*
X012013Y016717D01*
X010753Y016717D01*
X011214Y016142D02*
X011226Y016087D01*
X012171Y016087D01*
X012171Y016008D01*
X013273Y016638D02*
X013824Y017189D01*
X013824Y017221D01*
X013824Y017268D01*
X013352Y017740D01*
X013352Y018733D01*
X013352Y018764D01*
X014927Y018764D01*
X014927Y018733D01*
X014375Y017977D02*
X014375Y007111D01*
X013352Y006087D01*
X013277Y006055D01*
X011462Y006559D02*
X011068Y006953D01*
X011068Y008213D01*
X010753Y008528D01*
X008470Y008528D01*
X008470Y008843D01*
X007368Y009079D02*
X007328Y009004D01*
X007368Y009079D02*
X010675Y012386D01*
X010675Y012937D01*
X011305Y013567D01*
X011777Y013567D01*
X011777Y014591D01*
X011226Y015142D01*
X011214Y015142D01*
X010214Y015142D02*
X010202Y015142D01*
X007919Y012859D01*
X007919Y011599D01*
X007368Y011048D01*
X007328Y011004D01*
X007368Y010024D02*
X007328Y010004D01*
X007368Y010024D02*
X011147Y013803D01*
X011147Y014118D01*
X011214Y014142D01*
X010214Y014142D02*
X010202Y014118D01*
X009572Y013489D01*
X009572Y012780D01*
X011068Y012780D02*
X011856Y011992D01*
X011856Y003725D01*
X011462Y003331D01*
X012249Y003646D02*
X012486Y003882D01*
X015557Y007189D02*
X015557Y009237D01*
X015549Y009240D01*
X016423Y010181D02*
X016423Y014827D01*
X018785Y017189D01*
X018785Y017221D01*
X018273Y018733D02*
X018312Y018764D01*
X019966Y018764D01*
X019966Y018733D01*
X018273Y018733D02*
X018234Y018764D01*
X016580Y018764D01*
X016580Y018733D01*
X014375Y017977D02*
X013982Y018370D01*
X013273Y016638D02*
X013273Y011126D01*
X013277Y011055D01*
X013273Y011048D01*
X013273Y010103D01*
X013277Y010055D01*
X013273Y010024D01*
X013273Y009079D01*
X013277Y009055D01*
X015557Y007189D02*
X016501Y006244D01*
X016549Y006240D01*
X020045Y009709D02*
X019179Y010575D01*
X025399Y013803D02*
X025714Y013489D01*
X025714Y011126D01*
X026265Y010575D01*
X026328Y010504D01*
X030202Y005221D02*
X030360Y005063D01*
X030360Y002307D01*
X031383Y001284D01*
X031383Y001264D01*
X022249Y017221D02*
X022249Y019551D01*
X018785Y023016D01*
X018785Y025929D01*
X018391Y026323D01*
X018316Y026363D01*
X019179Y025929D02*
X019179Y024512D01*
X019179Y025929D02*
X019572Y026323D01*
X019647Y026363D01*
X022647Y026363D02*
X022722Y026402D01*
X023588Y027268D01*
X027525Y027268D01*
X027525Y020733D01*
X026344Y019551D01*
X026328Y019504D01*
X026328Y020504D02*
X026344Y020575D01*
X026895Y021126D01*
X026895Y026244D01*
X026974Y026323D01*
X026978Y026363D01*
X027919Y026008D02*
X027919Y024512D01*
X027919Y026008D02*
X028234Y026323D01*
X028309Y026363D01*
X023978Y026363D02*
X023903Y026323D01*
X021226Y023646D01*
X015316Y026363D02*
X015242Y026323D01*
X014927Y026008D01*
X009927Y021666D02*
X009887Y021677D01*
X008706Y021677D01*
X002324Y026363D02*
X002249Y026323D01*
X001856Y025929D01*
X001856Y019158D01*
X006501Y015378D02*
X006501Y014985D01*
X006895Y014591D01*
X007368Y015457D02*
X007328Y015504D01*
X007368Y015457D02*
X007919Y014906D01*
X007919Y013646D01*
X007997Y013567D01*
X010202Y008055D02*
X010277Y008055D01*
X010202Y008055D02*
X008234Y006087D01*
D20*
X009257Y006559D03*
X011462Y006559D03*
X008470Y008843D03*
X009572Y012780D03*
X011068Y012780D03*
X007997Y013567D03*
X006501Y013725D03*
X006895Y014591D03*
X006501Y015378D03*
X010753Y016717D03*
X012171Y016008D03*
X013982Y018370D03*
X016501Y016717D03*
X019179Y010575D03*
X016423Y010181D03*
X017683Y007347D03*
X012879Y003882D03*
X012249Y003646D03*
X011462Y003331D03*
X023116Y005851D03*
X030202Y005221D03*
X029966Y002622D03*
X025399Y013803D03*
X021226Y023646D03*
X019179Y024512D03*
X027919Y024512D03*
X008312Y023882D03*
X001856Y019158D03*
D21*
X002840Y019548D02*
X002879Y019473D01*
X003509Y018843D01*
X003509Y009158D01*
X002564Y008213D01*
X002249Y008213D01*
X002249Y008154D01*
X003509Y007977D02*
X003509Y007819D01*
X002486Y006796D01*
X002249Y006796D01*
X002249Y006776D01*
X003509Y007977D02*
X004218Y008685D01*
X004218Y020496D01*
X002879Y020496D01*
X002840Y020548D01*
X002879Y021520D02*
X002840Y021548D01*
X002879Y021520D02*
X004927Y021520D01*
X004927Y007819D01*
X002564Y005457D01*
X002249Y005457D01*
X002249Y005398D01*
X002249Y004040D02*
X002249Y004020D01*
X002249Y004040D02*
X002486Y004040D01*
X005635Y007189D01*
X005635Y022544D01*
X002879Y022544D01*
X002840Y022548D01*
M02*
