G75*
G70*
%OFA0B0*%
%FSLAX24Y24*%
%IPPOS*%
%LPD*%
%AMOC8*
5,1,8,0,0,1.08239X$1,22.5*
%
%ADD10C,0.0160*%
%ADD11C,0.0100*%
%ADD12C,0.0030*%
%ADD13C,0.0040*%
D10*
X003431Y000181D02*
X003431Y017504D01*
X001068Y017504D01*
X001856Y018685D02*
X001856Y023410D01*
X003824Y023410D01*
X003824Y018685D01*
X001856Y018685D01*
X006580Y014748D02*
X008155Y014748D01*
X008155Y023410D01*
X006580Y023410D01*
X006580Y014748D01*
X006580Y006087D01*
X008155Y006087D01*
X008155Y014748D01*
X009533Y013370D02*
X011895Y013370D01*
X011895Y016717D01*
X009533Y016717D01*
X009533Y013370D01*
X011383Y011284D02*
X011383Y004118D01*
X016029Y004118D01*
X016029Y011284D01*
X014139Y011284D01*
X013824Y010969D01*
X013667Y010969D01*
X013352Y011284D01*
X011383Y011284D01*
X017604Y004355D02*
X017604Y002386D01*
X025478Y002386D01*
X025478Y004355D01*
X017604Y004355D01*
X025478Y009630D02*
X027053Y009630D01*
X027053Y023410D01*
X025478Y023410D01*
X025478Y016323D01*
X026856Y016323D01*
X025478Y016323D02*
X025478Y009630D01*
X030202Y017504D02*
X030202Y000181D01*
X030202Y017504D02*
X032564Y017504D01*
X031777Y018489D02*
X029809Y018489D01*
X029809Y023213D01*
X031777Y023213D01*
X031777Y018489D01*
X032564Y025378D02*
X027643Y025378D01*
X027643Y027740D01*
X027643Y025378D02*
X023312Y025378D01*
X023312Y027740D01*
X023312Y025378D02*
X018982Y025378D01*
X018982Y027740D01*
X018982Y025378D02*
X014651Y025378D01*
X014651Y027740D01*
X014651Y025378D02*
X010320Y025378D01*
X010320Y027740D01*
X010320Y025378D02*
X005990Y025378D01*
X005990Y027740D01*
X005990Y025378D02*
X001068Y025378D01*
D11*
X014060Y022426D02*
X014060Y019670D01*
X014848Y019670D01*
X014848Y022426D01*
X014060Y022426D01*
X016029Y022426D02*
X016029Y019670D01*
X016816Y019670D01*
X016816Y022426D01*
X016029Y022426D01*
X017997Y022426D02*
X017997Y019670D01*
X018785Y019670D01*
X018785Y022426D01*
X017997Y022426D01*
X019769Y022426D02*
X019769Y019670D01*
X020557Y019670D01*
X020557Y022426D01*
X019769Y022426D01*
X021541Y022426D02*
X021541Y019670D01*
X022328Y019670D01*
X022328Y022426D01*
X021541Y022426D01*
X020753Y016520D02*
X019966Y016520D01*
X019966Y013764D01*
X020753Y013764D01*
X020753Y016520D01*
X018785Y016520D02*
X018785Y013764D01*
X017997Y013764D01*
X017997Y016520D01*
X018785Y016520D01*
X016816Y016520D02*
X016816Y013764D01*
X016029Y013764D01*
X016029Y016520D01*
X016816Y016520D01*
X014848Y016520D02*
X014848Y013764D01*
X014060Y013764D01*
X014060Y016520D01*
X014848Y016520D01*
X019375Y010418D02*
X019375Y009630D01*
X022131Y009630D01*
X022131Y010418D01*
X019375Y010418D01*
X008273Y004670D02*
X008273Y003882D01*
X005517Y003882D01*
X005517Y004670D01*
X008273Y004670D01*
D12*
X009800Y001472D02*
X009800Y001102D01*
X010660Y001102D02*
X010660Y001349D01*
X010845Y001349D01*
X010906Y001287D01*
X010906Y001102D01*
X011028Y001164D02*
X011090Y001102D01*
X011213Y001102D01*
X011275Y001164D01*
X011275Y001287D01*
X011213Y001349D01*
X011090Y001349D01*
X011028Y001287D01*
X011028Y001164D01*
X011396Y001225D02*
X011520Y001349D01*
X011581Y001349D01*
X011703Y001349D02*
X011826Y001349D01*
X011765Y001411D02*
X011765Y001164D01*
X011826Y001102D01*
X011949Y001164D02*
X012010Y001102D01*
X012195Y001102D01*
X012195Y001472D01*
X012195Y001349D02*
X012010Y001349D01*
X011949Y001287D01*
X011949Y001164D01*
X012317Y001164D02*
X012317Y001102D01*
X012379Y001102D01*
X012379Y001164D01*
X012317Y001164D01*
X012501Y001164D02*
X012563Y001102D01*
X012748Y001102D01*
X012869Y001164D02*
X012931Y001102D01*
X013054Y001102D01*
X013116Y001164D01*
X013116Y001287D01*
X013054Y001349D01*
X012931Y001349D01*
X012869Y001287D01*
X012869Y001164D01*
X012748Y001349D02*
X012563Y001349D01*
X012501Y001287D01*
X012501Y001164D01*
X013238Y001102D02*
X013238Y001349D01*
X013299Y001349D01*
X013361Y001287D01*
X013423Y001349D01*
X013484Y001287D01*
X013484Y001102D01*
X013361Y001102D02*
X013361Y001287D01*
X011396Y001349D02*
X011396Y001102D01*
X008942Y001102D02*
X008942Y001287D01*
X008880Y001349D01*
X008819Y001287D01*
X008819Y001102D01*
X008695Y001102D02*
X008695Y001349D01*
X008757Y001349D01*
X008819Y001287D01*
X008574Y001287D02*
X008512Y001349D01*
X008389Y001349D01*
X008327Y001287D01*
X008327Y001164D01*
X008389Y001102D01*
X008512Y001102D01*
X008574Y001164D01*
X008574Y001287D01*
X008206Y001349D02*
X008020Y001349D01*
X007959Y001287D01*
X007959Y001164D01*
X008020Y001102D01*
X008206Y001102D01*
X007836Y001102D02*
X007836Y001164D01*
X007775Y001164D01*
X007775Y001102D01*
X007836Y001102D01*
X007653Y001349D02*
X007591Y001349D01*
X007468Y001225D01*
X007468Y001102D02*
X007468Y001349D01*
X007346Y001349D02*
X007346Y001102D01*
X007161Y001102D01*
X007099Y001164D01*
X007099Y001349D01*
X006978Y001287D02*
X006978Y001102D01*
X006793Y001102D01*
X006731Y001164D01*
X006793Y001225D01*
X006978Y001225D01*
X006978Y001287D02*
X006916Y001349D01*
X006793Y001349D01*
X006610Y001349D02*
X006424Y001349D01*
X006363Y001287D01*
X006424Y001225D01*
X006548Y001225D01*
X006610Y001164D01*
X006548Y001102D01*
X006363Y001102D01*
X006241Y001349D02*
X006179Y001349D01*
X006056Y001225D01*
X005934Y001225D02*
X005688Y001225D01*
X005688Y001164D02*
X005688Y001287D01*
X005749Y001349D01*
X005873Y001349D01*
X005934Y001287D01*
X005934Y001225D01*
X005873Y001102D02*
X005749Y001102D01*
X005688Y001164D01*
X005566Y001164D02*
X005504Y001225D01*
X005381Y001225D01*
X005319Y001287D01*
X005381Y001349D01*
X005566Y001349D01*
X005566Y001164D02*
X005504Y001102D01*
X005319Y001102D01*
X005198Y001102D02*
X005013Y001102D01*
X004951Y001164D01*
X005013Y001225D01*
X005198Y001225D01*
X005198Y001287D02*
X005198Y001102D01*
X005198Y001287D02*
X005136Y001349D01*
X005013Y001349D01*
X004767Y001472D02*
X004705Y001472D01*
X004767Y001472D02*
X004767Y001102D01*
X004705Y001102D02*
X004829Y001102D01*
X006056Y001102D02*
X006056Y001349D01*
X005203Y019488D02*
X005080Y019488D01*
X005018Y019549D01*
X005018Y019673D01*
X005080Y019735D01*
X005203Y019735D01*
X005265Y019673D01*
X005265Y019611D01*
X005018Y019611D01*
X004897Y019488D02*
X004897Y019735D01*
X004650Y019735D02*
X004650Y019549D01*
X004712Y019488D01*
X004897Y019488D01*
X004528Y019488D02*
X004404Y019488D01*
X004466Y019488D02*
X004466Y019858D01*
X004404Y019858D01*
X004221Y019735D02*
X004036Y019735D01*
X004036Y019858D02*
X004036Y019488D01*
X004221Y019488D01*
X004283Y019549D01*
X004283Y019673D01*
X004221Y019735D01*
X004405Y020472D02*
X004343Y020534D01*
X004343Y020657D01*
X004405Y020719D01*
X004528Y020719D01*
X004590Y020657D01*
X004590Y020595D01*
X004343Y020595D01*
X004405Y020472D02*
X004528Y020472D01*
X004711Y020534D02*
X004711Y020657D01*
X004773Y020719D01*
X004958Y020719D01*
X004958Y020842D02*
X004958Y020472D01*
X004773Y020472D01*
X004711Y020534D01*
X004221Y020719D02*
X004160Y020719D01*
X004036Y020595D01*
X004036Y020472D02*
X004036Y020719D01*
X004160Y021136D02*
X004221Y021136D01*
X004283Y021198D01*
X004283Y021506D01*
X004098Y021506D01*
X004036Y021445D01*
X004036Y021321D01*
X004098Y021259D01*
X004283Y021259D01*
X004404Y021259D02*
X004404Y021506D01*
X004404Y021383D02*
X004528Y021506D01*
X004590Y021506D01*
X004711Y021445D02*
X004773Y021506D01*
X004896Y021506D01*
X004958Y021445D01*
X004958Y021383D01*
X004711Y021383D01*
X004711Y021321D02*
X004711Y021445D01*
X004711Y021321D02*
X004773Y021259D01*
X004896Y021259D01*
X005080Y021321D02*
X005080Y021445D01*
X005141Y021506D01*
X005265Y021506D01*
X005326Y021445D01*
X005326Y021383D01*
X005080Y021383D01*
X005080Y021321D02*
X005141Y021259D01*
X005265Y021259D01*
X005448Y021259D02*
X005448Y021506D01*
X005633Y021506D01*
X005695Y021445D01*
X005695Y021259D01*
X005572Y022244D02*
X005387Y022367D01*
X005572Y022491D01*
X005387Y022614D02*
X005387Y022244D01*
X005265Y022244D02*
X005080Y022244D01*
X005018Y022305D01*
X005018Y022429D01*
X005080Y022491D01*
X005265Y022491D01*
X004897Y022429D02*
X004897Y022244D01*
X004712Y022244D01*
X004650Y022305D01*
X004712Y022367D01*
X004897Y022367D01*
X004897Y022429D02*
X004835Y022491D01*
X004712Y022491D01*
X004466Y022614D02*
X004466Y022244D01*
X004404Y022244D02*
X004528Y022244D01*
X004283Y022305D02*
X004283Y022429D01*
X004221Y022491D01*
X004036Y022491D01*
X004036Y022614D02*
X004036Y022244D01*
X004221Y022244D01*
X004283Y022305D01*
X004404Y022614D02*
X004466Y022614D01*
X004078Y024667D02*
X004030Y024667D01*
X004078Y024667D02*
X004126Y024715D01*
X004126Y024957D01*
X003981Y024957D01*
X003933Y024908D01*
X003933Y024812D01*
X003981Y024763D01*
X004126Y024763D01*
X004227Y024763D02*
X004227Y024957D01*
X004373Y024957D01*
X004421Y024908D01*
X004421Y024763D01*
X004522Y024812D02*
X004522Y024908D01*
X004570Y024957D01*
X004716Y024957D01*
X004716Y025054D02*
X004716Y024763D01*
X004570Y024763D01*
X004522Y024812D01*
X003832Y024908D02*
X003638Y024908D01*
X003537Y024957D02*
X003392Y024957D01*
X003344Y024908D01*
X003392Y024860D01*
X003489Y024860D01*
X003537Y024812D01*
X003489Y024763D01*
X003344Y024763D01*
X003244Y024763D02*
X003147Y024763D01*
X003195Y024763D02*
X003195Y024957D01*
X003147Y024957D01*
X003046Y024957D02*
X002901Y024957D01*
X002852Y024908D01*
X002852Y024812D01*
X002901Y024763D01*
X003046Y024763D01*
X003046Y025054D01*
X003195Y025054D02*
X003195Y025102D01*
X002751Y024908D02*
X002558Y024908D01*
X002457Y024908D02*
X002457Y024763D01*
X002457Y024908D02*
X002408Y024957D01*
X002263Y024957D01*
X002263Y024763D01*
X002162Y024812D02*
X002162Y024957D01*
X002162Y024812D02*
X002114Y024763D01*
X002065Y024812D01*
X002017Y024763D01*
X001969Y024812D01*
X001969Y024957D01*
X001867Y024908D02*
X001867Y024812D01*
X001819Y024763D01*
X001674Y024763D01*
X001674Y024667D02*
X001674Y024957D01*
X001819Y024957D01*
X001867Y024908D01*
X006280Y024957D02*
X006280Y024763D01*
X006280Y024860D02*
X006377Y024957D01*
X006425Y024957D01*
X006526Y024908D02*
X006574Y024957D01*
X006671Y024957D01*
X006719Y024908D01*
X006719Y024860D01*
X006526Y024860D01*
X006526Y024812D02*
X006526Y024908D01*
X006526Y024812D02*
X006574Y024763D01*
X006671Y024763D01*
X006820Y024763D02*
X006917Y024763D01*
X006869Y024763D02*
X006869Y025054D01*
X006820Y025054D01*
X007017Y024908D02*
X007210Y024908D01*
X007311Y024957D02*
X007408Y024763D01*
X007505Y024957D01*
X007606Y024957D02*
X007606Y024763D01*
X007606Y024860D02*
X007703Y024957D01*
X007751Y024957D01*
X007852Y024908D02*
X007900Y024957D01*
X007997Y024957D01*
X008045Y024908D01*
X008045Y024860D01*
X007852Y024860D01*
X007852Y024812D02*
X007852Y024908D01*
X007852Y024812D02*
X007900Y024763D01*
X007997Y024763D01*
X008146Y024763D02*
X008243Y024763D01*
X008195Y024763D02*
X008195Y025054D01*
X008146Y025054D01*
X008343Y024908D02*
X008536Y024908D01*
X008637Y024908D02*
X008831Y024908D01*
X008932Y024812D02*
X008980Y024763D01*
X009077Y024763D01*
X009125Y024812D01*
X009125Y024860D01*
X009077Y024908D01*
X009029Y024908D01*
X009077Y024908D02*
X009125Y024957D01*
X009125Y025005D01*
X009077Y025054D01*
X008980Y025054D01*
X008932Y025005D01*
X008831Y025054D02*
X008831Y024763D01*
X008637Y024763D02*
X008637Y025054D01*
X009227Y024908D02*
X009420Y024908D01*
X009521Y024908D02*
X009715Y024908D01*
X009816Y024957D02*
X009913Y025054D01*
X009913Y024763D01*
X010009Y024763D02*
X009816Y024763D01*
X009715Y024763D02*
X009715Y025054D01*
X009521Y025054D02*
X009521Y024763D01*
X010453Y024763D02*
X010453Y024957D01*
X010453Y024860D02*
X010550Y024957D01*
X010599Y024957D01*
X010699Y024908D02*
X010747Y024957D01*
X010844Y024957D01*
X010892Y024908D01*
X010892Y024860D01*
X010699Y024860D01*
X010699Y024812D02*
X010699Y024908D01*
X010699Y024812D02*
X010747Y024763D01*
X010844Y024763D01*
X010994Y024812D02*
X010994Y024908D01*
X011042Y024957D01*
X011187Y024957D01*
X011187Y025054D02*
X011187Y024763D01*
X011042Y024763D01*
X010994Y024812D01*
X011288Y024908D02*
X011482Y024908D01*
X011583Y024957D02*
X011728Y024957D01*
X011776Y024908D01*
X011776Y024812D01*
X011728Y024763D01*
X011583Y024763D01*
X011583Y025054D01*
X011878Y025054D02*
X011926Y025054D01*
X011926Y024763D01*
X011878Y024763D02*
X011974Y024763D01*
X012074Y024763D02*
X012074Y025054D01*
X012219Y024957D02*
X012074Y024860D01*
X012219Y024763D01*
X012319Y024908D02*
X012513Y024908D01*
X012614Y024957D02*
X012614Y024812D01*
X012662Y024763D01*
X012711Y024812D01*
X012759Y024763D01*
X012808Y024812D01*
X012808Y024957D01*
X012909Y024908D02*
X012957Y024957D01*
X013054Y024957D01*
X013102Y024908D01*
X013102Y024763D01*
X013252Y024812D02*
X013252Y025005D01*
X013300Y024957D02*
X013203Y024957D01*
X013252Y024812D02*
X013300Y024763D01*
X013400Y024908D02*
X013593Y024908D01*
X013694Y024908D02*
X013694Y024812D01*
X013743Y024763D01*
X013888Y024763D01*
X013888Y024715D02*
X013888Y024957D01*
X013743Y024957D01*
X013694Y024908D01*
X013791Y024667D02*
X013840Y024667D01*
X013888Y024715D01*
X013989Y024763D02*
X013989Y024957D01*
X014086Y024957D02*
X014134Y024957D01*
X014086Y024957D02*
X013989Y024860D01*
X014235Y024763D02*
X014235Y024957D01*
X014380Y024957D01*
X014428Y024908D01*
X014428Y024763D01*
X014784Y024763D02*
X014784Y024957D01*
X014784Y024860D02*
X014881Y024957D01*
X014929Y024957D01*
X015030Y024908D02*
X015078Y024957D01*
X015175Y024957D01*
X015223Y024908D01*
X015223Y024860D01*
X015030Y024860D01*
X015030Y024812D02*
X015030Y024908D01*
X015030Y024812D02*
X015078Y024763D01*
X015175Y024763D01*
X015324Y024812D02*
X015324Y024908D01*
X015373Y024957D01*
X015518Y024957D01*
X015518Y025054D02*
X015518Y024763D01*
X015373Y024763D01*
X015324Y024812D01*
X015619Y024908D02*
X015812Y024908D01*
X015914Y024957D02*
X016059Y024957D01*
X016107Y024908D01*
X016107Y024812D01*
X016059Y024763D01*
X015914Y024763D01*
X015914Y025054D01*
X016208Y025054D02*
X016257Y025054D01*
X016257Y024763D01*
X016305Y024763D02*
X016208Y024763D01*
X016405Y024763D02*
X016405Y025054D01*
X016550Y024957D02*
X016405Y024860D01*
X016550Y024763D01*
X016650Y024908D02*
X016844Y024908D01*
X016945Y024957D02*
X016945Y024812D01*
X016993Y024763D01*
X017042Y024812D01*
X017090Y024763D01*
X017138Y024812D01*
X017138Y024957D01*
X017239Y024908D02*
X017288Y024957D01*
X017385Y024957D01*
X017433Y024908D01*
X017433Y024763D01*
X017582Y024812D02*
X017582Y025005D01*
X017534Y024957D02*
X017631Y024957D01*
X017731Y024908D02*
X017924Y024908D01*
X018025Y024908D02*
X018025Y024812D01*
X018074Y024763D01*
X018219Y024763D01*
X018219Y024715D02*
X018219Y024957D01*
X018074Y024957D01*
X018025Y024908D01*
X018122Y024667D02*
X018170Y024667D01*
X018219Y024715D01*
X018320Y024763D02*
X018320Y024957D01*
X018417Y024957D02*
X018465Y024957D01*
X018417Y024957D02*
X018320Y024860D01*
X018565Y024763D02*
X018565Y024957D01*
X018710Y024957D01*
X018759Y024908D01*
X018759Y024763D01*
X019115Y024763D02*
X019115Y024957D01*
X019115Y024860D02*
X019212Y024957D01*
X019260Y024957D01*
X019360Y024908D02*
X019409Y024957D01*
X019505Y024957D01*
X019554Y024908D01*
X019554Y024860D01*
X019360Y024860D01*
X019360Y024812D02*
X019360Y024908D01*
X019360Y024812D02*
X019409Y024763D01*
X019505Y024763D01*
X019655Y024812D02*
X019655Y024908D01*
X019703Y024957D01*
X019848Y024957D01*
X019848Y025054D02*
X019848Y024763D01*
X019703Y024763D01*
X019655Y024812D01*
X019950Y024908D02*
X020143Y024908D01*
X020244Y024957D02*
X020389Y024957D01*
X020438Y024908D01*
X020438Y024812D01*
X020389Y024763D01*
X020244Y024763D01*
X020244Y025054D01*
X020539Y025054D02*
X020587Y025054D01*
X020587Y024763D01*
X020539Y024763D02*
X020636Y024763D01*
X020735Y024763D02*
X020735Y025054D01*
X020880Y024957D02*
X020735Y024860D01*
X020880Y024763D01*
X020981Y024908D02*
X021174Y024908D01*
X021276Y024957D02*
X021276Y024812D01*
X021324Y024763D01*
X021372Y024812D01*
X021421Y024763D01*
X021469Y024812D01*
X021469Y024957D01*
X021570Y024908D02*
X021619Y024957D01*
X021715Y024957D01*
X021764Y024908D01*
X021764Y024763D01*
X021913Y024812D02*
X021913Y025005D01*
X021865Y024957D02*
X021962Y024957D01*
X022061Y024908D02*
X022255Y024908D01*
X022356Y024908D02*
X022356Y024812D01*
X022404Y024763D01*
X022549Y024763D01*
X022549Y024715D02*
X022549Y024957D01*
X022404Y024957D01*
X022356Y024908D01*
X022453Y024667D02*
X022501Y024667D01*
X022549Y024715D01*
X022651Y024763D02*
X022651Y024957D01*
X022747Y024957D02*
X022796Y024957D01*
X022747Y024957D02*
X022651Y024860D01*
X022896Y024763D02*
X022896Y024957D01*
X023041Y024957D01*
X023089Y024908D01*
X023089Y024763D01*
X023524Y024763D02*
X023524Y024957D01*
X023524Y024860D02*
X023621Y024957D01*
X023669Y024957D01*
X023770Y024908D02*
X023818Y024957D01*
X023915Y024957D01*
X023963Y024908D01*
X023963Y024860D01*
X023770Y024860D01*
X023770Y024812D02*
X023770Y024908D01*
X023770Y024812D02*
X023818Y024763D01*
X023915Y024763D01*
X024064Y024812D02*
X024064Y024908D01*
X024113Y024957D01*
X024258Y024957D01*
X024258Y025054D02*
X024258Y024763D01*
X024113Y024763D01*
X024064Y024812D01*
X024359Y024908D02*
X024553Y024908D01*
X024654Y024957D02*
X024799Y024957D01*
X024847Y024908D01*
X024847Y024812D01*
X024799Y024763D01*
X024654Y024763D01*
X024654Y025054D01*
X024948Y025054D02*
X024997Y025054D01*
X024997Y024763D01*
X025045Y024763D02*
X024948Y024763D01*
X025145Y024763D02*
X025145Y025054D01*
X025290Y024957D02*
X025145Y024860D01*
X025290Y024763D01*
X025390Y024908D02*
X025584Y024908D01*
X025685Y024957D02*
X025685Y024812D01*
X025733Y024763D01*
X025782Y024812D01*
X025830Y024763D01*
X025878Y024812D01*
X025878Y024957D01*
X025980Y024908D02*
X026028Y024957D01*
X026125Y024957D01*
X026173Y024908D01*
X026173Y024763D01*
X026323Y024812D02*
X026323Y025005D01*
X026371Y024957D02*
X026274Y024957D01*
X026323Y024812D02*
X026371Y024763D01*
X026471Y024908D02*
X026664Y024908D01*
X026765Y024908D02*
X026765Y024812D01*
X026814Y024763D01*
X026959Y024763D01*
X026959Y024715D02*
X026959Y024957D01*
X026814Y024957D01*
X026765Y024908D01*
X026862Y024667D02*
X026910Y024667D01*
X026959Y024715D01*
X027060Y024763D02*
X027060Y024957D01*
X027157Y024957D02*
X027205Y024957D01*
X027157Y024957D02*
X027060Y024860D01*
X027305Y024763D02*
X027305Y024957D01*
X027451Y024957D01*
X027499Y024908D01*
X027499Y024763D01*
X027855Y024842D02*
X027855Y025036D01*
X027855Y024939D02*
X027952Y025036D01*
X028000Y025036D01*
X028101Y024987D02*
X028149Y025036D01*
X028246Y025036D01*
X028294Y024987D01*
X028294Y024939D01*
X028101Y024939D01*
X028101Y024987D02*
X028101Y024890D01*
X028149Y024842D01*
X028246Y024842D01*
X028395Y024890D02*
X028395Y024987D01*
X028444Y025036D01*
X028589Y025036D01*
X028589Y025132D02*
X028589Y024842D01*
X028444Y024842D01*
X028395Y024890D01*
X028690Y024987D02*
X028883Y024987D01*
X028984Y025036D02*
X029130Y025036D01*
X029178Y024987D01*
X029178Y024890D01*
X029130Y024842D01*
X028984Y024842D01*
X028984Y025132D01*
X029279Y025132D02*
X029327Y025132D01*
X029327Y024842D01*
X029279Y024842D02*
X029376Y024842D01*
X029476Y024842D02*
X029476Y025132D01*
X029621Y025036D02*
X029476Y024939D01*
X029621Y024842D01*
X029721Y024987D02*
X029914Y024987D01*
X030016Y025036D02*
X030016Y024890D01*
X030064Y024842D01*
X030112Y024890D01*
X030161Y024842D01*
X030209Y024890D01*
X030209Y025036D01*
X030310Y024987D02*
X030359Y025036D01*
X030455Y025036D01*
X030504Y024987D01*
X030504Y024842D01*
X030653Y024890D02*
X030702Y024842D01*
X030653Y024890D02*
X030653Y025084D01*
X030605Y025036D02*
X030702Y025036D01*
X030801Y024987D02*
X030995Y024987D01*
X031096Y024987D02*
X031096Y024890D01*
X031144Y024842D01*
X031289Y024842D01*
X031289Y024794D02*
X031289Y025036D01*
X031144Y025036D01*
X031096Y024987D01*
X031193Y024745D02*
X031241Y024745D01*
X031289Y024794D01*
X031391Y024842D02*
X031391Y025036D01*
X031487Y025036D02*
X031536Y025036D01*
X031487Y025036D02*
X031391Y024939D01*
X031636Y024842D02*
X031636Y025036D01*
X031781Y025036D01*
X031830Y024987D01*
X031830Y024842D01*
X030310Y024842D02*
X030310Y025132D01*
X029402Y022417D02*
X029402Y022047D01*
X029281Y022047D02*
X029096Y022047D01*
X029034Y022109D01*
X029034Y022232D01*
X029096Y022294D01*
X029281Y022294D01*
X029402Y022170D02*
X029587Y022294D01*
X029402Y022170D02*
X029587Y022047D01*
X029587Y021531D02*
X029587Y021161D01*
X029463Y021284D01*
X029340Y021161D01*
X029340Y021531D01*
X029157Y021408D02*
X029218Y021346D01*
X029218Y021161D01*
X028972Y021161D02*
X028972Y021408D01*
X029157Y021408D01*
X028850Y021346D02*
X028850Y021284D01*
X028603Y021284D01*
X028603Y021223D02*
X028603Y021346D01*
X028665Y021408D01*
X028788Y021408D01*
X028850Y021346D01*
X028788Y021161D02*
X028665Y021161D01*
X028603Y021223D01*
X028482Y021284D02*
X028235Y021284D01*
X028235Y021223D02*
X028235Y021346D01*
X028297Y021408D01*
X028420Y021408D01*
X028482Y021346D01*
X028482Y021284D01*
X028420Y021161D02*
X028297Y021161D01*
X028235Y021223D01*
X028113Y021408D02*
X028051Y021408D01*
X027928Y021284D01*
X027928Y021161D02*
X027928Y021408D01*
X027807Y021408D02*
X027807Y021099D01*
X027745Y021038D01*
X027683Y021038D01*
X027621Y021161D02*
X027807Y021161D01*
X027621Y021161D02*
X027560Y021223D01*
X027560Y021346D01*
X027621Y021408D01*
X027807Y021408D01*
X028052Y022047D02*
X028237Y022047D01*
X028299Y022109D01*
X028299Y022232D01*
X028237Y022294D01*
X028052Y022294D01*
X028052Y022417D02*
X028052Y022047D01*
X028420Y022047D02*
X028544Y022047D01*
X028482Y022047D02*
X028482Y022417D01*
X028420Y022417D01*
X028727Y022294D02*
X028851Y022294D01*
X028913Y022232D01*
X028913Y022047D01*
X028727Y022047D01*
X028666Y022109D01*
X028727Y022170D01*
X028913Y022170D01*
X029564Y020449D02*
X029564Y020078D01*
X029379Y020078D01*
X029318Y020140D01*
X029318Y020263D01*
X029379Y020325D01*
X029564Y020325D01*
X029196Y020263D02*
X029196Y020202D01*
X028949Y020202D01*
X028949Y020263D02*
X029011Y020325D01*
X029134Y020325D01*
X029196Y020263D01*
X029134Y020078D02*
X029011Y020078D01*
X028949Y020140D01*
X028949Y020263D01*
X028828Y020325D02*
X028766Y020325D01*
X028642Y020202D01*
X028642Y020325D02*
X028642Y020078D01*
X028482Y019464D02*
X028482Y019094D01*
X028420Y019094D02*
X028544Y019094D01*
X028666Y019156D02*
X028666Y019341D01*
X028666Y019156D02*
X028727Y019094D01*
X028913Y019094D01*
X028913Y019341D01*
X029034Y019279D02*
X029034Y019156D01*
X029096Y019094D01*
X029219Y019094D01*
X029281Y019217D02*
X029034Y019217D01*
X029034Y019279D02*
X029096Y019341D01*
X029219Y019341D01*
X029281Y019279D01*
X029281Y019217D01*
X029402Y019094D02*
X029526Y019217D01*
X029649Y019094D01*
X029649Y019464D01*
X029402Y019464D02*
X029402Y019094D01*
X028482Y019464D02*
X028420Y019464D01*
X028237Y019341D02*
X028299Y019279D01*
X028299Y019156D01*
X028237Y019094D01*
X028052Y019094D01*
X028052Y019464D01*
X028052Y019341D02*
X028237Y019341D01*
X025980Y024763D02*
X025980Y025054D01*
X021962Y024763D02*
X021913Y024812D01*
X021570Y024763D02*
X021570Y025054D01*
X017631Y024763D02*
X017582Y024812D01*
X017239Y024763D02*
X017239Y025054D01*
X012909Y025054D02*
X012909Y024763D01*
D13*
X013002Y024445D02*
X012772Y024445D01*
X012772Y023985D01*
X012772Y024138D02*
X013002Y024138D01*
X013079Y024215D01*
X013079Y024369D01*
X013002Y024445D01*
X013233Y024445D02*
X013386Y024445D01*
X013309Y024522D02*
X013309Y024215D01*
X013386Y024138D01*
X013540Y024215D02*
X013540Y024369D01*
X013616Y024445D01*
X013770Y024445D01*
X013846Y024369D01*
X013846Y024215D01*
X013770Y024138D01*
X013616Y024138D01*
X013540Y024215D01*
X012619Y024215D02*
X012619Y024369D01*
X012542Y024445D01*
X012389Y024445D01*
X012312Y024369D01*
X012312Y024215D01*
X012389Y024138D01*
X012542Y024138D01*
X012619Y024215D01*
X012158Y024369D02*
X011852Y024369D01*
X011698Y024138D02*
X011391Y024138D01*
X011238Y024138D02*
X010931Y024445D01*
X010931Y024138D02*
X011238Y024445D01*
X011391Y024445D02*
X011545Y024599D01*
X011545Y024138D01*
X013027Y023024D02*
X013027Y022564D01*
X012796Y022564D01*
X012720Y022640D01*
X012720Y022794D01*
X012796Y022871D01*
X013027Y022871D01*
X012566Y022871D02*
X012490Y022871D01*
X012336Y022717D01*
X012336Y022564D02*
X012336Y022871D01*
X012183Y022871D02*
X011952Y022871D01*
X011876Y022794D01*
X011876Y022640D01*
X011952Y022564D01*
X012183Y022564D01*
X012183Y022487D02*
X012183Y022871D01*
X012183Y022487D02*
X012106Y022410D01*
X012029Y022410D01*
X012027Y022000D02*
X012104Y021924D01*
X012104Y021847D01*
X012027Y021770D01*
X012104Y021693D01*
X012104Y021617D01*
X012027Y021540D01*
X011874Y021540D01*
X011797Y021617D01*
X011950Y021770D02*
X012027Y021770D01*
X012027Y022000D02*
X011874Y022000D01*
X011797Y021924D01*
X012257Y021617D02*
X012334Y021617D01*
X012334Y021540D01*
X012257Y021540D01*
X012257Y021617D01*
X012488Y021617D02*
X012564Y021540D01*
X012718Y021540D01*
X012794Y021617D01*
X012794Y021693D01*
X012718Y021770D01*
X012641Y021770D01*
X012718Y021770D02*
X012794Y021847D01*
X012794Y021924D01*
X012718Y022000D01*
X012564Y022000D01*
X012488Y021924D01*
X012948Y022000D02*
X012948Y021693D01*
X013101Y021540D01*
X013255Y021693D01*
X013255Y022000D01*
X014171Y021628D02*
X014171Y021474D01*
X014247Y021398D01*
X014554Y021398D01*
X014247Y021705D01*
X014554Y021705D01*
X014631Y021628D01*
X014631Y021474D01*
X014554Y021398D01*
X014554Y021244D02*
X014631Y021168D01*
X014631Y021014D01*
X014554Y020937D01*
X014247Y021244D01*
X014554Y021244D01*
X014247Y021244D02*
X014171Y021168D01*
X014171Y021014D01*
X014247Y020937D01*
X014554Y020937D01*
X014631Y020784D02*
X014631Y020477D01*
X014631Y020630D02*
X014171Y020630D01*
X014324Y020477D01*
X014171Y021628D02*
X014247Y021705D01*
X016139Y021628D02*
X016139Y021474D01*
X016216Y021398D01*
X016523Y021398D01*
X016216Y021705D01*
X016523Y021705D01*
X016600Y021628D01*
X016600Y021474D01*
X016523Y021398D01*
X016523Y021244D02*
X016600Y021168D01*
X016600Y021014D01*
X016523Y020937D01*
X016216Y021244D01*
X016523Y021244D01*
X016216Y021244D02*
X016139Y021168D01*
X016139Y021014D01*
X016216Y020937D01*
X016523Y020937D01*
X016600Y020784D02*
X016600Y020477D01*
X016600Y020630D02*
X016139Y020630D01*
X016293Y020477D01*
X016139Y021628D02*
X016216Y021705D01*
X018108Y021628D02*
X018108Y021474D01*
X018184Y021398D01*
X018491Y021398D01*
X018184Y021705D01*
X018491Y021705D01*
X018568Y021628D01*
X018568Y021474D01*
X018491Y021398D01*
X018491Y021244D02*
X018568Y021168D01*
X018568Y021014D01*
X018491Y020937D01*
X018184Y021244D01*
X018491Y021244D01*
X018184Y021244D02*
X018108Y021168D01*
X018108Y021014D01*
X018184Y020937D01*
X018491Y020937D01*
X018568Y020784D02*
X018568Y020477D01*
X018568Y020630D02*
X018108Y020630D01*
X018261Y020477D01*
X018108Y021628D02*
X018184Y021705D01*
X019879Y021628D02*
X019879Y021474D01*
X019956Y021398D01*
X020263Y021398D01*
X019956Y021705D01*
X020263Y021705D01*
X020340Y021628D01*
X020340Y021474D01*
X020263Y021398D01*
X020263Y021244D02*
X020340Y021168D01*
X020340Y021014D01*
X020263Y020937D01*
X019956Y021244D01*
X020263Y021244D01*
X019956Y021244D02*
X019879Y021168D01*
X019879Y021014D01*
X019956Y020937D01*
X020263Y020937D01*
X020340Y020784D02*
X020340Y020477D01*
X020340Y020630D02*
X019879Y020630D01*
X020033Y020477D01*
X019879Y021628D02*
X019956Y021705D01*
X021651Y021628D02*
X021651Y021474D01*
X021728Y021398D01*
X022035Y021398D01*
X021728Y021705D01*
X022035Y021705D01*
X022111Y021628D01*
X022111Y021474D01*
X022035Y021398D01*
X022035Y021244D02*
X022111Y021168D01*
X022111Y021014D01*
X022035Y020937D01*
X021728Y021244D01*
X022035Y021244D01*
X021728Y021244D02*
X021651Y021168D01*
X021651Y021014D01*
X021728Y020937D01*
X022035Y020937D01*
X022111Y020784D02*
X022111Y020477D01*
X022111Y020630D02*
X021651Y020630D01*
X021804Y020477D01*
X021651Y021628D02*
X021728Y021705D01*
X021434Y023985D02*
X021434Y024445D01*
X021664Y024445D01*
X021741Y024369D01*
X021741Y024215D01*
X021664Y024138D01*
X021434Y024138D01*
X021280Y024215D02*
X021280Y024369D01*
X021204Y024445D01*
X021050Y024445D01*
X020973Y024369D01*
X020973Y024215D01*
X021050Y024138D01*
X021204Y024138D01*
X021280Y024215D01*
X020820Y024369D02*
X020513Y024369D01*
X020360Y024138D02*
X020053Y024138D01*
X020206Y024138D02*
X020206Y024599D01*
X020053Y024445D01*
X019899Y024445D02*
X019899Y024062D01*
X019822Y023985D01*
X019746Y023985D01*
X019669Y024138D02*
X019899Y024138D01*
X019669Y024138D02*
X019592Y024215D01*
X019592Y024445D01*
X018177Y024369D02*
X018177Y024215D01*
X018100Y024138D01*
X017947Y024138D01*
X017870Y024215D01*
X017870Y024369D01*
X017947Y024445D01*
X018100Y024445D01*
X018177Y024369D01*
X017717Y024445D02*
X017563Y024445D01*
X017640Y024522D02*
X017640Y024215D01*
X017717Y024138D01*
X017410Y024215D02*
X017410Y024369D01*
X017333Y024445D01*
X017103Y024445D01*
X017103Y023985D01*
X017103Y024138D02*
X017333Y024138D01*
X017410Y024215D01*
X016950Y024215D02*
X016950Y024369D01*
X016873Y024445D01*
X016719Y024445D01*
X016643Y024369D01*
X016643Y024215D01*
X016719Y024138D01*
X016873Y024138D01*
X016950Y024215D01*
X016489Y024369D02*
X016182Y024369D01*
X016029Y024445D02*
X016029Y024522D01*
X015952Y024599D01*
X015799Y024599D01*
X015722Y024522D01*
X015568Y024445D02*
X015262Y024138D01*
X015568Y024138D02*
X015262Y024445D01*
X015722Y024138D02*
X016029Y024445D01*
X016029Y024138D02*
X015722Y024138D01*
X011913Y021018D02*
X011913Y020711D01*
X011990Y020634D01*
X012143Y020634D02*
X012450Y020941D01*
X012143Y020941D02*
X012450Y020634D01*
X011990Y020941D02*
X011836Y020941D01*
X011994Y019996D02*
X011994Y019690D01*
X011994Y019843D02*
X012147Y019996D01*
X012224Y019996D01*
X012377Y019996D02*
X012684Y019690D01*
X012684Y019996D02*
X012377Y019690D01*
X014171Y015799D02*
X014478Y015492D01*
X014401Y015569D02*
X014631Y015799D01*
X014631Y015492D02*
X014171Y015492D01*
X014247Y015339D02*
X014554Y015032D01*
X014631Y015109D01*
X014631Y015262D01*
X014554Y015339D01*
X014247Y015339D01*
X014171Y015262D01*
X014171Y015109D01*
X014247Y015032D01*
X014554Y015032D01*
X014631Y014878D02*
X014631Y014571D01*
X014631Y014725D02*
X014171Y014725D01*
X014324Y014571D01*
X016139Y014725D02*
X016600Y014725D01*
X016600Y014878D02*
X016600Y014571D01*
X016293Y014571D02*
X016139Y014725D01*
X016216Y015032D02*
X016139Y015109D01*
X016139Y015262D01*
X016216Y015339D01*
X016523Y015032D01*
X016600Y015109D01*
X016600Y015262D01*
X016523Y015339D01*
X016216Y015339D01*
X016139Y015492D02*
X016600Y015492D01*
X016446Y015492D02*
X016139Y015799D01*
X016369Y015569D02*
X016600Y015799D01*
X016523Y015032D02*
X016216Y015032D01*
X018108Y015109D02*
X018108Y015262D01*
X018184Y015339D01*
X018491Y015032D01*
X018568Y015109D01*
X018568Y015262D01*
X018491Y015339D01*
X018184Y015339D01*
X018108Y015492D02*
X018568Y015492D01*
X018415Y015492D02*
X018108Y015799D01*
X018338Y015569D02*
X018568Y015799D01*
X018108Y015109D02*
X018184Y015032D01*
X018491Y015032D01*
X018568Y014878D02*
X018568Y014571D01*
X018568Y014725D02*
X018108Y014725D01*
X018261Y014571D01*
X020076Y014725D02*
X020537Y014725D01*
X020537Y014878D02*
X020537Y014571D01*
X020230Y014571D02*
X020076Y014725D01*
X020153Y015032D02*
X020076Y015109D01*
X020076Y015262D01*
X020153Y015339D01*
X020460Y015032D01*
X020537Y015109D01*
X020537Y015262D01*
X020460Y015339D01*
X020153Y015339D01*
X020076Y015492D02*
X020537Y015492D01*
X020383Y015492D02*
X020076Y015799D01*
X020306Y015569D02*
X020537Y015799D01*
X020460Y015032D02*
X020153Y015032D01*
X020216Y010307D02*
X020063Y010307D01*
X019986Y010231D01*
X020216Y010307D02*
X020293Y010231D01*
X020293Y010154D01*
X019986Y009847D01*
X020293Y009847D01*
X020446Y009847D02*
X020523Y009847D01*
X020523Y009924D01*
X020446Y009924D01*
X020446Y009847D01*
X020676Y009847D02*
X020983Y009847D01*
X020830Y009847D02*
X020830Y010307D01*
X020676Y010154D01*
X021137Y010307D02*
X021137Y009847D01*
X021137Y010001D02*
X021444Y010307D01*
X021214Y010077D02*
X021444Y009847D01*
X022395Y008872D02*
X022395Y008795D01*
X022548Y008642D01*
X022395Y008642D02*
X022702Y008642D01*
X022548Y008489D02*
X022548Y008182D01*
X022472Y008182D02*
X022625Y008182D01*
X022702Y008258D01*
X022702Y008412D01*
X022548Y008489D02*
X022472Y008489D01*
X022395Y008412D01*
X022395Y008258D01*
X022472Y008182D01*
X022395Y008028D02*
X022702Y007875D01*
X022395Y007721D01*
X022395Y007491D02*
X022702Y007491D01*
X022702Y007414D02*
X022702Y007568D01*
X022395Y007491D02*
X022395Y007414D01*
X022395Y007261D02*
X022395Y007184D01*
X022548Y007031D01*
X022395Y007031D02*
X022702Y007031D01*
X022702Y006877D02*
X022242Y006877D01*
X022395Y006877D02*
X022395Y006647D01*
X022472Y006570D01*
X022625Y006570D01*
X022702Y006647D01*
X022702Y006877D01*
X022242Y007491D02*
X022165Y007491D01*
X022242Y005957D02*
X022702Y005957D01*
X022702Y005726D01*
X022625Y005650D01*
X022472Y005650D01*
X022395Y005726D01*
X022395Y005957D01*
X022472Y005496D02*
X022702Y005496D01*
X022472Y005496D02*
X022395Y005419D01*
X022395Y005189D01*
X022702Y005189D01*
X022702Y005036D02*
X022702Y004806D01*
X022625Y004729D01*
X022472Y004729D01*
X022395Y004806D01*
X022395Y005036D01*
X022779Y005036D01*
X022855Y004959D01*
X022855Y004882D01*
X024210Y004926D02*
X024517Y004926D01*
X024670Y005079D01*
X024517Y005233D01*
X024210Y005233D01*
X024364Y005386D02*
X024364Y005463D01*
X024670Y005463D01*
X024670Y005386D02*
X024670Y005540D01*
X024670Y005693D02*
X024364Y005693D01*
X024364Y005923D01*
X024440Y006000D01*
X024670Y006000D01*
X024594Y006614D02*
X024440Y006614D01*
X024364Y006690D01*
X024364Y006921D01*
X024364Y007074D02*
X024670Y007074D01*
X024517Y007074D02*
X024364Y007228D01*
X024364Y007304D01*
X024364Y007458D02*
X024364Y007534D01*
X024670Y007534D01*
X024670Y007458D02*
X024670Y007611D01*
X024670Y007918D02*
X024364Y008072D01*
X024440Y008225D02*
X024364Y008302D01*
X024364Y008455D01*
X024440Y008532D01*
X024517Y008532D01*
X024517Y008225D01*
X024594Y008225D02*
X024440Y008225D01*
X024594Y008225D02*
X024670Y008302D01*
X024670Y008455D01*
X024670Y008685D02*
X024364Y008685D01*
X024517Y008685D02*
X024364Y008839D01*
X024364Y008916D01*
X024670Y007918D02*
X024364Y007765D01*
X024210Y007534D02*
X024133Y007534D01*
X024210Y006921D02*
X024670Y006921D01*
X024670Y006690D01*
X024594Y006614D01*
X024210Y005463D02*
X024133Y005463D01*
X013883Y005871D02*
X013423Y005871D01*
X013576Y006024D01*
X013423Y006178D01*
X013883Y006178D01*
X013806Y006331D02*
X013883Y006408D01*
X013883Y006561D01*
X013806Y006638D01*
X013806Y006791D02*
X013883Y006791D01*
X013806Y006791D02*
X013499Y007098D01*
X013423Y007098D01*
X013423Y006791D01*
X013499Y006638D02*
X013423Y006561D01*
X013423Y006408D01*
X013499Y006331D01*
X013806Y006331D01*
X013653Y007252D02*
X013653Y007559D01*
X013653Y007712D02*
X013653Y008019D01*
X013576Y008019D02*
X013883Y008019D01*
X013806Y008172D02*
X013499Y008172D01*
X013423Y008249D01*
X013423Y008403D01*
X013499Y008479D01*
X013499Y008633D02*
X013423Y008710D01*
X013423Y008863D01*
X013499Y008940D01*
X013576Y008940D01*
X013883Y008633D01*
X013883Y008940D01*
X013806Y009093D02*
X013499Y009400D01*
X013806Y009400D01*
X013883Y009323D01*
X013883Y009170D01*
X013806Y009093D01*
X013499Y009093D01*
X013423Y009170D01*
X013423Y009323D01*
X013499Y009400D01*
X013806Y008479D02*
X013883Y008403D01*
X013883Y008249D01*
X013806Y008172D01*
X013576Y008019D02*
X013423Y007866D01*
X013576Y007712D01*
X013883Y007712D01*
X013883Y007482D02*
X013423Y007482D01*
X013653Y007252D01*
X013564Y002533D02*
X013391Y002533D01*
X013304Y002446D01*
X013304Y002099D01*
X013651Y002446D01*
X013651Y002099D01*
X013564Y002012D01*
X013391Y002012D01*
X013304Y002099D01*
X013135Y002012D02*
X012789Y002012D01*
X012617Y002012D02*
X012531Y002012D01*
X012531Y002099D01*
X012617Y002099D01*
X012617Y002012D01*
X012362Y002012D02*
X012015Y002012D01*
X011846Y002012D02*
X011499Y002012D01*
X011673Y002012D02*
X011673Y002533D01*
X011499Y002359D01*
X011331Y002359D02*
X011157Y002012D01*
X010984Y002359D01*
X010300Y002359D02*
X010039Y002359D01*
X009953Y002273D01*
X009953Y002099D01*
X010039Y002012D01*
X010300Y002012D01*
X010300Y002533D01*
X009696Y002533D02*
X009696Y002012D01*
X009782Y002012D02*
X009609Y002012D01*
X009440Y002186D02*
X009093Y002186D01*
X009093Y002099D02*
X009093Y002273D01*
X009180Y002359D01*
X009353Y002359D01*
X009440Y002273D01*
X009440Y002186D01*
X009353Y002012D02*
X009180Y002012D01*
X009093Y002099D01*
X008923Y002012D02*
X008749Y002012D01*
X008836Y002012D02*
X008836Y002359D01*
X008749Y002359D01*
X008581Y002273D02*
X008581Y002012D01*
X008581Y002273D02*
X008494Y002359D01*
X008321Y002359D01*
X008234Y002273D01*
X008065Y002186D02*
X008065Y002099D01*
X007978Y002012D01*
X007805Y002012D01*
X007718Y002099D01*
X007805Y002273D02*
X007718Y002359D01*
X007718Y002446D01*
X007805Y002533D01*
X007978Y002533D01*
X008065Y002446D01*
X008234Y002533D02*
X008234Y002012D01*
X008065Y002186D02*
X007978Y002273D01*
X007805Y002273D01*
X007549Y002359D02*
X007462Y002359D01*
X007289Y002186D01*
X007289Y002359D02*
X007289Y002012D01*
X007120Y002012D02*
X007120Y002359D01*
X007120Y002012D02*
X006860Y002012D01*
X006773Y002099D01*
X006773Y002359D01*
X006604Y002273D02*
X006604Y002012D01*
X006344Y002012D01*
X006257Y002099D01*
X006344Y002186D01*
X006604Y002186D01*
X006604Y002273D02*
X006517Y002359D01*
X006344Y002359D01*
X006089Y002359D02*
X005828Y002359D01*
X005742Y002273D01*
X005828Y002186D01*
X006002Y002186D01*
X006089Y002099D01*
X006002Y002012D01*
X005742Y002012D01*
X005573Y002012D02*
X005573Y002273D01*
X005486Y002359D01*
X005313Y002359D01*
X005313Y002186D02*
X005573Y002186D01*
X005573Y002012D02*
X005313Y002012D01*
X005226Y002099D01*
X005313Y002186D01*
X005057Y002012D02*
X004710Y002012D01*
X004710Y002533D01*
X006128Y004099D02*
X006435Y004099D01*
X006588Y004099D02*
X006665Y004099D01*
X006665Y004176D01*
X006588Y004176D01*
X006588Y004099D01*
X006818Y004176D02*
X006895Y004099D01*
X007048Y004099D01*
X007125Y004176D01*
X007125Y004329D01*
X007048Y004406D01*
X006972Y004406D01*
X006818Y004329D01*
X006818Y004559D01*
X007125Y004559D01*
X007279Y004559D02*
X007279Y004099D01*
X007279Y004252D02*
X007585Y004559D01*
X007355Y004329D02*
X007585Y004099D01*
X006281Y004099D02*
X006281Y004559D01*
X006128Y004406D01*
X008836Y002620D02*
X008836Y002533D01*
X009609Y002533D02*
X009696Y002533D01*
X012015Y002359D02*
X012189Y002533D01*
X012189Y002012D01*
X012789Y002359D02*
X012962Y002533D01*
X012962Y002012D01*
X013564Y002533D02*
X013651Y002446D01*
X011174Y012800D02*
X011174Y013260D01*
X011404Y013260D01*
X011481Y013183D01*
X011481Y013030D01*
X011404Y012953D01*
X011174Y012953D01*
X011021Y012953D02*
X011021Y012877D01*
X010944Y012800D01*
X010791Y012800D01*
X010714Y012877D01*
X010560Y012877D02*
X010484Y012800D01*
X010330Y012800D01*
X010254Y012877D01*
X010254Y013183D01*
X010330Y013260D01*
X010484Y013260D01*
X010560Y013183D01*
X010714Y013183D02*
X010714Y013107D01*
X010791Y013030D01*
X010944Y013030D01*
X011021Y012953D01*
X011021Y013183D02*
X010944Y013260D01*
X010791Y013260D01*
X010714Y013183D01*
X010100Y013260D02*
X009947Y013260D01*
X010023Y013260D02*
X010023Y012800D01*
X009947Y012800D02*
X010100Y012800D01*
X012112Y013587D02*
X012419Y013587D01*
X012265Y013587D02*
X012265Y014048D01*
X012112Y013894D01*
X005242Y018225D02*
X005165Y018225D01*
X005011Y018071D01*
X005011Y017918D02*
X005011Y018225D01*
X004858Y018148D02*
X004781Y018225D01*
X004628Y018225D01*
X004551Y018148D01*
X004551Y017995D01*
X004628Y017918D01*
X004781Y017918D01*
X004858Y018071D02*
X004551Y018071D01*
X004398Y017995D02*
X004321Y017918D01*
X004091Y017918D01*
X004091Y017765D02*
X004091Y018225D01*
X004321Y018225D01*
X004398Y018148D01*
X004398Y017995D01*
X004858Y018071D02*
X004858Y018148D01*
X003937Y018148D02*
X003937Y017995D01*
X003861Y017918D01*
X003630Y017918D01*
X003630Y017765D02*
X003630Y018225D01*
X003861Y018225D01*
X003937Y018148D01*
X003477Y018148D02*
X003400Y018225D01*
X003247Y018225D01*
X003170Y018148D01*
X003170Y017995D01*
X003247Y017918D01*
X003400Y017918D01*
X003477Y018071D02*
X003170Y018071D01*
X003017Y017918D02*
X002940Y017995D01*
X002940Y018302D01*
X002863Y018225D02*
X003017Y018225D01*
X002710Y018225D02*
X002479Y018225D01*
X002403Y018148D01*
X002479Y018071D01*
X002633Y018071D01*
X002710Y017995D01*
X002633Y017918D01*
X002403Y017918D01*
X002249Y018148D02*
X001942Y018148D01*
X001789Y018225D02*
X001482Y017918D01*
X001482Y018225D02*
X001789Y017918D01*
X003477Y018071D02*
X003477Y018148D01*
X003401Y024138D02*
X003324Y024215D01*
X003401Y024292D01*
X003631Y024292D01*
X003631Y024369D02*
X003631Y024138D01*
X003401Y024138D01*
X003171Y024138D02*
X003017Y024138D01*
X003094Y024138D02*
X003094Y024599D01*
X003017Y024599D01*
X003401Y024445D02*
X003555Y024445D01*
X003631Y024369D01*
X003785Y024369D02*
X003861Y024292D01*
X004015Y024292D01*
X004092Y024215D01*
X004015Y024138D01*
X003785Y024138D01*
X003785Y024369D02*
X003861Y024445D01*
X004092Y024445D01*
X004245Y024369D02*
X004322Y024445D01*
X004475Y024445D01*
X004552Y024369D01*
X004552Y024292D01*
X004245Y024292D01*
X004245Y024215D02*
X004245Y024369D01*
X004245Y024215D02*
X004322Y024138D01*
X004475Y024138D01*
X004705Y024138D02*
X004705Y024445D01*
X004705Y024292D02*
X004859Y024445D01*
X004936Y024445D01*
X006994Y024369D02*
X007071Y024445D01*
X007301Y024445D01*
X007454Y024369D02*
X007454Y024215D01*
X007531Y024138D01*
X007684Y024138D01*
X007761Y024292D02*
X007454Y024292D01*
X007454Y024369D02*
X007531Y024445D01*
X007684Y024445D01*
X007761Y024369D01*
X007761Y024292D01*
X007915Y024138D02*
X007915Y024445D01*
X008145Y024445D01*
X008221Y024369D01*
X008221Y024138D01*
X008375Y024138D02*
X008605Y024138D01*
X008682Y024215D01*
X008605Y024292D01*
X008452Y024292D01*
X008375Y024369D01*
X008452Y024445D01*
X008682Y024445D01*
X008835Y024369D02*
X008835Y024215D01*
X008912Y024138D01*
X009065Y024138D01*
X009142Y024292D02*
X008835Y024292D01*
X008835Y024369D02*
X008912Y024445D01*
X009065Y024445D01*
X009142Y024369D01*
X009142Y024292D01*
X007301Y024215D02*
X007224Y024292D01*
X007071Y024292D01*
X006994Y024369D01*
X006994Y024138D02*
X007224Y024138D01*
X007301Y024215D01*
X021894Y024445D02*
X022047Y024445D01*
X021971Y024522D02*
X021971Y024215D01*
X022047Y024138D01*
X022201Y024215D02*
X022201Y024369D01*
X022278Y024445D01*
X022431Y024445D01*
X022508Y024369D01*
X022508Y024215D01*
X022431Y024138D01*
X022278Y024138D01*
X022201Y024215D01*
X023923Y024215D02*
X024000Y024138D01*
X024230Y024138D01*
X024230Y024062D02*
X024153Y023985D01*
X024076Y023985D01*
X024230Y024062D02*
X024230Y024445D01*
X024383Y024522D02*
X024460Y024599D01*
X024614Y024599D01*
X024690Y024522D01*
X024690Y024445D01*
X024383Y024138D01*
X024690Y024138D01*
X024844Y024369D02*
X025151Y024369D01*
X025304Y024369D02*
X025304Y024215D01*
X025381Y024138D01*
X025534Y024138D01*
X025611Y024215D01*
X025611Y024369D01*
X025534Y024445D01*
X025381Y024445D01*
X025304Y024369D01*
X025764Y024445D02*
X025995Y024445D01*
X026071Y024369D01*
X026071Y024215D01*
X025995Y024138D01*
X025764Y024138D01*
X025764Y023985D02*
X025764Y024445D01*
X026225Y024445D02*
X026378Y024445D01*
X026301Y024522D02*
X026301Y024215D01*
X026378Y024138D01*
X026532Y024215D02*
X026608Y024138D01*
X026762Y024138D01*
X026839Y024215D01*
X026839Y024369D01*
X026762Y024445D01*
X026608Y024445D01*
X026532Y024369D01*
X026532Y024215D01*
X027978Y024215D02*
X027978Y024369D01*
X028055Y024445D01*
X028285Y024445D01*
X028285Y024599D02*
X028285Y024138D01*
X028055Y024138D01*
X027978Y024215D01*
X028438Y024215D02*
X028438Y024369D01*
X028515Y024445D01*
X028669Y024445D01*
X028745Y024369D01*
X028745Y024215D01*
X028669Y024138D01*
X028515Y024138D01*
X028438Y024215D01*
X028899Y024215D02*
X028899Y024369D01*
X028976Y024445D01*
X029129Y024445D01*
X029206Y024369D01*
X029206Y024215D01*
X029129Y024138D01*
X028976Y024138D01*
X028899Y024215D01*
X029359Y024138D02*
X029359Y024445D01*
X029359Y024292D02*
X029513Y024445D01*
X029589Y024445D01*
X029743Y024369D02*
X030050Y024369D01*
X030203Y024369D02*
X030203Y024215D01*
X030280Y024138D01*
X030433Y024138D01*
X030510Y024215D01*
X030510Y024369D01*
X030433Y024445D01*
X030280Y024445D01*
X030203Y024369D01*
X030664Y024445D02*
X030664Y023985D01*
X030664Y024138D02*
X030894Y024138D01*
X030970Y024215D01*
X030970Y024369D01*
X030894Y024445D01*
X030664Y024445D01*
X031124Y024445D02*
X031277Y024445D01*
X031201Y024522D02*
X031201Y024215D01*
X031277Y024138D01*
X031431Y024215D02*
X031507Y024138D01*
X031661Y024138D01*
X031738Y024215D01*
X031738Y024369D01*
X031661Y024445D01*
X031507Y024445D01*
X031431Y024369D01*
X031431Y024215D01*
X031289Y018225D02*
X031059Y018225D01*
X031059Y017765D01*
X031059Y017918D02*
X031289Y017918D01*
X031366Y017995D01*
X031366Y018148D01*
X031289Y018225D01*
X031520Y018148D02*
X031596Y018225D01*
X031750Y018225D01*
X031826Y018148D01*
X031826Y018071D01*
X031520Y018071D01*
X031520Y017995D02*
X031520Y018148D01*
X031520Y017995D02*
X031596Y017918D01*
X031750Y017918D01*
X031980Y017918D02*
X031980Y018225D01*
X032133Y018225D02*
X032210Y018225D01*
X032133Y018225D02*
X031980Y018071D01*
X030906Y017995D02*
X030829Y017918D01*
X030599Y017918D01*
X030599Y017765D02*
X030599Y018225D01*
X030829Y018225D01*
X030906Y018148D01*
X030906Y017995D01*
X030445Y018071D02*
X030139Y018071D01*
X030139Y017995D02*
X030139Y018148D01*
X030215Y018225D01*
X030369Y018225D01*
X030445Y018148D01*
X030445Y018071D01*
X030369Y017918D02*
X030215Y017918D01*
X030139Y017995D01*
X029985Y017918D02*
X029908Y017995D01*
X029908Y018302D01*
X029832Y018225D02*
X029985Y018225D01*
X029678Y018225D02*
X029448Y018225D01*
X029371Y018148D01*
X029448Y018071D01*
X029601Y018071D01*
X029678Y017995D01*
X029601Y017918D01*
X029371Y017918D01*
X029218Y018148D02*
X028911Y018148D01*
X028757Y018225D02*
X028757Y017841D01*
X028681Y017765D01*
X028604Y017765D01*
X028527Y017918D02*
X028757Y017918D01*
X028527Y017918D02*
X028451Y017995D01*
X028451Y018225D01*
X023923Y024215D02*
X023923Y024445D01*
M02*
