%
M48
M72
T01C0.0200
T02C0.0320
T03C0.0354
T04C0.0400
T05C0.0472
T06C0.0512
T07C0.0560
%
T01
X10832Y6008
X11462Y9158
X10281Y10024
X11462Y11992
X10753Y12859
X14769Y14276
X15871Y15142
X15557Y12150
X20438Y13882
X22328Y11126
X19809Y17740
X17683Y18449
X17368Y19473
X15950Y21363
X6265Y14118
X30675Y17504
T02
X15167Y10662
X15167Y9662
X15167Y8662
X15167Y7662
X15167Y6662
X15167Y5662
X15167Y4662
X12167Y4662
X12167Y5662
X12167Y6662
X12167Y7662
X12167Y8662
X12167Y9662
X12167Y10662
T03
X14454Y13142
X16423Y13142
X18391Y13142
X20360Y13142
X18753Y10024
X22753Y10024
X20360Y17142
X18391Y17142
X16423Y17142
X14454Y17142
X14454Y19048
X16423Y19048
X18391Y19048
X20163Y19048
X21934Y19048
X21934Y23048
X20163Y23048
X18391Y23048
X16423Y23048
X14454Y23048
X8895Y4276
X4895Y4276
T04
X7328Y7004
X7328Y8004
X7328Y9004
X7328Y10004
X7328Y11004
X7328Y12004
X7328Y13004
X7328Y14004
X7328Y15504
X7328Y16504
X7328Y17504
X7328Y18504
X7328Y19504
X7328Y20504
X7328Y21504
X7328Y22504
X10214Y16142
X10214Y15142
X11214Y15142
X11214Y16142
X11214Y14142
X10214Y14142
X22616Y14142
X23616Y14142
X23616Y15142
X23616Y16142
X22616Y16142
X22616Y15142
X26328Y15504
X26328Y14504
X26328Y13504
X26328Y12504
X26328Y11504
X26328Y10504
X26328Y17504
X26328Y18504
X26328Y19504
X26328Y20504
X26328Y21504
X26328Y22504
T05
X30793Y22351
X30793Y21351
X30793Y20351
X30793Y19351
X30309Y26363
X31309Y26363
X29309Y26363
X28309Y26363
X26978Y26363
X25978Y26363
X24978Y26363
X23978Y26363
X22647Y26363
X21647Y26363
X20647Y26363
X19647Y26363
X18316Y26363
X17316Y26363
X16316Y26363
X15316Y26363
X13986Y26363
X12986Y26363
X11986Y26363
X10986Y26363
X9655Y26363
X8655Y26363
X7655Y26363
X6655Y26363
X5324Y26363
X4324Y26363
X3324Y26363
X2324Y26363
X2840Y22548
X2840Y21548
X2840Y20548
X2840Y19548
X10714Y19744
X10714Y20744
X10714Y21744
X10714Y22744
T06
X18532Y3341
X20532Y3341
X22532Y3341
X24532Y3341
T07
X2249Y1264
X2249Y2642
X2249Y4020
X2249Y5398
X2249Y6776
X2249Y8154
X2249Y9532
X2249Y10910
X2249Y12288
X2249Y13666
X2249Y15044
X2249Y16422
X31383Y16422
X31383Y15044
X31383Y13666
X31383Y12288
X31383Y10910
X31383Y9532
X31383Y8154
X31383Y6776
X31383Y5398
X31383Y4020
X31383Y2642
X31383Y1264
M30
