G75*
G70*
%OFA0B0*%
%FSLAX24Y24*%
%IPPOS*%
%LPD*%
%AMOC8*
5,1,8,0,0,1.08239X$1,22.5*
%
%ADD10C,0.0820*%
%ADD11C,0.0792*%
%ADD12C,0.0867*%
%ADD13C,0.0920*%
%ADD14OC8,0.0820*%
%ADD15C,0.0640*%
D10*
X004423Y003961D03*
X007328Y007004D03*
X007328Y008004D03*
X007328Y009004D03*
X007328Y010004D03*
X007328Y011004D03*
X007328Y012004D03*
X007328Y013004D03*
X007328Y014004D03*
X007328Y015504D03*
X007328Y016504D03*
X007328Y017504D03*
X007328Y018504D03*
X007328Y019504D03*
X007328Y020504D03*
X007328Y021504D03*
X007328Y022504D03*
X013352Y022733D03*
X014927Y022733D03*
X016580Y022733D03*
X018273Y022733D03*
X019966Y022733D03*
X019966Y018733D03*
X018273Y018733D03*
X016580Y018733D03*
X014927Y018733D03*
X013352Y018733D03*
X013824Y017221D03*
X015478Y017221D03*
X017131Y017221D03*
X018785Y017221D03*
X020517Y017221D03*
X022249Y017221D03*
X023982Y017221D03*
X026328Y017504D03*
X026328Y018504D03*
X026328Y019504D03*
X026328Y020504D03*
X026328Y021504D03*
X026328Y022504D03*
X026328Y015504D03*
X026328Y014504D03*
X026328Y013504D03*
X026328Y012504D03*
X026328Y011504D03*
X026328Y010504D03*
X027557Y007740D03*
X023557Y007740D03*
X023982Y013221D03*
X022249Y013221D03*
X020517Y013221D03*
X018785Y013221D03*
X017131Y013221D03*
X015478Y013221D03*
X013824Y013221D03*
X008423Y003961D03*
D11*
X003196Y019548D02*
X002484Y019548D01*
X002484Y020548D02*
X003196Y020548D01*
X003196Y021548D02*
X002484Y021548D01*
X002484Y022548D02*
X003196Y022548D01*
X003324Y026006D02*
X003324Y026719D01*
X002324Y026719D02*
X002324Y026006D01*
X004324Y026006D02*
X004324Y026719D01*
X005324Y026719D02*
X005324Y026006D01*
X006655Y026006D02*
X006655Y026719D01*
X007655Y026719D02*
X007655Y026006D01*
X008655Y026006D02*
X008655Y026719D01*
X009655Y026719D02*
X009655Y026006D01*
X010986Y026006D02*
X010986Y026719D01*
X011986Y026719D02*
X011986Y026006D01*
X012986Y026006D02*
X012986Y026719D01*
X013986Y026719D02*
X013986Y026006D01*
X015316Y026006D02*
X015316Y026719D01*
X016316Y026719D02*
X016316Y026006D01*
X017316Y026006D02*
X017316Y026719D01*
X018316Y026719D02*
X018316Y026006D01*
X019647Y026006D02*
X019647Y026719D01*
X020647Y026719D02*
X020647Y026006D01*
X021647Y026006D02*
X021647Y026719D01*
X022647Y026719D02*
X022647Y026006D01*
X023978Y026006D02*
X023978Y026719D01*
X024978Y026719D02*
X024978Y026006D01*
X025978Y026006D02*
X025978Y026719D01*
X026978Y026719D02*
X026978Y026006D01*
X028309Y026006D02*
X028309Y026719D01*
X029309Y026719D02*
X029309Y026006D01*
X030309Y026006D02*
X030309Y026719D01*
X031309Y026719D02*
X031309Y026006D01*
X031149Y022351D02*
X030437Y022351D01*
X030437Y021351D02*
X031149Y021351D01*
X031149Y020351D02*
X030437Y020351D01*
X030437Y019351D02*
X031149Y019351D01*
X024102Y019705D02*
X023389Y019705D01*
X023389Y020705D02*
X024102Y020705D01*
X024102Y021705D02*
X023389Y021705D01*
X023389Y022705D02*
X024102Y022705D01*
X010283Y022666D02*
X009570Y022666D01*
X009570Y021666D02*
X010283Y021666D01*
X010283Y020666D02*
X009570Y020666D01*
X009570Y019666D02*
X010283Y019666D01*
D12*
X021210Y003341D03*
X023210Y003341D03*
X025210Y003341D03*
X027210Y003341D03*
D13*
X002669Y001264D02*
X001829Y001264D01*
X001829Y002642D02*
X002669Y002642D01*
X002669Y004020D02*
X001829Y004020D01*
X001829Y005398D02*
X002669Y005398D01*
X002669Y006776D02*
X001829Y006776D01*
X001829Y008154D02*
X002669Y008154D01*
X002669Y009532D02*
X001829Y009532D01*
X001829Y010910D02*
X002669Y010910D01*
X002669Y012288D02*
X001829Y012288D01*
X001829Y013666D02*
X002669Y013666D01*
X002669Y015044D02*
X001829Y015044D01*
X001829Y016422D02*
X002669Y016422D01*
X030963Y016422D02*
X031803Y016422D01*
X031803Y015044D02*
X030963Y015044D01*
X030963Y013666D02*
X031803Y013666D01*
X031803Y012288D02*
X030963Y012288D01*
X030963Y010910D02*
X031803Y010910D01*
X031803Y009532D02*
X030963Y009532D01*
X030963Y008154D02*
X031803Y008154D01*
X031803Y006776D02*
X030963Y006776D01*
X030963Y005398D02*
X031803Y005398D01*
X031803Y004020D02*
X030963Y004020D01*
X030963Y002642D02*
X031803Y002642D01*
X031803Y001264D02*
X030963Y001264D01*
D14*
X011214Y014142D03*
X010214Y014142D03*
X010214Y015142D03*
X011214Y015142D03*
X011214Y016142D03*
X010214Y016142D03*
D15*
X009997Y011055D02*
X010557Y011055D01*
X010557Y010055D02*
X009997Y010055D01*
X009997Y009055D02*
X010557Y009055D01*
X010557Y008055D02*
X009997Y008055D01*
X009997Y007055D02*
X010557Y007055D01*
X010557Y006055D02*
X009997Y006055D01*
X009997Y005055D02*
X010557Y005055D01*
X012997Y005055D02*
X013557Y005055D01*
X013557Y006055D02*
X012997Y006055D01*
X012997Y007055D02*
X013557Y007055D01*
X013557Y008055D02*
X012997Y008055D01*
X012997Y009055D02*
X013557Y009055D01*
X013557Y010055D02*
X012997Y010055D01*
X012997Y011055D02*
X013557Y011055D01*
X015549Y009520D02*
X015549Y008960D01*
X016549Y008960D02*
X016549Y009520D01*
X017549Y009520D02*
X017549Y008960D01*
X018549Y008960D02*
X018549Y009520D01*
X019549Y009520D02*
X019549Y008960D01*
X020549Y008960D02*
X020549Y009520D01*
X021549Y009520D02*
X021549Y008960D01*
X021549Y006520D02*
X021549Y005960D01*
X020549Y005960D02*
X020549Y006520D01*
X019549Y006520D02*
X019549Y005960D01*
X018549Y005960D02*
X018549Y006520D01*
X017549Y006520D02*
X017549Y005960D01*
X016549Y005960D02*
X016549Y006520D01*
X015549Y006520D02*
X015549Y005960D01*
M02*
