%
M48
M72
T01C0.0200
T02C0.0320
T03C0.0354
T04C0.0400
T05C0.0472
T06C0.0512
T07C0.0560
%
T01
X9257Y6559
X11462Y6559
X8470Y8843
X9572Y12780
X11068Y12780
X7997Y13567
X6501Y13725
X6895Y14591
X6501Y15378
X10753Y16717
X12171Y16008
X13982Y18370
X16501Y16717
X19179Y10575
X16423Y10181
X17683Y7347
X12879Y3882
X12249Y3646
X11462Y3331
X23116Y5851
X30202Y5221
X29966Y2622
X25399Y13803
X21226Y23646
X19179Y24512
X27919Y24512
X8312Y23882
X1856Y19158
T02
X10277Y11055
X10277Y10055
X10277Y9055
X10277Y8055
X10277Y7055
X10277Y6055
X10277Y5055
X13277Y5055
X13277Y6055
X13277Y7055
X13277Y8055
X13277Y9055
X13277Y10055
X13277Y11055
X15549Y9240
X16549Y9240
X17549Y9240
X18549Y9240
X19549Y9240
X20549Y9240
X21549Y9240
X21549Y6240
X20549Y6240
X19549Y6240
X18549Y6240
X17549Y6240
X16549Y6240
X15549Y6240
T03
X8423Y3961
X4423Y3961
X13824Y13221
X15478Y13221
X17131Y13221
X18785Y13221
X20517Y13221
X22249Y13221
X23982Y13221
X23982Y17221
X22249Y17221
X20517Y17221
X19966Y18733
X18273Y18733
X16580Y18733
X14927Y18733
X13352Y18733
X13824Y17221
X15478Y17221
X17131Y17221
X18785Y17221
X18273Y22733
X16580Y22733
X14927Y22733
X13352Y22733
X19966Y22733
X23557Y7740
X27557Y7740
T04
X26328Y10504
X26328Y11504
X26328Y12504
X26328Y13504
X26328Y14504
X26328Y15504
X26328Y17504
X26328Y18504
X26328Y19504
X26328Y20504
X26328Y21504
X26328Y22504
X11214Y16142
X11214Y15142
X10214Y15142
X10214Y16142
X10214Y14142
X11214Y14142
X7328Y14004
X7328Y13004
X7328Y12004
X7328Y11004
X7328Y10004
X7328Y9004
X7328Y8004
X7328Y7004
X7328Y15504
X7328Y16504
X7328Y17504
X7328Y18504
X7328Y19504
X7328Y20504
X7328Y21504
X7328Y22504
T05
X9927Y22666
X9927Y21666
X9927Y20666
X9927Y19666
X2840Y19548
X2840Y20548
X2840Y21548
X2840Y22548
X3324Y26363
X2324Y26363
X4324Y26363
X5324Y26363
X6655Y26363
X7655Y26363
X8655Y26363
X9655Y26363
X10986Y26363
X11986Y26363
X12986Y26363
X13986Y26363
X15316Y26363
X16316Y26363
X17316Y26363
X18316Y26363
X19647Y26363
X20647Y26363
X21647Y26363
X22647Y26363
X23978Y26363
X24978Y26363
X25978Y26363
X26978Y26363
X28309Y26363
X29309Y26363
X30309Y26363
X31309Y26363
X30793Y22351
X30793Y21351
X30793Y20351
X30793Y19351
X23746Y19705
X23746Y20705
X23746Y21705
X23746Y22705
T06
X23210Y3341
X25210Y3341
X27210Y3341
X21210Y3341
T07
X2249Y1264
X2249Y2642
X2249Y4020
X2249Y5398
X2249Y6776
X2249Y8154
X2249Y9532
X2249Y10910
X2249Y12288
X2249Y13666
X2249Y15044
X2249Y16422
X31383Y16422
X31383Y15044
X31383Y13666
X31383Y12288
X31383Y10910
X31383Y9532
X31383Y8154
X31383Y6776
X31383Y5398
X31383Y4020
X31383Y2642
X31383Y1264
M30
