G75*
G70*
%OFA0B0*%
%FSLAX24Y24*%
%IPPOS*%
%LPD*%
%AMOC8*
5,1,8,0,0,1.08239X$1,22.5*
%
%ADD10C,0.0000*%
%ADD11C,0.0740*%
%ADD12C,0.0712*%
%ADD13C,0.0787*%
%ADD14C,0.0840*%
%ADD15OC8,0.0740*%
%ADD16C,0.0560*%
%ADD17C,0.0400*%
%ADD18C,0.0800*%
%ADD19C,0.0120*%
%ADD20C,0.0400*%
%ADD21C,0.0500*%
D10*
X001068Y000181D02*
X001068Y027740D01*
X032564Y027740D01*
X032564Y000181D01*
X001068Y000181D01*
D11*
X004895Y004276D03*
X007328Y007004D03*
X007328Y008004D03*
X007328Y009004D03*
X007328Y010004D03*
X007328Y011004D03*
X007328Y012004D03*
X007328Y013004D03*
X007328Y014004D03*
X007328Y015504D03*
X007328Y016504D03*
X007328Y017504D03*
X007328Y018504D03*
X007328Y019504D03*
X007328Y020504D03*
X007328Y021504D03*
X007328Y022504D03*
X014454Y023048D03*
X016423Y023048D03*
X018391Y023048D03*
X020163Y023048D03*
X021934Y023048D03*
X026328Y022504D03*
X026328Y021504D03*
X026328Y020504D03*
X026328Y019504D03*
X026328Y018504D03*
X026328Y017504D03*
X026328Y015504D03*
X026328Y014504D03*
X026328Y013504D03*
X026328Y012504D03*
X026328Y011504D03*
X026328Y010504D03*
X022753Y010024D03*
X020360Y013142D03*
X018391Y013142D03*
X016423Y013142D03*
X014454Y013142D03*
X018753Y010024D03*
X018391Y017142D03*
X016423Y017142D03*
X014454Y017142D03*
X014454Y019048D03*
X016423Y019048D03*
X018391Y019048D03*
X020163Y019048D03*
X021934Y019048D03*
X020360Y017142D03*
X008895Y004276D03*
D12*
X003196Y019548D02*
X002484Y019548D01*
X002484Y020548D02*
X003196Y020548D01*
X003196Y021548D02*
X002484Y021548D01*
X002484Y022548D02*
X003196Y022548D01*
X003324Y026006D02*
X003324Y026719D01*
X002324Y026719D02*
X002324Y026006D01*
X004324Y026006D02*
X004324Y026719D01*
X005324Y026719D02*
X005324Y026006D01*
X006655Y026006D02*
X006655Y026719D01*
X007655Y026719D02*
X007655Y026006D01*
X008655Y026006D02*
X008655Y026719D01*
X009655Y026719D02*
X009655Y026006D01*
X010986Y026006D02*
X010986Y026719D01*
X011986Y026719D02*
X011986Y026006D01*
X012986Y026006D02*
X012986Y026719D01*
X013986Y026719D02*
X013986Y026006D01*
X015316Y026006D02*
X015316Y026719D01*
X016316Y026719D02*
X016316Y026006D01*
X017316Y026006D02*
X017316Y026719D01*
X018316Y026719D02*
X018316Y026006D01*
X019647Y026006D02*
X019647Y026719D01*
X020647Y026719D02*
X020647Y026006D01*
X021647Y026006D02*
X021647Y026719D01*
X022647Y026719D02*
X022647Y026006D01*
X023978Y026006D02*
X023978Y026719D01*
X024978Y026719D02*
X024978Y026006D01*
X025978Y026006D02*
X025978Y026719D01*
X026978Y026719D02*
X026978Y026006D01*
X028309Y026006D02*
X028309Y026719D01*
X029309Y026719D02*
X029309Y026006D01*
X030309Y026006D02*
X030309Y026719D01*
X031309Y026719D02*
X031309Y026006D01*
X031149Y022351D02*
X030437Y022351D01*
X030437Y021351D02*
X031149Y021351D01*
X031149Y020351D02*
X030437Y020351D01*
X030437Y019351D02*
X031149Y019351D01*
X011070Y019744D02*
X010358Y019744D01*
X010358Y020744D02*
X011070Y020744D01*
X011070Y021744D02*
X010358Y021744D01*
X010358Y022744D02*
X011070Y022744D01*
D13*
X018532Y003341D03*
X020532Y003341D03*
X022532Y003341D03*
X024532Y003341D03*
D14*
X030963Y004020D02*
X031803Y004020D01*
X031803Y002642D02*
X030963Y002642D01*
X030963Y001264D02*
X031803Y001264D01*
X031803Y005398D02*
X030963Y005398D01*
X030963Y006776D02*
X031803Y006776D01*
X031803Y008154D02*
X030963Y008154D01*
X030963Y009532D02*
X031803Y009532D01*
X031803Y010910D02*
X030963Y010910D01*
X030963Y012288D02*
X031803Y012288D01*
X031803Y013666D02*
X030963Y013666D01*
X030963Y015044D02*
X031803Y015044D01*
X031803Y016422D02*
X030963Y016422D01*
X002669Y016422D02*
X001829Y016422D01*
X001829Y015044D02*
X002669Y015044D01*
X002669Y013666D02*
X001829Y013666D01*
X001829Y012288D02*
X002669Y012288D01*
X002669Y010910D02*
X001829Y010910D01*
X001829Y009532D02*
X002669Y009532D01*
X002669Y008154D02*
X001829Y008154D01*
X001829Y006776D02*
X002669Y006776D01*
X002669Y005398D02*
X001829Y005398D01*
X001829Y004020D02*
X002669Y004020D01*
X002669Y002642D02*
X001829Y002642D01*
X001829Y001264D02*
X002669Y001264D01*
D15*
X010214Y014142D03*
X011214Y014142D03*
X011214Y015142D03*
X010214Y015142D03*
X010214Y016142D03*
X011214Y016142D03*
X022616Y016142D03*
X023616Y016142D03*
X023616Y015142D03*
X022616Y015142D03*
X022616Y014142D03*
X023616Y014142D03*
D16*
X015447Y010662D02*
X014887Y010662D01*
X014887Y009662D02*
X015447Y009662D01*
X015447Y008662D02*
X014887Y008662D01*
X014887Y007662D02*
X015447Y007662D01*
X015447Y006662D02*
X014887Y006662D01*
X014887Y005662D02*
X015447Y005662D01*
X015447Y004662D02*
X014887Y004662D01*
X012447Y004662D02*
X011887Y004662D01*
X011887Y005662D02*
X012447Y005662D01*
X012447Y006662D02*
X011887Y006662D01*
X011887Y007662D02*
X012447Y007662D01*
X012447Y008662D02*
X011887Y008662D01*
X011887Y009662D02*
X012447Y009662D01*
X012447Y010662D02*
X011887Y010662D01*
D17*
X010214Y016142D02*
X010202Y016166D01*
X009651Y016717D01*
X009651Y022071D01*
X010281Y022701D01*
X010517Y022701D01*
X010714Y022744D01*
X010753Y022780D01*
X011934Y023961D01*
X011934Y026323D01*
X011986Y026363D01*
X024927Y014118D02*
X026265Y015457D01*
X026328Y015504D01*
X026328Y014504D02*
X026344Y014433D01*
X026344Y013567D01*
X026328Y013504D01*
X024927Y014118D02*
X024927Y007740D01*
X020596Y003410D01*
X020532Y003341D01*
X020360Y005221D02*
X018549Y003410D01*
X018532Y003341D01*
X020360Y005221D02*
X020360Y013142D01*
D18*
X028864Y015378D02*
X028864Y009945D01*
X022643Y003725D01*
X022532Y003341D01*
X022171Y003174D01*
X020281Y001284D01*
X002249Y001284D01*
X002249Y001264D01*
X024532Y003341D02*
X024533Y003410D01*
X026423Y003410D01*
X029887Y006874D01*
X029887Y014985D01*
X031383Y014985D01*
X031383Y015044D01*
X031383Y016402D02*
X029887Y016402D01*
X028864Y015378D01*
X031383Y016402D02*
X031383Y016422D01*
D19*
X030675Y017504D02*
X027368Y017504D01*
X024533Y014670D01*
X024533Y011756D01*
X022801Y010024D01*
X022753Y010024D01*
X022328Y011126D02*
X022328Y011992D01*
X020438Y013882D01*
X022616Y016142D02*
X022643Y016166D01*
X024927Y018449D01*
X024927Y020260D01*
X025399Y020733D01*
X025399Y021599D01*
X026265Y022465D01*
X026328Y022504D01*
X025714Y023095D02*
X021934Y019315D01*
X021934Y019079D01*
X021934Y019048D01*
X021934Y019079D02*
X020202Y019079D01*
X020163Y019048D01*
X020123Y019079D01*
X018391Y019079D01*
X018391Y019048D01*
X017683Y018449D02*
X017683Y017898D01*
X018391Y017189D01*
X018391Y017142D01*
X016974Y017740D02*
X016423Y017189D01*
X016423Y017142D01*
X016423Y017111D01*
X015478Y016166D01*
X015478Y012229D01*
X015557Y012150D01*
X015950Y012780D02*
X015871Y012859D01*
X015871Y015142D01*
X014769Y014276D02*
X013903Y013410D01*
X013903Y009394D01*
X012171Y007662D01*
X012167Y007662D01*
X011462Y009158D02*
X011068Y009551D01*
X011068Y012465D01*
X009809Y012465D01*
X007368Y010024D01*
X007328Y010004D01*
X007328Y011004D02*
X007368Y011048D01*
X007919Y011599D01*
X007919Y012859D01*
X010202Y015142D01*
X010214Y015142D01*
X011214Y015142D02*
X011226Y015142D01*
X011777Y014591D01*
X011777Y012307D01*
X011462Y011992D01*
X011147Y012465D02*
X011068Y012465D01*
X011147Y012465D02*
X011147Y014118D01*
X011214Y014142D01*
X010753Y013646D02*
X010753Y012859D01*
X010753Y013646D02*
X010281Y014118D01*
X010214Y014142D01*
X007328Y016504D02*
X007289Y016559D01*
X006423Y017426D01*
X006423Y021756D01*
X002722Y025457D01*
X002722Y025929D01*
X002328Y026323D01*
X002324Y026363D01*
X006655Y026363D02*
X006659Y026323D01*
X006738Y026244D01*
X006738Y021126D01*
X007289Y020575D01*
X007328Y020504D01*
X007368Y019551D02*
X007328Y019504D01*
X007368Y019551D02*
X009257Y021441D01*
X009257Y025929D01*
X009651Y026323D01*
X009655Y026363D01*
X008655Y026363D02*
X008627Y026402D01*
X007683Y026402D01*
X007655Y026363D01*
X010986Y026363D02*
X010990Y026402D01*
X011383Y026796D01*
X011383Y026953D01*
X011698Y027268D01*
X014533Y027268D01*
X014533Y023174D01*
X014454Y023095D01*
X014454Y023048D01*
X015714Y023803D02*
X016423Y023095D01*
X016423Y023048D01*
X015714Y023803D02*
X015714Y025929D01*
X015320Y026323D01*
X015316Y026363D01*
X012986Y026363D02*
X012958Y026323D01*
X012564Y025929D01*
X012564Y023410D01*
X010911Y021756D01*
X010753Y021756D01*
X010714Y021744D01*
X013903Y019315D02*
X013903Y016638D01*
X013942Y016599D01*
X013588Y016244D01*
X013588Y012150D01*
X012171Y010733D01*
X012167Y010662D01*
X010832Y009473D02*
X010832Y006008D01*
X012171Y005693D02*
X012167Y005662D01*
X012171Y005693D02*
X015163Y005693D01*
X015167Y005662D01*
X015242Y005693D01*
X017289Y007740D01*
X017289Y019394D01*
X017368Y019473D01*
X016974Y019866D02*
X016974Y017740D01*
X016423Y019048D02*
X016423Y019079D01*
X015163Y019079D01*
X015163Y010733D01*
X015167Y010662D01*
X015163Y010654D01*
X015163Y009709D01*
X015167Y009662D01*
X015163Y009630D01*
X015163Y008685D01*
X015167Y008662D01*
X015950Y007426D02*
X015950Y012780D01*
X018753Y010024D02*
X018785Y010024D01*
X019809Y011048D01*
X019809Y017740D01*
X017840Y019866D02*
X016974Y019866D01*
X017840Y019866D02*
X021620Y023646D01*
X024454Y023646D01*
X026580Y025772D01*
X026580Y025929D01*
X026974Y026323D01*
X026978Y026363D01*
X025978Y026363D02*
X025950Y026402D01*
X025950Y027268D01*
X023588Y027268D01*
X022722Y026402D01*
X022647Y026363D01*
X021647Y026363D02*
X021620Y026402D01*
X021620Y027268D01*
X019257Y027268D01*
X018391Y026402D01*
X018316Y026363D01*
X018391Y025142D02*
X018391Y023048D01*
X020163Y023048D02*
X020202Y023095D01*
X020675Y023095D01*
X023903Y026323D01*
X023978Y026363D01*
X025714Y023410D02*
X025714Y023095D01*
X025714Y023410D02*
X027525Y023410D01*
X029887Y025772D01*
X029887Y025929D01*
X030281Y026323D01*
X030309Y026363D01*
X028309Y026363D02*
X028234Y026323D01*
X025005Y023095D01*
X021934Y023095D01*
X021934Y023048D01*
X025399Y020339D02*
X025714Y020654D01*
X025714Y020890D01*
X026328Y021504D01*
X027368Y022465D02*
X027840Y022937D01*
X031777Y022937D01*
X031777Y018607D01*
X030675Y017504D01*
X026328Y017504D02*
X026265Y017504D01*
X026265Y016796D01*
X023667Y014197D01*
X023616Y014142D01*
X023616Y015142D02*
X023667Y015142D01*
X025714Y017189D01*
X025714Y018922D01*
X026265Y019473D01*
X026328Y019504D01*
X025399Y020339D02*
X025399Y017898D01*
X023667Y016166D01*
X023616Y016142D01*
X015950Y021363D02*
X013903Y019315D01*
X014454Y019079D02*
X014454Y019048D01*
X014454Y019079D02*
X015163Y019079D01*
X014454Y017142D02*
X014454Y017111D01*
X013942Y016599D01*
X006738Y013646D02*
X006738Y006796D01*
X008391Y005142D01*
X015163Y005142D01*
X015163Y004670D01*
X015167Y004662D01*
X015167Y006662D02*
X015242Y006717D01*
X015950Y007426D01*
X010832Y009473D02*
X010281Y010024D01*
X006738Y013646D02*
X006265Y014118D01*
X018391Y025142D02*
X019572Y026323D01*
X019647Y026363D01*
D20*
X015950Y021363D03*
X017368Y019473D03*
X017683Y018449D03*
X019809Y017740D03*
X015871Y015142D03*
X014769Y014276D03*
X015557Y012150D03*
X011462Y011992D03*
X010753Y012859D03*
X010281Y010024D03*
X011462Y009158D03*
X010832Y006008D03*
X020438Y013882D03*
X022328Y011126D03*
X030675Y017504D03*
X006265Y014118D03*
D21*
X003509Y011914D02*
X002564Y010969D01*
X002249Y010969D01*
X002249Y010910D01*
X003509Y011914D02*
X003509Y016796D01*
X003273Y017032D01*
X003273Y019079D01*
X002879Y019473D01*
X002840Y019548D01*
X002879Y020496D02*
X002840Y020548D01*
X002879Y020496D02*
X003982Y020496D01*
X003982Y017268D01*
X004218Y017032D01*
X004218Y011284D01*
X002486Y009551D01*
X002249Y009551D01*
X002249Y009532D01*
X002249Y008213D02*
X002249Y008154D01*
X002249Y008213D02*
X002564Y008213D01*
X004927Y010575D01*
X004927Y017268D01*
X004690Y017504D01*
X004690Y021520D01*
X002879Y021520D01*
X002840Y021548D01*
X002879Y022544D02*
X002840Y022548D01*
X002879Y022544D02*
X004927Y022544D01*
X004927Y022229D01*
X005635Y021520D01*
X005635Y009945D01*
X002486Y006796D01*
X002249Y006796D01*
X002249Y006776D01*
M02*
